<svg xmlns="http://www.w3.org/2000/svg" xmlns:xlink="http://www.w3.org/1999/xlink" width="1280" zoomAndPan="magnify" viewBox="0 0 960 1439.999935" height="1920" preserveAspectRatio="xMidYMid meet" version="1.0"><defs><clipPath id="84d7c4a749"><path d="M 593 481.332031 L 707.359375 481.332031 L 707.359375 554.429688 L 593 554.429688 Z M 593 481.332031 " clip-rule="nonzero"/></clipPath><clipPath id="8184427d61"><path d="M 629.550781 481.332031 L 670.8125 481.332031 C 690.996094 481.332031 707.359375 497.695312 707.359375 517.878906 C 707.359375 538.066406 690.996094 554.429688 670.8125 554.429688 L 629.550781 554.429688 C 609.363281 554.429688 593 538.066406 593 517.878906 C 593 497.695312 609.363281 481.332031 629.550781 481.332031 Z M 629.550781 481.332031 " clip-rule="nonzero"/></clipPath><clipPath id="9254d8f873"><path d="M 593 470.359375 L 697 470.359375 L 697 555.691406 L 593 555.691406 Z M 593 470.359375 " clip-rule="nonzero"/></clipPath><clipPath id="03867f82ae"><path d="M 615 534 L 620 534 L 620 555.691406 L 615 555.691406 Z M 615 534 " clip-rule="nonzero"/></clipPath><clipPath id="1791b61e2c"><path d="M 759.824219 641.636719 L 847.644531 641.636719 L 847.644531 708.121094 L 759.824219 708.121094 Z M 759.824219 641.636719 " clip-rule="nonzero"/></clipPath><clipPath id="6f4e698ee5"><path d="M 793.066406 641.636719 L 814.402344 641.636719 C 823.21875 641.636719 831.671875 645.136719 837.90625 651.371094 C 844.140625 657.605469 847.644531 666.0625 847.644531 674.878906 C 847.644531 683.695312 844.140625 692.152344 837.90625 698.386719 C 831.671875 704.621094 823.21875 708.121094 814.402344 708.121094 L 793.066406 708.121094 C 784.25 708.121094 775.796875 704.621094 769.5625 698.386719 C 763.328125 692.152344 759.824219 683.695312 759.824219 674.878906 C 759.824219 666.0625 763.328125 657.605469 769.5625 651.371094 C 775.796875 645.136719 784.25 641.636719 793.066406 641.636719 Z M 793.066406 641.636719 " clip-rule="nonzero"/></clipPath><clipPath id="0acfce2e4a"><path d="M 766.066406 637.683594 L 838.957031 637.683594 L 838.957031 710.574219 L 766.066406 710.574219 Z M 766.066406 637.683594 " clip-rule="nonzero"/></clipPath></defs><path stroke-linecap="round" transform="matrix(0.746, 0, 0, 0.746, 485.585284, 735.14406)" fill-opacity="1" fill="#ffffff" fill-rule="nonzero" stroke-linejoin="round" d="M 186.453523 44.336021 C 186.453523 44.336021 186.453523 -44.334758 186.453523 -44.334758 C 186.453523 -44.334758 139.384807 -44.334758 139.384807 -44.334758 C 136.866167 -52.267688 133.682523 -59.912623 129.901945 -67.201493 C 129.901945 -67.201493 163.199305 -100.493617 163.199305 -100.493617 C 163.199305 -100.493617 100.505597 -163.19256 100.505597 -163.19256 C 100.505597 -163.19256 67.208238 -129.895201 67.208238 -129.895201 C 59.919368 -133.691487 52.279668 -136.875132 44.33103 -139.393771 C 44.33103 -139.393771 44.33103 -186.462487 44.33103 -186.462487 C 44.33103 -186.462487 -44.329277 -186.462487 -44.329277 -186.462487 C -44.329277 -186.462487 -44.329277 -139.393771 -44.329277 -139.393771 C -52.277915 -136.875132 -59.922851 -133.691487 -67.206484 -129.895201 C -67.206484 -129.895201 -100.503844 -163.19256 -100.503844 -163.19256 C -100.503844 -163.19256 -163.202788 -100.493617 -163.202788 -100.493617 C -163.202788 -100.493617 -129.905428 -67.201493 -129.905428 -67.201493 C -133.68077 -59.912623 -136.864414 -52.267688 -139.38829 -44.334758 C -139.38829 -44.334758 -186.457006 -44.334758 -186.457006 -44.334758 C -186.457006 -44.334758 -186.457006 44.336021 -186.457006 44.336021 C -186.457006 44.336021 -139.38829 44.336021 -139.38829 44.336021 C -136.864414 52.268951 -133.696478 59.913886 -129.905428 67.19752 C -129.905428 67.19752 -163.202788 100.49488 -163.202788 100.49488 C -163.202788 100.49488 -100.503844 163.193823 -100.503844 163.193823 C -100.503844 163.193823 -67.206484 129.896464 -67.206484 129.896464 C -59.922851 133.69275 -52.277915 136.876395 -44.329277 139.395034 C -44.329277 139.395034 -44.329277 186.46375 -44.329277 186.46375 C -44.329277 186.46375 44.33103 186.46375 44.33103 186.46375 C 44.33103 186.46375 44.33103 139.395034 44.33103 139.395034 C 52.279668 136.876395 59.919368 133.69275 67.208238 129.896464 C 67.208238 129.896464 100.505597 163.193823 100.505597 163.193823 C 100.505597 163.193823 163.199305 100.49488 163.199305 100.49488 C 163.199305 100.49488 129.901945 67.19752 129.901945 67.19752 C 133.698232 59.913886 136.866167 52.268951 139.384807 44.336021 C 139.384807 44.336021 186.453523 44.336021 186.453523 44.336021 Z M 66.202876 3.498451 C 65.38602 19.175805 59.123457 33.392244 49.284529 44.336021 C 47.713652 46.074459 46.064231 47.72388 44.33103 49.28952 C 33.382016 59.128448 19.149869 65.375303 3.488224 66.192159 C 2.331011 66.244521 1.173798 66.281175 0.000876655 66.281175 C -1.172045 66.281175 -2.334494 66.244521 -3.491707 66.192159 C -19.153352 65.375303 -33.380263 59.128448 -44.329277 49.28952 C -46.062478 47.72388 -47.717135 46.074459 -49.282776 44.336021 C -59.121703 33.392244 -65.384267 19.175805 -66.201123 3.498451 C -66.253486 2.341238 -66.290139 1.184026 -66.290139 0.011104 C -66.290139 -1.167054 -66.253486 -2.324267 -66.201123 -3.497188 C -65.384267 -19.174542 -59.121703 -33.390981 -49.282776 -44.334758 C -47.717135 -46.073196 -46.062478 -47.722617 -44.329277 -49.288258 C -33.380263 -59.132421 -19.153352 -65.379276 -3.491707 -66.196132 C -2.334494 -66.243258 -1.172045 -66.279912 0.000876655 -66.279912 C 1.173798 -66.279912 2.331011 -66.243258 3.488224 -66.196132 C 19.149869 -65.379276 33.382016 -59.132421 44.33103 -49.288258 C 46.064231 -47.722617 47.713652 -46.073196 49.284529 -44.334758 C 59.123457 -33.390981 65.38602 -19.174542 66.202876 -3.497188 C 66.255239 -2.324267 66.286656 -1.167054 66.286656 0.011104 C 66.286656 1.184026 66.255239 2.341238 66.202876 3.498451 Z M 66.202876 3.498451 " stroke="#253237" stroke-width="2" stroke-opacity="1" stroke-miterlimit="4"/><path stroke-linecap="round" transform="matrix(0.746, 0, 0, 0.746, 154.675907, 606.466439)" fill-opacity="1" fill="#ffffff" fill-rule="nonzero" stroke-linejoin="round" d="M 186.452478 44.338487 C 186.452478 44.338487 186.452478 -44.337529 186.452478 -44.337529 C 186.452478 -44.337529 139.383762 -44.337529 139.383762 -44.337529 C 136.865122 -52.270458 133.681478 -59.915394 129.906137 -67.199027 C 129.906137 -67.199027 163.203496 -100.496387 163.203496 -100.496387 C 163.203496 -100.496387 100.504553 -163.195331 100.504553 -163.195331 C 100.504553 -163.195331 67.207193 -129.897971 67.207193 -129.897971 C 59.923559 -133.694258 52.278624 -136.872666 44.329985 -139.396542 C 44.329985 -139.396542 44.329985 -186.465258 44.329985 -186.465258 C 44.329985 -186.465258 -44.325085 -186.465258 -44.325085 -186.465258 C -44.325085 -186.465258 -44.325085 -139.396542 -44.325085 -139.396542 C -52.27896 -136.872666 -59.918659 -133.694258 -67.207529 -129.897971 C -67.207529 -129.897971 -100.504889 -163.195331 -100.504889 -163.195331 C -100.504889 -163.195331 -163.198596 -100.496387 -163.198596 -100.496387 C -163.198596 -100.496387 -129.901237 -67.199027 -129.901237 -67.199027 C -133.681814 -59.915394 -136.865459 -52.270458 -139.384098 -44.337529 C -139.384098 -44.337529 -186.452814 -44.337529 -186.452814 -44.337529 C -186.452814 -44.337529 -186.452814 44.338487 -186.452814 44.338487 C -186.452814 44.338487 -139.384098 44.338487 -139.384098 44.338487 C -136.865459 52.271417 -133.697523 59.911116 -129.901237 67.199986 C -129.901237 67.199986 -163.198596 100.497345 -163.198596 100.497345 C -163.198596 100.497345 -100.504889 163.191053 -100.504889 163.191053 C -100.504889 163.191053 -67.207529 129.893693 -67.207529 129.893693 C -59.918659 133.68998 -52.27896 136.873624 -44.325085 139.392264 C -44.325085 139.392264 -44.325085 186.466216 -44.325085 186.466216 C -44.325085 186.466216 44.329985 186.466216 44.329985 186.466216 C 44.329985 186.466216 44.329985 139.392264 44.329985 139.392264 C 52.278624 136.873624 59.923559 133.68998 67.207193 129.893693 C 67.207193 129.893693 100.504553 163.191053 100.504553 163.191053 C 100.504553 163.191053 163.203496 100.497345 163.203496 100.497345 C 163.203496 100.497345 129.906137 67.199986 129.906137 67.199986 C 133.702423 59.911116 136.865122 52.271417 139.383762 44.338487 C 139.383762 44.338487 186.452478 44.338487 186.452478 44.338487 Z M 66.201832 3.495681 C 65.384976 19.173035 59.122412 33.389473 49.283485 44.338487 C 47.717844 46.071688 46.063186 47.726345 44.329985 49.291986 C 33.380972 59.130914 19.154061 65.377768 3.492415 66.194625 C 2.335203 66.246987 1.17799 66.278405 -0.000168083 66.278405 C -1.17309 66.278405 -2.330303 66.246987 -3.487515 66.194625 C -19.149161 65.377768 -33.381308 59.130914 -44.325085 49.291986 C -46.063523 47.726345 -47.712944 46.071688 -49.278585 44.338487 C -59.122748 33.389473 -65.385312 19.173035 -66.202168 3.495681 C -66.25453 2.338468 -66.285948 1.181255 -66.285948 0.00833363 C -66.285948 -1.164588 -66.25453 -2.321801 -66.202168 -3.499959 C -65.385312 -19.177313 -59.122748 -33.388515 -49.278585 -44.337529 C -47.712944 -46.07073 -46.063523 -47.725387 -44.325085 -49.291028 C -33.381308 -59.129955 -19.149161 -65.37681 -3.487515 -66.193666 C -2.330303 -66.246029 -1.17309 -66.277446 -0.000168083 -66.277446 C 1.17799 -66.277446 2.335203 -66.246029 3.492415 -66.193666 C 19.154061 -65.37681 33.380972 -59.129955 44.329985 -49.291028 C 46.063186 -47.725387 47.717844 -46.07073 49.283485 -44.337529 C 59.122412 -33.388515 65.384976 -19.177313 66.201832 -3.499959 C 66.254194 -2.321801 66.290848 -1.164588 66.290848 0.00833363 C 66.290848 1.181255 66.254194 2.338468 66.201832 3.495681 Z M 66.201832 3.495681 " stroke="#253237" stroke-width="2" stroke-opacity="1" stroke-miterlimit="4"/><path stroke-linecap="butt" transform="matrix(0.746, 0, 0, 0.746, 440.567863, 439.927094)" fill-opacity="1" fill="#253237" fill-rule="nonzero" stroke-linejoin="miter" d="M 69.17424 63.964358 C 69.17424 63.964358 -69.172911 63.964358 -69.172911 63.964358 C -78.624355 63.964358 -86.279763 56.303714 -86.279763 46.857506 C -86.279763 46.857506 -86.279763 -46.855789 -86.279763 -46.855789 C -86.279763 -56.301997 -78.624355 -63.962641 -69.172911 -63.962641 C -69.172911 -63.962641 69.17424 -63.962641 69.17424 -63.962641 C 78.625685 -63.962641 86.281093 -56.301997 86.281093 -46.855789 C 86.281093 -46.855789 86.281093 46.857506 86.281093 46.857506 C 86.281093 56.303714 78.625685 63.964358 69.17424 63.964358 Z M 69.17424 63.964358 " stroke="#253237" stroke-width="2" stroke-opacity="1" stroke-miterlimit="10"/><path stroke-linecap="butt" transform="matrix(0.746, 0, 0, 0.746, 430.833992, 430.193271)" fill-opacity="1" fill="#ffffff" fill-rule="nonzero" stroke-linejoin="miter" d="M 69.173565 63.963619 C 69.173565 63.963619 -69.173586 63.963619 -69.173586 63.963619 C -78.62503 63.963619 -86.280439 56.302974 -86.280439 46.856766 C -86.280439 46.856766 -86.280439 -46.856529 -86.280439 -46.856529 C -86.280439 -56.302737 -78.62503 -63.963381 -69.173586 -63.963381 C -69.173586 -63.963381 69.173565 -63.963381 69.173565 -63.963381 C 78.625009 -63.963381 86.280417 -56.302737 86.280417 -46.856529 C 86.280417 -46.856529 86.280417 46.856766 86.280417 46.856766 C 86.280417 56.302974 78.625009 63.963619 69.173565 63.963619 Z M 69.173565 63.963619 " stroke="#253237" stroke-width="2" stroke-opacity="1" stroke-miterlimit="10"/><path stroke-linecap="round" transform="matrix(0.746, 0, 0, 0.746, 430.834784, 430.193271)" fill="none" stroke-linejoin="round" d="M 52.824908 36.017714 C 52.824908 36.017714 -53.921431 33.986046 -53.921431 33.986046 C -53.921431 33.986046 -52.827053 -36.017476 -52.827053 -36.017476 C -52.827053 -36.017476 53.924522 -33.985808 53.924522 -33.985808 C 53.924522 -33.985808 52.824908 36.017714 52.824908 36.017714 Z M 52.824908 36.017714 " stroke="#253237" stroke-width="2" stroke-opacity="1" stroke-miterlimit="4"/><path stroke-linecap="round" transform="matrix(0.746, 0, 0, 0.746, 431.242064, 416.758528)" fill="none" stroke-linejoin="round" d="M -53.373004 -18.008447 C -53.373004 -18.008447 -0.549642 18.00653 -0.549642 18.00653 C -0.549642 18.00653 53.373335 -15.97678 53.373335 -15.97678 " stroke="#253237" stroke-width="2" stroke-opacity="1" stroke-miterlimit="4"/><path stroke-linecap="round" transform="matrix(0.746, 0, 0, 0.746, 406.46665, 439.968878)" fill="none" stroke-linejoin="round" d="M -21.25639 20.882022 C -21.25639 20.882022 21.256782 -20.882365 21.256782 -20.882365 " stroke="#253237" stroke-width="2" stroke-opacity="1" stroke-miterlimit="4"/><path stroke-linecap="round" transform="matrix(0.746, 0, 0, 0.746, 454.88211, 440.89091)" fill="none" stroke-linejoin="round" d="M 20.589905 21.677723 C 20.589905 21.677723 -20.593258 -21.678486 -20.593258 -21.678486 " stroke="#253237" stroke-width="2" stroke-opacity="1" stroke-miterlimit="4"/><path stroke-linecap="butt" transform="matrix(0.746, 0, 0, 0.746, 659.1333, 519.918871)" fill-opacity="1" fill="#253237" fill-rule="nonzero" stroke-linejoin="miter" d="M 69.17554 63.959672 C 69.17554 63.959672 -69.176848 63.959672 -69.176848 63.959672 C -78.623056 63.959672 -86.2837 56.304264 -86.2837 46.858056 C -86.2837 46.858056 -86.2837 -46.855239 -86.2837 -46.855239 C -86.2837 -56.301447 -78.623056 -63.962091 -69.176848 -63.962091 C -69.176848 -63.962091 69.17554 -63.962091 69.17554 -63.962091 C 78.621748 -63.962091 86.282392 -56.301447 86.282392 -46.855239 C 86.282392 -46.855239 86.282392 46.858056 86.282392 46.858056 C 86.282392 56.304264 78.621748 63.959672 69.17554 63.959672 Z M 69.17554 63.959672 " stroke="#253237" stroke-width="2" stroke-opacity="1" stroke-miterlimit="10"/><path stroke-linecap="butt" transform="matrix(0.746, 0, 0, 0.746, 649.399429, 511.15856)" fill-opacity="1" fill="#ffffff" fill-rule="nonzero" stroke-linejoin="miter" d="M 69.174864 63.963022 C 69.174864 63.963022 -69.177523 63.963022 -69.177523 63.963022 C -78.623731 63.963022 -86.284376 56.302378 -86.284376 46.85617 C -86.284376 46.85617 -86.284376 -46.857125 -86.284376 -46.857125 C -86.284376 -56.303333 -78.623731 -63.963978 -69.177523 -63.963978 C -69.177523 -63.963978 69.174864 -63.963978 69.174864 -63.963978 C 78.626309 -63.963978 86.281717 -56.303333 86.281717 -46.857125 C 86.281717 -46.857125 86.281717 46.85617 86.281717 46.85617 C 86.281717 56.302378 78.626309 63.963022 69.174864 63.963022 Z M 69.174864 63.963022 " stroke="#253237" stroke-width="2" stroke-opacity="1" stroke-miterlimit="10"/><path fill="#253237" d="M 676.75 517.992188 C 676.75 517.992188 635.039062 517.992188 635.039062 517.992188 C 634.445312 517.992188 633.964844 517.515625 633.964844 516.929688 C 633.964844 516.339844 634.445312 515.863281 635.039062 515.863281 C 635.039062 515.863281 675.847656 515.863281 675.847656 515.863281 C 675.847656 515.863281 680.445312 490.117188 680.445312 490.117188 C 680.445312 490.117188 631.109375 490.117188 631.109375 490.117188 C 630.515625 490.117188 630.035156 489.640625 630.035156 489.050781 C 630.035156 488.464844 630.515625 487.988281 631.109375 487.988281 C 631.109375 487.988281 681.730469 487.988281 681.730469 487.988281 C 682.046875 487.988281 682.347656 488.125 682.554688 488.367188 C 682.757812 488.609375 682.84375 488.929688 682.789062 489.238281 C 682.789062 489.238281 677.808594 517.117188 677.808594 517.117188 C 677.71875 517.625 677.269531 517.992188 676.75 517.992188 Z M 676.75 517.992188 " fill-opacity="1" fill-rule="nonzero"/><path fill="#253237" d="M 675.367188 527.746094 C 675.367188 527.746094 675.363281 527.746094 675.363281 527.746094 C 675.363281 527.746094 635.640625 527.613281 635.640625 527.613281 C 635.101562 527.609375 634.648438 527.210938 634.578125 526.683594 C 634.578125 526.683594 628.882812 482.695312 628.882812 482.695312 C 628.882812 482.695312 617.070312 482.695312 617.070312 482.695312 C 616.476562 482.695312 615.996094 482.21875 615.996094 481.632812 C 615.996094 481.042969 616.476562 480.566406 617.070312 480.566406 C 617.070312 480.566406 629.828125 480.566406 629.828125 480.566406 C 630.367188 480.566406 630.824219 480.964844 630.894531 481.496094 C 630.894531 481.496094 636.59375 525.484375 636.59375 525.484375 C 636.59375 525.484375 675.371094 525.617188 675.371094 525.617188 C 675.964844 525.617188 676.445312 526.097656 676.441406 526.683594 C 676.441406 527.269531 675.960938 527.746094 675.367188 527.746094 Z M 675.367188 527.746094 " fill-opacity="1" fill-rule="nonzero"/><path fill="#253237" d="M 642.125 541.75 C 638.808594 541.75 636.105469 539.074219 636.105469 535.785156 C 636.105469 532.496094 638.808594 529.820312 642.125 529.820312 C 645.445312 529.820312 648.144531 532.496094 648.144531 535.785156 C 648.144531 539.074219 645.445312 541.75 642.125 541.75 Z M 642.125 531.953125 C 639.992188 531.953125 638.253906 533.671875 638.253906 535.785156 C 638.253906 537.902344 639.992188 539.621094 642.125 539.621094 C 644.261719 539.621094 645.996094 537.902344 645.996094 535.785156 C 645.996094 533.671875 644.261719 531.953125 642.125 531.953125 Z M 642.125 531.953125 " fill-opacity="1" fill-rule="nonzero"/><path fill="#253237" d="M 669.542969 541.75 C 666.222656 541.75 663.523438 539.074219 663.523438 535.785156 C 663.523438 532.496094 666.222656 529.820312 669.542969 529.820312 C 672.859375 529.820312 675.5625 532.496094 675.5625 535.785156 C 675.5625 539.074219 672.859375 541.75 669.542969 541.75 Z M 669.542969 531.953125 C 667.40625 531.953125 665.671875 533.671875 665.671875 535.785156 C 665.671875 537.902344 667.40625 539.621094 669.542969 539.621094 C 671.675781 539.621094 673.414062 537.902344 673.414062 535.785156 C 673.414062 533.671875 671.675781 531.953125 669.542969 531.953125 Z M 669.542969 531.953125 " fill-opacity="1" fill-rule="nonzero"/><path fill="#253237" d="M 647.917969 517.992188 C 647.355469 517.992188 646.882812 517.558594 646.847656 516.996094 C 646.847656 516.996094 645.148438 490.019531 645.148438 490.019531 C 645.113281 489.429688 645.5625 488.925781 646.15625 488.890625 C 646.796875 488.867188 647.257812 489.300781 647.296875 489.886719 C 647.296875 489.886719 648.992188 516.863281 648.992188 516.863281 C 649.027344 517.449219 648.578125 517.953125 647.984375 517.992188 C 647.960938 517.992188 647.941406 517.992188 647.917969 517.992188 Z M 647.917969 517.992188 " fill-opacity="1" fill-rule="nonzero"/><path fill="#253237" d="M 663.167969 517.992188 C 663.148438 517.992188 663.128906 517.992188 663.105469 517.992188 C 662.515625 517.960938 662.0625 517.457031 662.09375 516.871094 C 662.09375 516.871094 663.617188 489.890625 663.617188 489.890625 C 663.652344 489.308594 664.105469 488.867188 664.75 488.890625 C 665.34375 488.921875 665.796875 489.421875 665.761719 490.011719 C 665.761719 490.011719 664.242188 516.988281 664.242188 516.988281 C 664.210938 517.554688 663.734375 517.992188 663.167969 517.992188 Z M 663.167969 517.992188 " fill-opacity="1" fill-rule="nonzero"/><path fill="#253237" d="M 632.652344 504.503906 C 632.0625 504.503906 631.585938 504.035156 631.578125 503.453125 C 631.570312 502.863281 632.046875 502.382812 632.640625 502.375 C 632.640625 502.375 679.226562 501.925781 679.226562 501.925781 C 679.914062 501.914062 680.308594 502.390625 680.3125 502.980469 C 680.320312 503.570312 679.84375 504.050781 679.25 504.054688 C 679.25 504.054688 632.664062 504.503906 632.664062 504.503906 C 632.664062 504.503906 632.652344 504.503906 632.652344 504.503906 Z M 632.652344 504.503906 " fill-opacity="1" fill-rule="nonzero"/><path stroke-linecap="butt" transform="matrix(0.746, 0, 0, 0.746, 813.546407, 683.542001)" fill-opacity="1" fill="#253237" fill-rule="nonzero" stroke-linejoin="miter" d="M 69.176821 63.962179 C 69.176821 63.962179 -69.175567 63.962179 -69.175567 63.962179 C -78.621775 63.962179 -86.282419 56.301535 -86.282419 46.855327 C -86.282419 46.855327 -86.282419 -46.857968 -86.282419 -46.857968 C -86.282419 -56.304176 -78.621775 -63.959584 -69.175567 -63.959584 C -69.175567 -63.959584 69.176821 -63.959584 69.176821 -63.959584 C 78.623029 -63.959584 86.283673 -56.304176 86.283673 -46.857968 C 86.283673 -46.857968 86.283673 46.855327 86.283673 46.855327 C 86.283673 56.301535 78.623029 63.962179 69.176821 63.962179 Z M 69.176821 63.962179 " stroke="#253237" stroke-width="2" stroke-opacity="1" stroke-miterlimit="10"/><path stroke-linecap="butt" transform="matrix(0.746, 0, 0, 0.746, 803.81256, 673.80825)" fill-opacity="1" fill="#ffffff" fill-rule="nonzero" stroke-linejoin="miter" d="M 69.176114 63.961343 C 69.176114 63.961343 -69.176274 63.961343 -69.176274 63.961343 C -78.622482 63.961343 -86.283126 56.300699 -86.283126 46.854491 C -86.283126 46.854491 -86.283126 -46.853568 -86.283126 -46.853568 C -86.283126 -56.305012 -78.622482 -63.96042 -69.176274 -63.96042 C -69.176274 -63.96042 69.176114 -63.96042 69.176114 -63.96042 C 78.622322 -63.96042 86.282966 -56.305012 86.282966 -46.853568 C 86.282966 -46.853568 86.282966 46.854491 86.282966 46.854491 C 86.282966 56.300699 78.622322 63.961343 69.176114 63.961343 Z M 69.176114 63.961343 " stroke="#253237" stroke-width="2" stroke-opacity="1" stroke-miterlimit="10"/><path stroke-linecap="round" transform="matrix(0.746, 0, 0, 0.746, 803.81256, 673.80825)" fill="none" stroke-linejoin="round" d="M 41.308753 0.000461448 C 41.308753 22.814834 22.814292 41.309294 -0.0000802832 41.309294 C -22.814453 41.309294 -41.308913 22.814834 -41.308913 0.000461448 C -41.308913 -22.813911 -22.814453 -41.308372 -0.0000802832 -41.308372 C 22.814292 -41.308372 41.308753 -22.813911 41.308753 0.000461448 Z M 41.308753 0.000461448 " stroke="#253237" stroke-width="2" stroke-opacity="1" stroke-miterlimit="4"/><path stroke-linecap="round" transform="matrix(0.746, 0, 0, 0.746, 803.723808, 673.80825)" fill="none" stroke-linejoin="round" d="M 0.443538 -41.308372 C 29.31626 -41.308372 29.31626 41.309294 0.443538 41.309294 C -29.314112 41.309294 -29.314112 -41.308372 0.443538 -41.308372 Z M 0.443538 -41.308372 " stroke="#253237" stroke-width="2" stroke-opacity="1" stroke-miterlimit="4"/><path stroke-linecap="round" transform="matrix(0.746, 0, 0, 0.746, 735.716214, 622.362526)" fill="none" stroke-linejoin="round" d="M 91.606483 27.653687 C 91.606483 27.653687 91.606483 110.271353 91.606483 110.271353 " stroke="#253237" stroke-width="2" stroke-opacity="1" stroke-miterlimit="4"/><path stroke-linecap="round" transform="matrix(0.746, 0, 0, 0.746, 735.716214, 622.362526)" fill="none" stroke-linejoin="round" d="M 49.973002 68.96252 C 49.973002 68.96252 132.590668 68.96252 132.590668 68.96252 " stroke="#253237" stroke-width="2" stroke-opacity="1" stroke-miterlimit="4"/><path stroke-linecap="round" transform="matrix(0.746, 0, 0, 0.746, 238.043672, 901.961686)" fill-opacity="1" fill="#fb921c" fill-rule="nonzero" stroke-linejoin="round" d="M 214.790327 -41.016606 C 214.790327 -41.016606 208.009374 176.696496 208.009374 176.696496 C 208.009374 176.696496 206.359953 220.722947 206.359953 220.722947 C 206.359953 220.722947 206.339008 221.534566 206.339008 221.534566 C 206.339008 221.534566 206.160975 220.722947 206.160975 220.722947 C 206.160975 220.722947 -158.774734 196.761834 -158.774734 196.761834 C -158.774734 196.761834 -175.39985 176.696496 -175.39985 176.696496 C -175.39985 176.696496 -205.539747 -64.145154 -205.539747 -64.145154 C -216.02797 -147.967159 -145.537475 -221.536572 -54.751248 -221.536572 C -54.751248 -221.536572 26.091327 -221.536572 26.091327 -221.536572 C 89.612363 -221.536572 145.629842 -192.422982 179.822602 -147.935741 C 202.898787 -117.905806 216.03132 -80.85405 214.790327 -41.016606 Z M 214.790327 -41.016606 " stroke="#253237" stroke-width="2" stroke-opacity="1" stroke-miterlimit="4"/><path stroke-linecap="round" transform="matrix(0.746, 0, 0, 0.746, 394.621715, 921.9545)" fill-opacity="1" fill="#137aa8" fill-rule="nonzero" stroke-linejoin="round" d="M 61.200541 193.922942 C 61.200541 193.922942 -3.530071 193.922942 -3.530071 193.922942 C -3.530071 193.922942 -3.551016 194.734562 -3.551016 194.734562 C -3.551016 194.734562 -3.729048 193.922942 -3.729048 193.922942 C -3.729048 193.922942 -14.939875 149.896492 -14.939875 149.896492 C -14.939875 149.896492 -59.280501 -59.752774 -59.280501 -59.752774 C -61.202207 -101.553815 -49.980908 -147.74284 -30.067422 -174.735746 C -23.27076 -183.956795 -15.458265 -190.936725 -6.807968 -194.733012 C 13.189299 -134.767395 33.547867 1.32293 53.96927 149.896492 C 56.377948 167.427481 58.791862 176.135376 61.200541 193.922942 Z M 61.200541 193.922942 " stroke="#253237" stroke-width="2" stroke-opacity="1" stroke-miterlimit="4"/><path stroke-linecap="round" transform="matrix(0.746, 0, 0, 0.746, 270.16945, 897.519286)" fill-opacity="1" fill="#137aa8" fill-rule="nonzero" stroke-linejoin="round" d="M 161.211901 -162.030414 C 130.349401 -179.393843 100.214741 -194.390483 71.530524 -204.679729 C 71.530524 -204.679729 -61.470409 -210.355832 -61.470409 -210.355832 C -96.129195 -195.631476 -129.667423 -178.06907 -161.210636 -155.427494 C -161.210636 -155.427494 -79.493606 201.952296 -79.493606 201.952296 C 9.925958 210.356489 81.191418 208.371947 125.584407 191.018991 C 125.584407 191.018991 161.211901 -162.030414 161.211901 -162.030414 Z M 161.211901 -162.030414 " stroke="#253237" stroke-width="2" stroke-opacity="1" stroke-miterlimit="4"/><path stroke-linecap="butt" transform="matrix(0.746, 0, 0, 0.746, 269.244433, 730.743421)" fill-opacity="1" fill="#ffffff" fill-rule="nonzero" stroke-linejoin="miter" d="M -46.432902 -66.868657 C -46.432902 -66.868657 -39.782856 -5.463069 -39.782856 -5.463069 C -39.782856 -5.463069 24.303696 66.870588 24.303696 66.870588 C 24.303696 66.870588 46.432119 21.39893 46.432119 21.39893 C 46.432119 21.39893 44.133402 -38.001171 44.133402 -38.001171 C 44.133402 -38.001171 -46.432902 -66.868657 -46.432902 -66.868657 Z M -46.432902 -66.868657 " stroke="#253237" stroke-width="2" stroke-opacity="1" stroke-miterlimit="10"/><path stroke-linecap="round" transform="matrix(0.746, 0, 0, 0.746, 249.30457, 752.804915)" fill-opacity="1" fill="#137aa8" fill-rule="nonzero" stroke-linejoin="round" d="M 51.032721 37.297556 C 51.032721 37.297556 18.704069 20.970906 18.704069 20.970906 C 18.704069 20.970906 1.979463 46.853725 1.979463 46.853725 C 1.979463 46.853725 -51.032405 -18.698979 -51.032405 -18.698979 C -51.032405 -18.698979 -27.165544 -46.356889 -27.165544 -46.356889 C -27.165544 -46.356889 -14.331478 -46.854334 -14.331478 -46.854334 C -14.331478 -46.854334 -13.053831 -35.036101 -13.053831 -35.036101 C -13.053831 -35.036101 51.032721 37.297556 51.032721 37.297556 Z M 51.032721 37.297556 " stroke="#253237" stroke-width="2" stroke-opacity="1" stroke-miterlimit="4"/><path stroke-linecap="round" transform="matrix(0.746, 0, 0, 0.746, 305.453023, 758.914594)" fill-opacity="1" fill="#137aa8" fill-rule="nonzero" stroke-linejoin="round" d="M -24.233262 29.107641 C -24.233262 29.107641 -2.77508 14.304742 -2.77508 14.304742 C -2.77508 14.304742 22.526515 37.962152 22.526515 37.962152 C 22.526515 37.962152 24.233535 -18.882656 24.233535 -18.882656 C 24.233535 -18.882656 -2.94264 -37.963577 -2.94264 -37.963577 C -2.94264 -37.963577 -2.104839 -16.364016 -2.104839 -16.364016 C -2.104839 -16.364016 -24.233262 29.107641 -24.233262 29.107641 Z M -24.233262 29.107641 " stroke="#253237" stroke-width="2" stroke-opacity="1" stroke-miterlimit="4"/><path stroke-linecap="round" transform="matrix(0.746, 0, 0, 0.746, 284.151736, 787.448408)" fill-opacity="1" fill="#fb921c" fill-rule="nonzero" stroke-linejoin="round" d="M 20.526943 -20.320827 C 23.03511 -3.721892 21.752227 10.389822 16.563096 21.930532 C 16.563096 21.930532 -9.984728 22.956839 -9.984728 22.956839 C -18.100927 11.484199 -21.535911 -4.753434 -23.033481 -22.959901 C -23.033481 -22.959901 4.320727 -9.141418 4.320727 -9.141418 C 4.320727 -9.141418 20.526943 -20.320827 20.526943 -20.320827 Z M 20.526943 -20.320827 " stroke="#253237" stroke-width="2" stroke-opacity="1" stroke-miterlimit="4"/><path stroke-linecap="round" transform="matrix(0.746, 0, 0, 0.746, 292.102614, 917.549372)" fill-opacity="1" fill="#fb921c" fill-rule="nonzero" stroke-linejoin="round" d="M 5.905089 -152.467448 C 5.905089 -152.467448 30.766838 -28.142994 30.766838 -28.142994 C 27.410397 28.293386 19.053331 89.714683 9.355782 152.465989 C -6.625275 96.233823 -21.496245 37.441128 -30.76442 -34.327014 C -30.76442 -34.327014 -20.647972 -151.441142 -20.647972 -151.441142 C -20.647972 -151.441142 5.905089 -152.467448 5.905089 -152.467448 Z M 5.905089 -152.467448 " stroke="#253237" stroke-width="2" stroke-opacity="1" stroke-miterlimit="4"/><path stroke-linecap="round" transform="matrix(0.746, 0, 0, 0.746, 137.563399, 920.344652)" fill-opacity="1" fill="#137aa8" fill-rule="nonzero" stroke-linejoin="round" d="M 66.8082 -29.481337 C 66.8082 -29.481337 20.394016 136.953098 20.394016 136.953098 C 5.821512 185.430367 -72.926559 161.757248 -58.348819 113.279979 C -37.121033 1.805299 -11.468609 -96.500193 17.32557 -185.427549 C 55.717807 -154.203747 72.924148 -102.898899 66.8082 -29.481337 Z M 66.8082 -29.481337 " stroke="#253237" stroke-width="2" stroke-opacity="1" stroke-miterlimit="4"/><path stroke-linecap="round" transform="matrix(0.746, 0, 0, 0.746, 268.942263, 706.957191)" fill-opacity="1" fill="#253237" fill-rule="nonzero" stroke-linejoin="round" d="M 42.962342 1.010384 C 42.962342 1.010384 43.773962 22.065374 43.773962 22.065374 C -1.90191 24.709684 -25.449359 6.09479 -43.776259 -24.710111 C -14.018609 -5.309778 12.796264 2.665041 42.962342 1.010384 Z M 42.962342 1.010384 " stroke="#253237" stroke-width="2" stroke-opacity="1" stroke-miterlimit="4"/><path stroke-linecap="butt" transform="matrix(0.746, 0, 0, 0.746, 299.613336, 895.964614)" fill-opacity="1" fill="#ffffff" fill-rule="nonzero" stroke-linejoin="miter" d="M -57.682683 2.69698 C -46.759851 -13.399274 -32.333962 -27.657603 -16.269125 -41.057185 C -14.085606 -42.874166 -11.488422 -44.214648 -8.681788 -44.638785 C -4.121008 -45.324735 -0.916419 -43.502517 1.167611 -39.611978 C 4.220349 -33.91493 2.811796 -26.830274 -1.717566 -22.217132 C -1.717566 -22.217132 -17.761458 -5.859064 -17.761458 -5.859064 C -9.032618 -7.534666 -0.921655 -10.472207 6.738989 -14.326092 C 16.619806 -19.2953 24.081473 -28.071267 27.882996 -38.460001 C 27.924886 -38.564727 27.961539 -38.669452 28.003429 -38.779413 C 31.569321 -48.513615 44.989848 -49.450905 49.859567 -40.292691 C 50.425083 -39.224495 50.953945 -38.114408 51.440917 -36.962432 C 57.682535 -22.211895 54.645506 -5.157406 44.607601 7.325831 C 36.339551 17.615077 25.264867 26.574313 9.917397 33.491409 C 9.917397 33.491409 -37.062302 49.451521 -37.062302 49.451521 C -37.062302 49.451521 -57.682683 2.69698 -57.682683 2.69698 Z M -57.682683 2.69698 " stroke="#253237" stroke-width="2" stroke-opacity="1" stroke-miterlimit="10"/><path fill="#137aa8" d="M 140.347656 1039.136719 C 111.363281 1061.914062 73.460938 1013.679688 102.445312 990.90625 C 102.445312 990.90625 258.097656 890.273438 258.097656 890.273438 C 258.097656 890.273438 280.695312 933.347656 280.695312 933.347656 C 280.695312 933.347656 140.347656 1039.136719 140.347656 1039.136719 Z M 140.347656 1039.136719 " fill-opacity="1" fill-rule="nonzero"/><path stroke-linecap="butt" transform="matrix(0.746, 0, 0, 0.746, 210.520023, 964.70632)" fill="none" stroke-linejoin="miter" d="M 63.776953 -99.775928 C 63.776953 -99.775928 94.068701 -42.03572 94.068701 -42.03572 C 94.068701 -42.03572 -94.064784 99.772598 -94.064784 99.772598 " stroke="#253237" stroke-width="2" stroke-opacity="1" stroke-miterlimit="10"/><path stroke-linecap="round" transform="matrix(0.746, 0, 0, 0.746, 111.754039, 1026.741443)" fill="none" stroke-linejoin="round" d="M -21.437415 -41.375906 C -38.329581 3.079917 0.685772 41.372666 38.329224 16.615642 " stroke="#253237" stroke-width="2" stroke-opacity="1" stroke-miterlimit="4"/><path stroke-linecap="round" transform="matrix(0.746, 0, 0, 0.746, 196.011041, 930.413443)" fill="none" stroke-linejoin="round" d="M -83.224163 53.803373 C -83.224163 53.803373 83.225981 -53.806949 83.225981 -53.806949 " stroke="#253237" stroke-width="2" stroke-opacity="1" stroke-miterlimit="4"/><path stroke-linecap="round" transform="matrix(0.746, 0, 0, 0.746, 341.302814, 591.017497)" fill-opacity="1" fill="#253237" fill-rule="nonzero" stroke-linejoin="round" d="M 7.626502 -36.47304 C 16.161602 -12.925592 12.213464 11.443949 -1.725453 36.473259 C -1.725453 36.473259 -16.156578 -31.844189 -16.156578 -31.844189 C -16.156578 -31.844189 7.626502 -36.47304 7.626502 -36.47304 Z M 7.626502 -36.47304 " stroke="#253237" stroke-width="2" stroke-opacity="1" stroke-miterlimit="4"/><path stroke-linecap="butt" transform="matrix(0.746, 0, 0, 0.746, 284.175583, 623.576758)" fill-opacity="1" fill="#ffffff" fill-rule="nonzero" stroke-linejoin="miter" d="M -73.726235 -12.245773 C -73.726235 -12.245773 -71.322793 32.503281 -71.322793 32.503281 C -71.322793 32.503281 -65.416295 86.133027 -65.416295 86.133027 C -28.898637 109.738075 9.195134 120.917484 50.147901 109.586223 C 58.913396 107.161836 65.767657 100.291867 68.218225 91.531608 C 79.015387 52.914212 78.360855 0.00706887 66.57404 -66.791864 C 32.711165 -120.913819 -37.360429 -114.824051 -79.014855 -67.472578 C -79.014855 -67.472578 -73.726235 -12.245773 -73.726235 -12.245773 Z M -73.726235 -12.245773 " stroke="#253237" stroke-width="2" stroke-opacity="1" stroke-miterlimit="10"/><path stroke-linecap="butt" transform="matrix(0.746, 0, 0, 0.746, 217.81884, 626.531638)" fill-opacity="1" fill="#ffffff" fill-rule="nonzero" stroke-linejoin="miter" d="M 15.223773 -16.206736 C 5.96607 -30.271322 -17.81701 -19.887824 -9.538487 3.979036 C -0.924844 23.861104 8.369512 28.69417 17.81572 30.270283 C 17.81572 30.270283 15.223773 -16.206736 15.223773 -16.206736 Z M 15.223773 -16.206736 " stroke="#253237" stroke-width="2" stroke-opacity="1" stroke-miterlimit="10"/><path stroke-linecap="round" transform="matrix(0.746, 0, 0, 0.746, 226.961076, 590.376721)" fill-opacity="1" fill="#253237" fill-rule="nonzero" stroke-linejoin="round" d="M 20.536416 -43.086231 C 39.140837 -16.705967 27.045083 37.185592 4.534414 52.040854 C 4.534414 52.040854 2.968773 32.258274 2.968773 32.258274 C -3.105286 26.404138 -9.535409 23.000571 -17.374086 29.121756 C -35.816184 -3.264495 -39.141208 -30.728664 -23.573815 -52.040231 C -23.573815 -52.040231 20.536416 -43.086231 20.536416 -43.086231 Z M 20.536416 -43.086231 " stroke="#253237" stroke-width="2" stroke-opacity="1" stroke-miterlimit="4"/><path stroke-linecap="round" transform="matrix(0.746, 0, 0, 0.746, 286.120396, 542.073965)" fill-opacity="1" fill="#253237" fill-rule="nonzero" stroke-linejoin="round" d="M 74.942248 -46.743728 C 102.87768 -8.037315 90.399679 22.882784 65.49604 51.409913 C 42.618833 28.773574 3.650607 27.370257 -49.973903 45.288729 C -49.973903 45.288729 -102.87581 12.708736 -102.87581 12.708736 C -100.10583 -34.119112 -49.172756 -51.409233 -8.617944 -29.767782 C 34.905826 -13.608692 63.37012 -18.420813 74.942248 -46.743728 Z M 74.942248 -46.743728 " stroke="#253237" stroke-width="2" stroke-opacity="1" stroke-miterlimit="4"/><path stroke-linecap="butt" transform="matrix(0.746, 0, 0, 0.746, 245.725253, 654.181387)" fill="none" stroke-linejoin="miter" d="M -25.252713 -24.911154 C -15.010594 -1.149019 -0.548052 18.031391 25.250987 24.906597 " stroke="#253237" stroke-width="4" stroke-opacity="1" stroke-miterlimit="10"/><path stroke-linecap="butt" transform="matrix(0.746, 0, 0, 0.746, 265.887361, 672.955986)" fill-opacity="1" fill="#253237" fill-rule="nonzero" stroke-linejoin="miter" d="M 2.329274 7.237909 C 2.329274 7.237909 -6.389095 5.09628 -6.389095 5.09628 C -9.106712 4.431275 -10.682826 1.985943 -9.90786 -0.354664 C -9.90786 -0.354664 -8.640685 -4.203313 -8.640685 -4.203313 C -7.870955 -6.54392 -5.043377 -7.905347 -2.325759 -7.240342 C -2.325759 -7.240342 6.392609 -5.098713 6.392609 -5.098713 C 9.10499 -4.428472 10.681104 -1.988376 9.906138 0.357467 C 9.906138 0.357467 8.6442 4.20088 8.6442 4.20088 C 7.869234 6.546723 5.041655 7.90815 2.329274 7.237909 Z M 2.329274 7.237909 " stroke="#253237" stroke-width="2" stroke-opacity="1" stroke-miterlimit="10"/><path stroke-linecap="butt" transform="matrix(0.746, 0, 0, 0.746, 226.206888, 629.401509)" fill-opacity="1" fill="#fb921c" fill-rule="nonzero" stroke-linejoin="miter" d="M 29.983001 0.00111848 C 29.983001 16.558164 16.557238 29.983927 0.000192519 29.983927 C -16.556853 29.983927 -29.982616 16.558164 -29.982616 0.00111848 C -29.982616 -16.561163 -16.556853 -29.98169 0.000192519 -29.98169 C 16.557238 -29.98169 29.983001 -16.561163 29.983001 0.00111848 Z M 29.983001 0.00111848 " stroke="#253237" stroke-width="2" stroke-opacity="1" stroke-miterlimit="10"/><path stroke-linecap="butt" transform="matrix(0.746, 0, 0, 0.746, 254.564589, 575.883434)" fill-opacity="1" fill="#fb921c" fill-rule="nonzero" stroke-linejoin="miter" d="M -50.674061 68.075747 C -44.081614 13.498238 -28.545638 -38.429725 24.75946 -79.167806 C 40.520594 -81.566011 43.599513 -78.947883 52.553513 -69.166554 C -7.24978 -44.990755 -22.911426 8.387651 -32.467595 71.468841 C -34.352648 81.569581 -52.553878 78.176487 -50.674061 68.075747 Z M -50.674061 68.075747 " stroke="#253237" stroke-width="2" stroke-opacity="1" stroke-miterlimit="10"/><path stroke-linecap="round" transform="matrix(0.746, 0, 0, 0.746, 316.3618, 633.218013)" fill="none" stroke-linejoin="round" d="M -5.899276 -33.966613 C -3.720993 -8.984429 2.510153 12.023434 12.762745 29.08316 C 3.651657 32.753777 -4.810135 33.963352 -12.764009 33.22504 " stroke="#253237" stroke-width="2" stroke-opacity="1" stroke-miterlimit="4"/><path stroke-linecap="round" transform="matrix(0.746, 0, 0, 0.746, 276.367205, 601.253424)" fill="none" stroke-linejoin="round" d="M 12.174275 -5.041869 C 1.162426 -6.267153 -6.953773 -2.497048 -12.174321 6.268447 " stroke="#253237" stroke-width="2" stroke-opacity="1" stroke-miterlimit="4"/><path stroke-linecap="round" transform="matrix(0.746, 0, 0, 0.746, 326.819964, 604.942439)" fill="none" stroke-linejoin="round" d="M 9.870811 3.114188 C 4.728807 -0.991038 -1.397614 -3.116958 -9.869878 -0.477884 " stroke="#253237" stroke-width="2" stroke-opacity="1" stroke-miterlimit="4"/><path stroke-linecap="round" transform="matrix(0.746, 0, 0, 0.746, 283.008863, 625.538014)" fill-opacity="1" fill="#253237" fill-rule="nonzero" stroke-linejoin="round" d="M -5.022979 0.195147 C -4.813529 5.70369 -2.389142 10.081201 0.386074 9.976476 C 3.16129 9.866514 5.240085 5.316207 5.025398 -0.192336 C 4.810712 -5.706114 2.391561 -10.083625 -0.383656 -9.973664 C -3.158872 -9.868939 -5.237666 -5.313395 -5.022979 0.195147 Z M -5.022979 0.195147 " stroke="#253237" stroke-width="2" stroke-opacity="1" stroke-miterlimit="4"/><path stroke-linecap="round" transform="matrix(0.746, 0, 0, 0.746, 327.340688, 619.393174)" fill-opacity="1" fill="#253237" fill-rule="nonzero" stroke-linejoin="round" d="M -3.97545 0.153671 C -3.802654 4.63067 -1.880948 8.191325 0.313044 8.107545 C 2.507036 8.018529 4.145984 4.321731 3.973188 -0.155269 C 3.800391 -4.632269 1.883921 -8.192923 -0.315307 -8.103907 C -2.509298 -8.020127 -4.148247 -4.323329 -3.97545 0.153671 Z M -3.97545 0.153671 " stroke="#253237" stroke-width="2" stroke-opacity="1" stroke-miterlimit="4"/><path stroke-linecap="round" transform="matrix(0.746, 0, 0, 0.746, 292.262252, 680.645777)" fill="none" stroke-linejoin="round" d="M 14.817893 4.339187 C 3.89506 3.794617 -6.221389 1.433065 -14.819323 -4.342527 " stroke="#253237" stroke-width="2" stroke-opacity="1" stroke-miterlimit="4"/><path stroke-linecap="round" transform="matrix(0.746, 0, 0, 0.746, 843.254468, 954.248105)" fill-opacity="1" fill="#ffffff" fill-rule="nonzero" stroke-linejoin="round" d="M 7.717489 -86.52661 C 8.162571 -89.558403 10.623612 -91.883301 13.671114 -92.155587 C 17.949136 -92.54307 21.457428 -88.809618 20.808132 -84.563014 C 20.808132 -84.563014 -8.205969 92.542913 -8.205969 92.542913 C -8.205969 92.542913 -21.458936 92.542913 -21.458936 92.542913 C -21.458936 92.542913 7.717489 -86.52661 7.717489 -86.52661 Z M 7.717489 -86.52661 " stroke="#253237" stroke-width="2" stroke-opacity="1" stroke-miterlimit="4"/><path stroke-linecap="round" transform="matrix(0.746, 0, 0, 0.746, 810.482591, 846.810602)" fill-opacity="1" fill="#ffffff" fill-rule="nonzero" stroke-linejoin="round" d="M 61.99444 59.664458 C 61.99444 59.664458 -57.622619 -71.739416 -57.622619 -71.739416 C -57.622619 -71.739416 -58.491838 -70.299446 -58.491838 -70.299446 C -58.491838 -70.299446 -64.293611 -60.701386 -64.293611 -60.701386 C -64.293611 -60.701386 52.181694 68.550387 52.181694 68.550387 C 55.056399 71.744503 60.16175 71.393674 62.575664 67.838256 C 64.293157 65.303907 64.052289 61.926521 61.99444 59.664458 Z M 61.99444 59.664458 " stroke="#253237" stroke-width="2" stroke-opacity="1" stroke-miterlimit="4"/><path stroke-linecap="round" transform="matrix(0.746, 0, 0, 0.746, 828.699958, 1028.475827)" fill-opacity="1" fill="#137aa8" fill-rule="nonzero" stroke-linejoin="round" d="M -54.452829 8.666992 C -54.452829 8.666992 54.450848 8.666992 54.450848 8.666992 C 54.450848 8.666992 40.553821 -8.665019 4.29274 -8.665019 C -29.481119 -8.665019 -49.598819 1.268161 -54.452829 8.666992 Z M -54.452829 8.666992 " stroke="#253237" stroke-width="2" stroke-opacity="1" stroke-miterlimit="4"/><path stroke-linecap="round" transform="matrix(0.746, 0, 0, 0.746, 767.395803, 772.691745)" fill-opacity="1" fill="#137aa8" fill-rule="nonzero" stroke-linejoin="round" d="M 0.820388 6.775263 C 0.820388 6.775263 6.355111 -1.529441 6.355111 -1.529441 C 6.355111 -1.529441 -0.478204 -6.776171 -0.478204 -6.776171 C -0.478204 -6.776171 -6.358521 1.580896 -6.358521 1.580896 C -6.358521 1.580896 0.820388 6.775263 0.820388 6.775263 Z M 0.820388 6.775263 " stroke="#253237" stroke-width="2" stroke-opacity="1" stroke-miterlimit="4"/><path stroke-linecap="round" transform="matrix(0.746, 0, 0, 0.746, 736.80159, 810.85191)" fill-opacity="1" fill="#ffffff" fill-rule="nonzero" stroke-linejoin="round" d="M 51.209512 -39.366647 C 51.209512 -39.366647 27.368833 -56.646296 27.368833 -56.646296 C 27.368833 -56.646296 4.481152 -29.124528 4.481152 -29.124528 C -35.204441 -22.725822 -51.206443 2.240653 -51.206443 2.240653 C -51.206443 2.240653 19.844331 56.650601 19.844331 56.650601 C 44.166746 29.762421 32.641744 -8.64029 32.641744 -8.64029 C 32.641744 -8.64029 51.209512 -39.366647 51.209512 -39.366647 Z M 51.209512 -39.366647 " stroke="#253237" stroke-width="2" stroke-opacity="1" stroke-miterlimit="4"/><path stroke-linecap="round" transform="matrix(0.746, 0, 0, 0.746, 750.648893, 796.764415)" fill="none" stroke-linejoin="round" d="M -14.080906 -10.240497 C -14.080906 -10.240497 14.079686 10.243741 14.079686 10.243741 " stroke="#253237" stroke-width="2" stroke-opacity="1" stroke-miterlimit="4"/><path stroke-linecap="round" transform="matrix(0.746, 0, 0, 0.746, 365.886523, 1028.290211)" fill-opacity="1" fill="#ffffff" fill-rule="nonzero" stroke-linejoin="round" d="M 110.307257 11.031255 C 110.307257 11.031255 -110.306731 11.031255 -110.306731 11.031255 C -110.306731 11.031255 -110.306731 -11.029097 -110.306731 -11.029097 C -110.306731 -11.029097 110.307257 -11.029097 110.307257 -11.029097 C 110.307257 -11.029097 110.307257 11.031255 110.307257 11.031255 Z M 110.307257 11.031255 " stroke="#253237" stroke-width="2" stroke-opacity="1" stroke-miterlimit="4"/><path stroke-linecap="round" transform="matrix(0.746, 0, 0, 0.746, 504.152498, 854.60405)" fill-opacity="1" fill="#ffffff" fill-rule="nonzero" stroke-linejoin="round" d="M -245.098933 160.927794 C -245.098933 160.927794 245.09852 160.927794 245.09852 160.927794 C 245.09852 160.927794 245.09852 -160.929227 245.09852 -160.929227 C 245.09852 -160.929227 -245.098933 -160.929227 -245.098933 -160.929227 C -245.098933 -160.929227 -245.098933 160.927794 -245.098933 160.927794 Z M -245.098933 160.927794 " stroke="#253237" stroke-width="2" stroke-opacity="1" stroke-miterlimit="4"/><path stroke-linecap="round" transform="matrix(0.746, 0, 0, 0.746, 314.781791, 854.604866)" fill-opacity="1" fill="#ffffff" fill-rule="nonzero" stroke-linejoin="round" d="M 8.74906 -160.93032 C 8.74906 -160.93032 -8.750511 -160.93032 -8.750511 -160.93032 C -8.750511 -160.93032 -8.750511 160.931937 -8.750511 160.931937 C -8.750511 160.931937 8.74906 160.931937 8.74906 160.931937 C 8.74906 160.931937 8.74906 -160.93032 8.74906 -160.93032 Z M 8.74906 -160.93032 " stroke="#253237" stroke-width="2" stroke-opacity="1" stroke-miterlimit="4"/><path stroke-linecap="round" transform="matrix(0.746, 0, 0, 0.746, 532.857095, 969.843232)" fill-opacity="1" fill="#ffffff" fill-rule="nonzero" stroke-linejoin="round" d="M -86.850742 -83.821311 C -86.850742 -83.821311 30.55138 -83.821311 30.55138 -83.821311 C 30.55138 -83.821311 86.846381 83.8227 86.846381 83.8227 C 86.846381 83.8227 -56.642775 83.8227 -56.642775 83.8227 C -56.642775 83.8227 -86.850742 -83.821311 -86.850742 -83.821311 Z M -86.850742 -83.821311 " stroke="#253237" stroke-width="2" stroke-opacity="1" stroke-miterlimit="4"/><path stroke-linecap="round" transform="matrix(0.746, 0, 0, 0.746, 472.293053, 969.843232)" fill-opacity="1" fill="#ffffff" fill-rule="nonzero" stroke-linejoin="round" d="M -5.665743 -83.821311 C -5.665743 -83.821311 -24.54245 -83.821311 -24.54245 -83.821311 C -24.54245 -83.821311 2.230533 83.8227 2.230533 83.8227 C 2.230533 83.8227 24.542225 83.8227 24.542225 83.8227 C 24.542225 83.8227 -5.665743 -83.821311 -5.665743 -83.821311 Z M -5.665743 -83.821311 " stroke="#253237" stroke-width="2" stroke-opacity="1" stroke-miterlimit="4"/><path stroke-linecap="round" transform="matrix(0.746, 0, 0, 0.746, 491.859123, 1053.559353)" fill-opacity="1" fill="#253237" fill-rule="nonzero" stroke-linejoin="round" d="M -609.620434 26.515389 C -609.620434 26.515389 609.615873 26.515389 609.615873 26.515389 C 609.615873 26.515389 609.615873 -26.512187 609.615873 -26.512187 C 609.615873 -26.512187 -609.620434 -26.512187 -609.620434 -26.512187 C -609.620434 -26.512187 -609.620434 26.515389 -609.620434 26.515389 Z M -609.620434 26.515389 " stroke="#253237" stroke-width="2" stroke-opacity="1" stroke-miterlimit="4"/><path stroke-linecap="round" transform="matrix(0.746, 0, 0, 0.746, 888.972304, 1053.557241)" fill-opacity="1" fill="#253237" fill-rule="nonzero" stroke-linejoin="round" d="M 77.292864 26.51822 C 77.292864 26.51822 -77.297157 26.51822 -77.297157 26.51822 C -77.297157 26.51822 -77.297157 -26.519829 -77.297157 -26.519829 C -77.297157 -26.519829 77.292864 -26.519829 77.292864 -26.519829 C 77.292864 -26.519829 77.292864 26.51822 77.292864 26.51822 Z M 77.292864 26.51822 " stroke="#253237" stroke-width="2" stroke-opacity="1" stroke-miterlimit="4"/><g clip-path="url(#84d7c4a749)"><g clip-path="url(#8184427d61)"><path fill="#ffffff" d="M 593 481.332031 L 707.359375 481.332031 L 707.359375 554.429688 L 593 554.429688 Z M 593 481.332031 " fill-opacity="1" fill-rule="nonzero"/></g></g><path fill="#737373" d="M 665.847656 498.101562 C 665.847656 499.054688 666.628906 499.835938 667.582031 499.835938 C 668.539062 499.835938 669.316406 499.054688 669.316406 498.101562 C 669.316406 497.144531 668.539062 496.367188 667.582031 496.367188 C 666.628906 496.367188 665.847656 497.144531 665.847656 498.101562 " fill-opacity="1" fill-rule="nonzero"/><path fill="#737373" d="M 674.519531 499.835938 C 675.472656 499.835938 676.25 499.054688 676.25 498.101562 C 676.25 497.144531 675.472656 496.367188 674.519531 496.367188 C 673.5625 496.367188 672.785156 497.144531 672.785156 498.101562 C 672.785156 499.054688 673.5625 499.835938 674.519531 499.835938 " fill-opacity="1" fill-rule="nonzero"/><g clip-path="url(#9254d8f873)"><path fill="#737373" d="M 678.371094 524.746094 L 673.847656 522.027344 L 678.703125 517.171875 L 679.457031 517.171875 Z M 667.296875 516.171875 L 665.847656 514.71875 L 665.847656 514.253906 C 667.425781 515.003906 669.1875 515.4375 671.050781 515.4375 C 672.914062 515.4375 674.671875 515.003906 676.25 514.253906 L 676.25 514.71875 L 671.21875 519.753906 C 670.128906 518.34375 668.800781 517.132812 667.296875 516.171875 Z M 652.898438 525.070312 L 648.070312 522.171875 L 654.320312 517.171875 L 656.285156 517.171875 Z M 647.15625 527.574219 L 642.929688 527.574219 L 642.507812 525.917969 L 645.042969 524.390625 L 647.574219 525.917969 Z M 637.1875 525.070312 L 633.800781 517.171875 L 635.765625 517.171875 L 642.015625 522.171875 Z M 618.867188 519.753906 L 613.832031 514.71875 L 613.832031 514.253906 C 615.410156 515.003906 617.171875 515.4375 619.035156 515.4375 C 620.898438 515.4375 622.660156 515.003906 624.238281 514.253906 L 624.238281 514.71875 L 622.789062 516.171875 C 621.285156 517.132812 619.957031 518.34375 618.867188 519.753906 Z M 610.628906 517.171875 L 611.382812 517.171875 L 616.238281 522.027344 L 611.714844 524.746094 Z M 603.429688 505.035156 L 603.429688 504.074219 C 604.453125 504.667969 605.632812 505.035156 606.898438 505.035156 L 607.039062 505.035156 C 607.414062 507.644531 608.605469 509.980469 610.367188 511.78125 L 610.367188 513.703125 L 608.632812 513.703125 C 608.144531 513.703125 607.664062 513.730469 607.183594 513.777344 C 604.796875 511.488281 603.429688 508.355469 603.429688 505.035156 Z M 606.898438 501.566406 C 604.988281 501.566406 603.429688 500.011719 603.429688 498.101562 C 603.429688 497.144531 604.210938 496.367188 605.164062 496.367188 L 606.898438 496.367188 Z M 617.300781 477.292969 L 620.769531 477.292969 C 622.457031 477.292969 624.085938 477.59375 625.644531 478.179688 C 624.75 480.015625 624.238281 482.0625 624.238281 484.230469 C 624.238281 485.691406 624.480469 487.128906 624.933594 488.511719 C 623.476562 489.4375 622.503906 491.050781 622.503906 492.898438 C 622.503906 496.121094 624.722656 498.8125 627.703125 499.589844 L 627.703125 503.300781 C 627.703125 508.082031 623.816406 511.972656 619.035156 511.972656 C 614.253906 511.972656 610.367188 508.082031 610.367188 503.300781 L 610.367188 492.84375 C 613.597656 492.648438 616.738281 491.890625 619.734375 490.582031 C 620.605469 490.195312 621.007812 489.171875 620.621094 488.300781 C 620.242188 487.425781 619.230469 487.019531 618.335938 487.40625 C 615.261719 488.746094 612 489.429688 608.632812 489.429688 C 607.675781 489.429688 606.898438 490.210938 606.898438 491.164062 L 606.898438 492.898438 L 605.164062 492.898438 C 604.554688 492.898438 603.972656 493.027344 603.429688 493.21875 L 603.429688 491.164062 C 603.429688 483.519531 609.65625 477.292969 617.300781 477.292969 Z M 629.4375 496.367188 C 627.527344 496.367188 625.96875 494.808594 625.96875 492.898438 C 625.96875 491.945312 626.75 491.164062 627.703125 491.164062 L 629.4375 491.164062 Z M 649.554688 488.21875 C 651.492188 486.761719 653.886719 485.964844 656.3125 485.964844 L 657.179688 485.964844 L 657.179688 499.835938 C 657.179688 506.527344 651.734375 511.972656 645.042969 511.972656 C 638.351562 511.972656 632.90625 506.527344 632.90625 499.835938 L 632.90625 491.164062 L 640.707031 491.164062 C 643.878906 491.164062 647.019531 490.113281 649.554688 488.21875 Z M 662.382812 491.164062 C 663.335938 491.164062 664.113281 491.945312 664.113281 492.898438 C 664.113281 494.808594 662.558594 496.367188 660.648438 496.367188 L 660.648438 491.164062 Z M 638.105469 514.605469 L 638.105469 513.792969 C 640.199219 514.835938 642.550781 515.4375 645.042969 515.4375 C 647.535156 515.4375 649.886719 514.835938 651.976562 513.792969 L 651.976562 514.605469 L 645.042969 520.152344 Z M 631.171875 513.703125 C 629.980469 513.703125 628.820312 513.855469 627.703125 514.105469 L 627.703125 511.78125 C 629.195312 510.25 630.277344 508.332031 630.804688 506.195312 C 631.707031 508.207031 633.019531 509.980469 634.640625 511.429688 L 634.640625 513.703125 Z M 658.914062 513.703125 L 655.445312 513.703125 L 655.445312 511.429688 C 657.0625 509.980469 658.378906 508.207031 659.277344 506.195312 C 659.808594 508.332031 660.890625 510.25 662.382812 511.78125 L 662.382812 514.105469 C 661.261719 513.855469 660.105469 513.703125 658.914062 513.703125 Z M 676 488.257812 C 678.414062 491.132812 679.71875 494.726562 679.71875 498.519531 L 679.71875 503.300781 C 679.71875 508.082031 675.832031 511.972656 671.050781 511.972656 C 666.269531 511.972656 662.382812 508.082031 662.382812 503.300781 L 662.382812 499.589844 C 665.359375 498.8125 667.582031 496.121094 667.582031 492.898438 C 667.582031 492.59375 667.542969 492.296875 667.496094 492.003906 C 670.523438 491.226562 673.414062 489.980469 676 488.257812 Z M 684.921875 496.367188 C 685.875 496.367188 686.65625 497.144531 686.65625 498.101562 C 686.65625 500.011719 685.097656 501.566406 683.1875 501.566406 L 683.1875 498.519531 C 683.1875 497.796875 683.140625 497.078125 683.058594 496.367188 Z M 681.453125 513.703125 L 679.71875 513.703125 L 679.71875 511.78125 C 681.480469 509.980469 682.671875 507.644531 683.046875 505.035156 L 683.1875 505.035156 C 687.015625 505.035156 690.121094 501.925781 690.121094 498.101562 C 690.121094 497.035156 689.796875 496.046875 689.25 495.226562 C 689.816406 493.921875 690.121094 492.558594 690.121094 491.164062 C 690.121094 489.1875 689.796875 487.277344 689.152344 485.480469 C 688.828125 484.582031 687.832031 484.109375 686.933594 484.433594 C 686.039062 484.757812 685.566406 485.753906 685.890625 486.652344 C 686.398438 488.070312 686.65625 489.585938 686.65625 491.164062 C 686.65625 491.828125 686.519531 492.480469 686.324219 493.117188 C 685.875 492.988281 685.410156 492.898438 684.921875 492.898438 L 682.367188 492.898438 C 681.453125 489.851562 679.792969 487.054688 677.476562 484.738281 C 676.867188 484.128906 675.898438 484.058594 675.214844 484.574219 C 672.398438 486.6875 669.09375 488.136719 665.625 488.867188 C 665.347656 488.636719 665.042969 488.441406 664.71875 488.28125 C 665.457031 486.4375 665.847656 484.480469 665.847656 482.496094 L 665.847656 477.78125 C 666.992188 477.484375 668.160156 477.292969 669.316406 477.292969 L 672.785156 477.292969 C 676.515625 477.292969 680.011719 478.757812 682.632812 481.40625 C 682.96875 481.75 683.417969 481.917969 683.863281 481.917969 C 684.304688 481.917969 684.746094 481.757812 685.082031 481.425781 C 685.761719 480.75 685.769531 479.652344 685.097656 478.972656 C 681.820312 475.65625 677.449219 473.828125 672.785156 473.828125 L 669.316406 473.828125 C 668.160156 473.828125 667 473.953125 665.847656 474.199219 L 665.847656 472.09375 C 665.847656 471.136719 665.070312 470.359375 664.113281 470.359375 L 653.710938 470.359375 C 652.757812 470.359375 651.976562 471.136719 651.976562 472.09375 C 651.976562 473.046875 652.757812 473.828125 653.710938 473.828125 L 662.382812 473.828125 L 662.382812 482.496094 C 662.382812 484.296875 661.953125 486.070312 661.167969 487.695312 L 660.648438 487.695312 L 660.648438 484.230469 C 660.648438 483.273438 659.867188 482.496094 658.914062 482.496094 L 656.3125 482.496094 C 653.144531 482.496094 650 483.546875 647.46875 485.441406 C 645.53125 486.898438 643.132812 487.695312 640.707031 487.695312 L 628.308594 487.695312 C 627.90625 486.578125 627.703125 485.414062 627.703125 484.230469 C 627.703125 478.492188 632.371094 473.828125 638.105469 473.828125 L 646.777344 473.828125 C 647.730469 473.828125 648.511719 473.046875 648.511719 472.09375 C 648.511719 471.136719 647.730469 470.359375 646.777344 470.359375 L 638.105469 470.359375 C 633.886719 470.359375 630.109375 472.261719 627.5625 475.242188 C 625.414062 474.328125 623.097656 473.828125 620.769531 473.828125 L 617.300781 473.828125 C 607.738281 473.828125 599.960938 481.601562 599.960938 491.164062 L 599.960938 505.035156 C 599.960938 508.5625 601.160156 511.9375 603.308594 514.660156 C 597.320312 516.839844 593.027344 522.578125 593.027344 529.308594 L 593.027344 546.648438 C 593.027344 547.601562 593.804688 548.382812 594.761719 548.382812 C 595.714844 548.382812 596.496094 547.601562 596.496094 546.648438 L 596.496094 529.308594 C 596.496094 523.117188 601.15625 518.011719 607.140625 517.273438 L 608.652344 527.820312 C 608.734375 528.394531 609.097656 528.890625 609.621094 529.140625 C 609.859375 529.253906 610.109375 529.308594 610.367188 529.308594 C 610.675781 529.308594 610.980469 529.226562 611.261719 529.058594 L 615.867188 526.296875 C 615.675781 527.269531 615.566406 528.28125 615.566406 529.308594 C 615.566406 530.265625 616.347656 531.042969 617.300781 531.042969 C 618.257812 531.042969 619.035156 530.265625 619.035156 529.308594 C 619.035156 522.996094 623.882812 517.796875 630.054688 517.226562 L 634.78125 528.257812 C 634.976562 528.71875 635.363281 529.074219 635.839844 529.226562 C 636.015625 529.28125 636.199219 529.308594 636.375 529.308594 C 636.683594 529.308594 636.988281 529.226562 637.265625 529.058594 L 639.40625 527.777344 L 639.820312 529.4375 L 638.113281 546.472656 C 638.074219 546.90625 638.195312 547.339844 638.453125 547.691406 L 643.652344 554.625 C 643.984375 555.058594 644.492188 555.316406 645.042969 555.316406 C 645.589844 555.316406 646.097656 555.058594 646.429688 554.625 L 651.632812 547.691406 C 651.890625 547.339844 652.011719 546.90625 651.972656 546.472656 L 650.929688 536.074219 C 650.832031 535.121094 650.007812 534.429688 649.03125 534.519531 C 648.078125 534.613281 647.386719 535.464844 647.480469 536.414062 L 648.449219 546.148438 L 645.042969 550.691406 L 641.636719 546.148438 L 643.144531 531.042969 L 648.511719 531.042969 C 649.308594 531.042969 650 530.5 650.191406 529.730469 L 650.675781 527.777344 L 652.816406 529.058594 C 653.09375 529.226562 653.398438 529.308594 653.710938 529.308594 C 653.886719 529.308594 654.070312 529.28125 654.246094 529.226562 C 654.722656 529.074219 655.105469 528.71875 655.304688 528.257812 L 660.03125 517.226562 C 666.199219 517.796875 671.050781 522.996094 671.050781 529.308594 L 671.050781 553.582031 C 671.050781 554.539062 671.828125 555.316406 672.785156 555.316406 C 673.738281 555.316406 674.519531 554.539062 674.519531 553.582031 L 674.519531 529.308594 C 674.519531 528.28125 674.410156 527.269531 674.21875 526.296875 L 678.824219 529.058594 C 679.101562 529.226562 679.40625 529.308594 679.71875 529.308594 C 679.976562 529.308594 680.226562 529.253906 680.464844 529.140625 C 680.984375 528.890625 681.351562 528.394531 681.433594 527.820312 L 682.945312 517.273438 C 688.9375 518.011719 693.589844 523.117188 693.589844 529.308594 L 693.589844 546.648438 C 693.589844 547.601562 694.371094 548.382812 695.324219 548.382812 C 696.277344 548.382812 697.058594 547.601562 697.058594 546.648438 L 697.058594 529.308594 C 697.058594 520.707031 690.0625 513.703125 681.453125 513.703125 " fill-opacity="1" fill-rule="nonzero"/></g><path fill="#737373" d="M 615.566406 496.367188 C 614.613281 496.367188 613.832031 497.144531 613.832031 498.101562 C 613.832031 499.054688 614.613281 499.835938 615.566406 499.835938 C 616.523438 499.835938 617.300781 499.054688 617.300781 498.101562 C 617.300781 497.144531 616.523438 496.367188 615.566406 496.367188 " fill-opacity="1" fill-rule="nonzero"/><path fill="#737373" d="M 622.503906 499.835938 C 623.457031 499.835938 624.238281 499.054688 624.238281 498.101562 C 624.238281 497.144531 623.457031 496.367188 622.503906 496.367188 C 621.546875 496.367188 620.769531 497.144531 620.769531 498.101562 C 620.769531 499.054688 621.546875 499.835938 622.503906 499.835938 " fill-opacity="1" fill-rule="nonzero"/><g clip-path="url(#03867f82ae)"><path fill="#737373" d="M 617.300781 534.511719 C 616.347656 534.511719 615.566406 535.289062 615.566406 536.246094 L 615.566406 553.582031 C 615.566406 554.539062 616.347656 555.316406 617.300781 555.316406 C 618.257812 555.316406 619.035156 554.539062 619.035156 553.582031 L 619.035156 536.246094 C 619.035156 535.289062 618.257812 534.511719 617.300781 534.511719 " fill-opacity="1" fill-rule="nonzero"/></g><path fill="#737373" d="M 639.839844 498.101562 C 640.796875 498.101562 641.574219 497.320312 641.574219 496.367188 C 641.574219 495.410156 640.796875 494.632812 639.839844 494.632812 C 638.886719 494.632812 638.105469 495.410156 638.105469 496.367188 C 638.105469 497.320312 638.886719 498.101562 639.839844 498.101562 " fill-opacity="1" fill-rule="nonzero"/><path fill="#737373" d="M 650.246094 498.101562 C 651.199219 498.101562 651.976562 497.320312 651.976562 496.367188 C 651.976562 495.410156 651.199219 494.632812 650.246094 494.632812 C 649.289062 494.632812 648.511719 495.410156 648.511719 496.367188 C 648.511719 497.320312 649.289062 498.101562 650.246094 498.101562 " fill-opacity="1" fill-rule="nonzero"/><g clip-path="url(#1791b61e2c)"><g clip-path="url(#6f4e698ee5)"><path fill="#ffffff" d="M 759.824219 641.636719 L 847.644531 641.636719 L 847.644531 708.121094 L 759.824219 708.121094 Z M 759.824219 641.636719 " fill-opacity="1" fill-rule="nonzero"/></g></g><g clip-path="url(#0acfce2e4a)"><path fill="#737373" d="M 802.332031 710.210938 C 792.644531 710.210938 783.539062 706.441406 776.6875 699.589844 C 769.839844 692.742188 766.066406 683.636719 766.066406 673.949219 C 766.066406 664.261719 769.839844 655.15625 776.6875 648.304688 C 783.539062 641.457031 792.644531 637.683594 802.332031 637.683594 C 812.019531 637.683594 821.125 641.457031 827.972656 648.304688 C 834.824219 655.15625 838.597656 664.261719 838.597656 673.949219 C 838.597656 683.636719 834.824219 692.742188 827.972656 699.589844 C 821.125 706.441406 812.019531 710.210938 802.332031 710.210938 Z M 802.332031 643.21875 C 785.386719 643.21875 771.601562 657.003906 771.601562 673.949219 C 771.601562 690.894531 785.386719 704.679688 802.332031 704.679688 C 819.277344 704.679688 833.0625 690.890625 833.0625 673.949219 C 833.0625 657.003906 819.277344 643.21875 802.332031 643.21875 Z M 802.332031 643.21875 " fill-opacity="1" fill-rule="nonzero"/></g><path fill="#737373" d="M 814.367188 687.953125 C 813.828125 687.953125 813.285156 687.792969 812.804688 687.464844 L 799.324219 678.222656 C 798.570312 677.703125 798.121094 676.847656 798.121094 675.933594 L 798.15625 653.3125 C 798.160156 651.785156 799.398438 650.550781 800.925781 650.550781 C 800.925781 650.550781 800.929688 650.550781 800.929688 650.550781 C 802.457031 650.550781 803.695312 651.792969 803.691406 653.320312 L 803.660156 674.484375 L 815.9375 682.902344 C 817.195312 683.765625 817.515625 685.488281 816.652344 686.75 C 816.117188 687.53125 815.25 687.953125 814.367188 687.953125 Z M 814.367188 687.953125 " fill-opacity="1" fill-rule="nonzero"/></svg>