<svg xmlns="http://www.w3.org/2000/svg" xmlns:xlink="http://www.w3.org/1999/xlink" width="1366" zoomAndPan="magnify" viewBox="0 0 1024.5 576" height="768" preserveAspectRatio="xMidYMid meet" version="1.0"><defs><clipPath id="307dce885e"><path d="M 234.277344 72 L 629 72 L 629 513 L 234.277344 513 Z M 234.277344 72 " clip-rule="nonzero"/></clipPath><clipPath id="9e317959a3"><path d="M 299 0.140625 L 789.753906 0.140625 L 789.753906 575.859375 L 299 575.859375 Z M 299 0.140625 " clip-rule="nonzero"/></clipPath></defs><g clip-path="url(#307dce885e)"><path fill="#fb921c" d="M 599.699219 123.027344 C 602.945312 124.894531 606.113281 126.84375 609.238281 128.871094 C 519.769531 83.519531 409.402344 115.558594 358.632812 203.484375 C 326.042969 259.917969 326.023438 325.945312 351.792969 380.773438 C 406.378906 496.945312 552.359375 493.679688 596.046875 372.554688 C 621.492188 302.023438 574.558594 225.746094 504.144531 202.714844 C 506.824219 203.28125 509.503906 203.929688 512.160156 204.640625 C 595.640625 227.003906 645.195312 312.816406 622.8125 396.296875 C 595.175781 499.421875 479.207031 542.785156 387.792969 490.023438 C 286.453125 431.503906 251.734375 301.921875 310.238281 200.582031 C 368.738281 99.246094 498.34375 64.507812 599.679688 123.027344 Z M 499.214844 326.25 C 517.214844 321.421875 535.71875 332.113281 540.550781 350.113281 C 545.378906 368.113281 534.683594 386.617188 516.6875 391.449219 C 498.6875 396.277344 480.179688 385.582031 475.351562 367.585938 C 470.523438 349.585938 481.214844 331.078125 499.214844 326.25 Z M 267.199219 74.164062 C 290.738281 67.855469 314.925781 81.816406 321.234375 105.375 C 327.546875 128.914062 313.585938 153.121094 290.027344 159.429688 C 266.488281 165.742188 242.300781 151.761719 235.988281 128.222656 C 229.679688 104.683594 243.640625 80.476562 267.199219 74.183594 Z M 267.199219 74.164062 " fill-opacity="1" fill-rule="evenodd"/></g><g clip-path="url(#9e317959a3)"><path fill="#0080a5" d="M 400.675781 94.945312 C 396.71875 97.214844 392.863281 99.589844 389.089844 102.046875 C 497.914062 46.871094 632.125 85.875 693.875 192.789062 C 736.285156 266.226562 733.808594 353.257812 695.011719 422.167969 L 706.800781 494.570312 L 645.640625 482.78125 C 634.5625 492.441406 622.386719 501.1875 609.175781 508.816406 C 502.238281 570.5625 366.507812 537.203125 299.847656 435.015625 C 301.898438 439.03125 304.046875 443.007812 306.339844 446.964844 C 377.503906 570.21875 535.109375 612.445312 658.363281 541.28125 C 661.710938 539.355469 665 537.324219 668.246094 535.277344 L 763.597656 551.386719 L 747.484375 455.652344 C 796.792969 377.324219 802.171875 274.992188 752.679688 189.28125 C 681.515625 66.027344 523.910156 23.800781 400.65625 94.964844 Z M 723.621094 1.945312 C 751.523438 -5.542969 780.214844 11.015625 787.703125 38.9375 C 795.191406 66.839844 778.613281 95.53125 750.710938 103.019531 C 722.808594 110.488281 694.117188 93.929688 686.628906 66.027344 C 679.140625 38.105469 695.71875 9.433594 723.621094 1.945312 Z M 723.621094 1.945312 " fill-opacity="1" fill-rule="evenodd"/></g></svg>