<svg xmlns="http://www.w3.org/2000/svg" xmlns:xlink="http://www.w3.org/1999/xlink" width="250" zoomAndPan="magnify" viewBox="0 0 187.5 44.999999" height="60" preserveAspectRatio="xMidYMid meet" version="1.0"><defs><clipPath id="e73bcabdbb"><path d="M 76.179688 9 L 101 9 L 101 37 L 76.179688 37 Z M 76.179688 9 " clip-rule="nonzero"/></clipPath><clipPath id="d117071836"><path d="M 80 4.546875 L 110.589844 4.546875 L 110.589844 40.453125 L 80 40.453125 Z M 80 4.546875 " clip-rule="nonzero"/></clipPath></defs><g clip-path="url(#e73bcabdbb)"><path fill="#fb921c" d="M 98.964844 12.210938 C 99.167969 12.328125 99.363281 12.449219 99.558594 12.574219 C 93.980469 9.746094 87.097656 11.746094 83.929688 17.230469 C 81.898438 20.75 81.898438 24.867188 83.503906 28.285156 C 86.910156 35.53125 96.011719 35.328125 98.738281 27.773438 C 100.324219 23.375 97.398438 18.617188 93.007812 17.179688 C 93.171875 17.214844 93.339844 17.257812 93.507812 17.300781 C 98.710938 18.695312 101.800781 24.046875 100.40625 29.253906 C 98.683594 35.683594 91.449219 38.390625 85.75 35.097656 C 79.429688 31.449219 77.265625 23.367188 80.914062 17.046875 C 84.5625 10.726562 92.644531 8.5625 98.964844 12.210938 Z M 92.699219 24.886719 C 93.820312 24.585938 94.976562 25.25 95.277344 26.375 C 95.578125 27.496094 94.910156 28.648438 93.789062 28.953125 C 92.664062 29.253906 91.511719 28.585938 91.210938 27.464844 C 90.910156 26.339844 91.574219 25.1875 92.699219 24.886719 Z M 78.230469 9.164062 C 79.695312 8.769531 81.207031 9.640625 81.597656 11.109375 C 81.992188 12.578125 81.121094 14.089844 79.652344 14.480469 C 78.183594 14.875 76.675781 14.003906 76.28125 12.535156 C 75.890625 11.066406 76.761719 9.558594 78.230469 9.164062 Z M 78.230469 9.164062 " fill-opacity="1" fill-rule="evenodd"/></g><g clip-path="url(#d117071836)"><path fill="#0080a5" d="M 86.554688 10.460938 C 86.304688 10.601562 86.066406 10.75 85.832031 10.902344 C 92.617188 7.460938 100.988281 9.894531 104.839844 16.5625 C 107.484375 21.140625 107.328125 26.570312 104.910156 30.867188 L 105.644531 35.382812 L 101.832031 34.648438 C 101.140625 35.25 100.378906 35.796875 99.554688 36.269531 C 92.886719 40.121094 84.421875 38.042969 80.265625 31.667969 C 80.394531 31.917969 80.527344 32.167969 80.671875 32.414062 C 85.109375 40.101562 94.9375 42.734375 102.625 38.296875 C 102.832031 38.175781 103.039062 38.050781 103.238281 37.921875 L 109.1875 38.925781 L 108.183594 32.957031 C 111.257812 28.070312 111.59375 21.6875 108.503906 16.34375 C 104.066406 8.65625 94.238281 6.023438 86.550781 10.460938 Z M 106.695312 4.660156 C 108.433594 4.195312 110.222656 5.226562 110.691406 6.96875 C 111.15625 8.707031 110.121094 10.496094 108.382812 10.964844 C 106.644531 11.429688 104.851562 10.398438 104.386719 8.65625 C 103.917969 6.914062 104.953125 5.128906 106.695312 4.660156 Z M 106.695312 4.660156 " fill-opacity="1" fill-rule="evenodd"/></g></svg>