<svg xmlns="http://www.w3.org/2000/svg" xmlns:xlink="http://www.w3.org/1999/xlink" width="1366" zoomAndPan="magnify" viewBox="0 0 1024.5 576" height="768" preserveAspectRatio="xMidYMid meet" version="1.0"><defs><filter x="0%" y="0%" width="100%" height="100%" id="c2343dc1bb"><feColorMatrix values="0 0 0 0 1 0 0 0 0 1 0 0 0 0 1 0 0 0 1 0" color-interpolation-filters="sRGB"/></filter><g/><clipPath id="a0cfab0d98"><path d="M 0 0.140625 L 1024 0.140625 L 1024 575.859375 L 0 575.859375 Z M 0 0.140625 " clip-rule="nonzero"/></clipPath><clipPath id="fa8346d364"><path d="M 0 70 L 1024 70 L 1024 575.859375 L 0 575.859375 Z M 0 70 " clip-rule="nonzero"/></clipPath><mask id="f599b4b1d8"><g filter="url(#c2343dc1bb)"><rect x="-102.45" width="1229.4" fill="#000000" y="-57.6" height="691.2" fill-opacity="0.08"/></g></mask><clipPath id="a7075b600e"><path d="M 0.335938 1.082031 L 1024 1.082031 L 1024 505.859375 L 0.335938 505.859375 Z M 0.335938 1.082031 " clip-rule="nonzero"/></clipPath><clipPath id="08df84e11d"><path d="M 0.78125 1.082031 L 0.78125 794.257812 L 1047.878906 794.257812 L 1047.878906 362.246094 C 975.585938 240.460938 842.773438 158.363281 691.699219 158.363281 C 651.132812 158.363281 611.910156 164.269531 574.800781 175.292969 C 449.546875 212.464844 306.199219 194.757812 213.824219 102.332031 C 161.65625 50.132812 85.929688 1.082031 0.78125 1.082031 Z M 0.78125 1.082031 " clip-rule="nonzero"/></clipPath><linearGradient x1="-15.673683" gradientTransform="matrix(-2.094198, 0, 0, 2.095411, 1047.879202, 1.080822)" y1="52.65709" x2="468.719542" gradientUnits="userSpaceOnUse" y2="301.730827" id="b04bfc7ab2"><stop stop-opacity="1" stop-color="rgb(32.199097%, 79.598999%, 74.499512%)" offset="0"/><stop stop-opacity="1" stop-color="rgb(32.199097%, 79.598999%, 74.499512%)" offset="0.125"/><stop stop-opacity="1" stop-color="rgb(32.144165%, 79.470825%, 74.464417%)" offset="0.15625"/><stop stop-opacity="1" stop-color="rgb(31.996155%, 79.122925%, 74.369812%)" offset="0.160156"/><stop stop-opacity="1" stop-color="rgb(31.90155%, 78.901672%, 74.310303%)" offset="0.164062"/><stop stop-opacity="1" stop-color="rgb(31.806946%, 78.678894%, 74.249268%)" offset="0.167969"/><stop stop-opacity="1" stop-color="rgb(31.712341%, 78.457642%, 74.189758%)" offset="0.171875"/><stop stop-opacity="1" stop-color="rgb(31.617737%, 78.234863%, 74.130249%)" offset="0.175781"/><stop stop-opacity="1" stop-color="rgb(31.523132%, 78.013611%, 74.07074%)" offset="0.179688"/><stop stop-opacity="1" stop-color="rgb(31.428528%, 77.792358%, 74.009705%)" offset="0.183594"/><stop stop-opacity="1" stop-color="rgb(31.333923%, 77.571106%, 73.950195%)" offset="0.1875"/><stop stop-opacity="1" stop-color="rgb(31.237793%, 77.348328%, 73.88916%)" offset="0.191406"/><stop stop-opacity="1" stop-color="rgb(31.143188%, 77.127075%, 73.829651%)" offset="0.195313"/><stop stop-opacity="1" stop-color="rgb(31.048584%, 76.904297%, 73.768616%)" offset="0.199219"/><stop stop-opacity="1" stop-color="rgb(30.953979%, 76.683044%, 73.709106%)" offset="0.203125"/><stop stop-opacity="1" stop-color="rgb(30.859375%, 76.461792%, 73.649597%)" offset="0.207031"/><stop stop-opacity="1" stop-color="rgb(30.764771%, 76.24054%, 73.590088%)" offset="0.210938"/><stop stop-opacity="1" stop-color="rgb(30.670166%, 76.017761%, 73.529053%)" offset="0.214844"/><stop stop-opacity="1" stop-color="rgb(30.575562%, 75.796509%, 73.469543%)" offset="0.21875"/><stop stop-opacity="1" stop-color="rgb(30.480957%, 75.57373%, 73.408508%)" offset="0.222656"/><stop stop-opacity="1" stop-color="rgb(30.386353%, 75.352478%, 73.348999%)" offset="0.226563"/><stop stop-opacity="1" stop-color="rgb(30.291748%, 75.131226%, 73.28949%)" offset="0.230469"/><stop stop-opacity="1" stop-color="rgb(30.197144%, 74.909973%, 73.22998%)" offset="0.234375"/><stop stop-opacity="1" stop-color="rgb(30.102539%, 74.687195%, 73.168945%)" offset="0.238281"/><stop stop-opacity="1" stop-color="rgb(30.007935%, 74.465942%, 73.109436%)" offset="0.242188"/><stop stop-opacity="1" stop-color="rgb(29.91333%, 74.243164%, 73.048401%)" offset="0.246094"/><stop stop-opacity="1" stop-color="rgb(29.818726%, 74.021912%, 72.988892%)" offset="0.25"/><stop stop-opacity="1" stop-color="rgb(29.724121%, 73.800659%, 72.929382%)" offset="0.253906"/><stop stop-opacity="1" stop-color="rgb(29.629517%, 73.579407%, 72.869873%)" offset="0.257812"/><stop stop-opacity="1" stop-color="rgb(29.534912%, 73.356628%, 72.808838%)" offset="0.261719"/><stop stop-opacity="1" stop-color="rgb(29.440308%, 73.135376%, 72.749329%)" offset="0.265625"/><stop stop-opacity="1" stop-color="rgb(29.345703%, 72.912598%, 72.688293%)" offset="0.269531"/><stop stop-opacity="1" stop-color="rgb(29.251099%, 72.691345%, 72.628784%)" offset="0.273438"/><stop stop-opacity="1" stop-color="rgb(29.156494%, 72.470093%, 72.569275%)" offset="0.277344"/><stop stop-opacity="1" stop-color="rgb(29.06189%, 72.24884%, 72.509766%)" offset="0.28125"/><stop stop-opacity="1" stop-color="rgb(28.967285%, 72.026062%, 72.44873%)" offset="0.285156"/><stop stop-opacity="1" stop-color="rgb(28.872681%, 71.80481%, 72.389221%)" offset="0.289062"/><stop stop-opacity="1" stop-color="rgb(28.778076%, 71.583557%, 72.328186%)" offset="0.292969"/><stop stop-opacity="1" stop-color="rgb(28.683472%, 71.362305%, 72.268677%)" offset="0.296875"/><stop stop-opacity="1" stop-color="rgb(28.587341%, 71.139526%, 72.207642%)" offset="0.300781"/><stop stop-opacity="1" stop-color="rgb(28.492737%, 70.918274%, 72.148132%)" offset="0.304688"/><stop stop-opacity="1" stop-color="rgb(28.398132%, 70.695496%, 72.088623%)" offset="0.308594"/><stop stop-opacity="1" stop-color="rgb(28.303528%, 70.474243%, 72.029114%)" offset="0.3125"/><stop stop-opacity="1" stop-color="rgb(28.208923%, 70.252991%, 71.968079%)" offset="0.316406"/><stop stop-opacity="1" stop-color="rgb(28.114319%, 70.031738%, 71.908569%)" offset="0.320312"/><stop stop-opacity="1" stop-color="rgb(28.019714%, 69.80896%, 71.847534%)" offset="0.324219"/><stop stop-opacity="1" stop-color="rgb(27.92511%, 69.587708%, 71.788025%)" offset="0.328125"/><stop stop-opacity="1" stop-color="rgb(27.830505%, 69.364929%, 71.728516%)" offset="0.332031"/><stop stop-opacity="1" stop-color="rgb(27.735901%, 69.143677%, 71.669006%)" offset="0.335938"/><stop stop-opacity="1" stop-color="rgb(27.641296%, 68.922424%, 71.607971%)" offset="0.339844"/><stop stop-opacity="1" stop-color="rgb(27.546692%, 68.701172%, 71.548462%)" offset="0.34375"/><stop stop-opacity="1" stop-color="rgb(27.452087%, 68.478394%, 71.487427%)" offset="0.347656"/><stop stop-opacity="1" stop-color="rgb(27.357483%, 68.257141%, 71.427917%)" offset="0.351562"/><stop stop-opacity="1" stop-color="rgb(27.262878%, 68.034363%, 71.368408%)" offset="0.355469"/><stop stop-opacity="1" stop-color="rgb(27.168274%, 67.81311%, 71.308899%)" offset="0.359375"/><stop stop-opacity="1" stop-color="rgb(27.073669%, 67.591858%, 71.247864%)" offset="0.363281"/><stop stop-opacity="1" stop-color="rgb(26.979065%, 67.370605%, 71.188354%)" offset="0.367188"/><stop stop-opacity="1" stop-color="rgb(26.88446%, 67.147827%, 71.127319%)" offset="0.371094"/><stop stop-opacity="1" stop-color="rgb(26.789856%, 66.926575%, 71.06781%)" offset="0.375"/><stop stop-opacity="1" stop-color="rgb(26.695251%, 66.703796%, 71.006775%)" offset="0.378906"/><stop stop-opacity="1" stop-color="rgb(26.600647%, 66.482544%, 70.947266%)" offset="0.382812"/><stop stop-opacity="1" stop-color="rgb(26.506042%, 66.261292%, 70.887756%)" offset="0.386719"/><stop stop-opacity="1" stop-color="rgb(26.411438%, 66.040039%, 70.828247%)" offset="0.390625"/><stop stop-opacity="1" stop-color="rgb(26.316833%, 65.817261%, 70.767212%)" offset="0.394531"/><stop stop-opacity="1" stop-color="rgb(26.222229%, 65.596008%, 70.707703%)" offset="0.398438"/><stop stop-opacity="1" stop-color="rgb(26.127625%, 65.37323%, 70.646667%)" offset="0.402344"/><stop stop-opacity="1" stop-color="rgb(26.03302%, 65.151978%, 70.587158%)" offset="0.40625"/><stop stop-opacity="1" stop-color="rgb(25.93689%, 64.930725%, 70.527649%)" offset="0.410156"/><stop stop-opacity="1" stop-color="rgb(25.842285%, 64.709473%, 70.46814%)" offset="0.414062"/><stop stop-opacity="1" stop-color="rgb(25.747681%, 64.486694%, 70.407104%)" offset="0.417969"/><stop stop-opacity="1" stop-color="rgb(25.653076%, 64.265442%, 70.347595%)" offset="0.421875"/><stop stop-opacity="1" stop-color="rgb(25.558472%, 64.042664%, 70.28656%)" offset="0.425781"/><stop stop-opacity="1" stop-color="rgb(25.463867%, 63.821411%, 70.227051%)" offset="0.429688"/><stop stop-opacity="1" stop-color="rgb(25.369263%, 63.600159%, 70.167542%)" offset="0.433594"/><stop stop-opacity="1" stop-color="rgb(25.274658%, 63.378906%, 70.108032%)" offset="0.4375"/><stop stop-opacity="1" stop-color="rgb(25.180054%, 63.156128%, 70.046997%)" offset="0.441406"/><stop stop-opacity="1" stop-color="rgb(25.085449%, 62.934875%, 69.987488%)" offset="0.445312"/><stop stop-opacity="1" stop-color="rgb(24.990845%, 62.713623%, 69.926453%)" offset="0.449219"/><stop stop-opacity="1" stop-color="rgb(24.89624%, 62.492371%, 69.866943%)" offset="0.453125"/><stop stop-opacity="1" stop-color="rgb(24.801636%, 62.269592%, 69.807434%)" offset="0.457031"/><stop stop-opacity="1" stop-color="rgb(24.707031%, 62.04834%, 69.747925%)" offset="0.460938"/><stop stop-opacity="1" stop-color="rgb(24.612427%, 61.825562%, 69.68689%)" offset="0.464844"/><stop stop-opacity="1" stop-color="rgb(24.517822%, 61.604309%, 69.62738%)" offset="0.46875"/><stop stop-opacity="1" stop-color="rgb(24.423218%, 61.383057%, 69.566345%)" offset="0.472656"/><stop stop-opacity="1" stop-color="rgb(24.328613%, 61.161804%, 69.506836%)" offset="0.476562"/><stop stop-opacity="1" stop-color="rgb(24.234009%, 60.939026%, 69.445801%)" offset="0.480469"/><stop stop-opacity="1" stop-color="rgb(24.139404%, 60.717773%, 69.386292%)" offset="0.484375"/><stop stop-opacity="1" stop-color="rgb(24.0448%, 60.494995%, 69.326782%)" offset="0.488281"/><stop stop-opacity="1" stop-color="rgb(23.950195%, 60.273743%, 69.267273%)" offset="0.492188"/><stop stop-opacity="1" stop-color="rgb(23.855591%, 60.05249%, 69.206238%)" offset="0.496094"/><stop stop-opacity="1" stop-color="rgb(23.760986%, 59.831238%, 69.146729%)" offset="0.5"/><stop stop-opacity="1" stop-color="rgb(23.666382%, 59.608459%, 69.085693%)" offset="0.503906"/><stop stop-opacity="1" stop-color="rgb(23.571777%, 59.387207%, 69.026184%)" offset="0.507812"/><stop stop-opacity="1" stop-color="rgb(23.477173%, 59.164429%, 68.966675%)" offset="0.511719"/><stop stop-opacity="1" stop-color="rgb(23.382568%, 58.943176%, 68.907166%)" offset="0.515625"/><stop stop-opacity="1" stop-color="rgb(23.286438%, 58.721924%, 68.84613%)" offset="0.519531"/><stop stop-opacity="1" stop-color="rgb(23.191833%, 58.500671%, 68.786621%)" offset="0.523438"/><stop stop-opacity="1" stop-color="rgb(23.097229%, 58.277893%, 68.725586%)" offset="0.527344"/><stop stop-opacity="1" stop-color="rgb(23.002625%, 58.056641%, 68.666077%)" offset="0.53125"/><stop stop-opacity="1" stop-color="rgb(22.90802%, 57.833862%, 68.606567%)" offset="0.535156"/><stop stop-opacity="1" stop-color="rgb(22.813416%, 57.61261%, 68.547058%)" offset="0.539062"/><stop stop-opacity="1" stop-color="rgb(22.718811%, 57.391357%, 68.486023%)" offset="0.542969"/><stop stop-opacity="1" stop-color="rgb(22.624207%, 57.170105%, 68.426514%)" offset="0.546875"/><stop stop-opacity="1" stop-color="rgb(22.529602%, 56.947327%, 68.365479%)" offset="0.550781"/><stop stop-opacity="1" stop-color="rgb(22.434998%, 56.726074%, 68.305969%)" offset="0.554688"/><stop stop-opacity="1" stop-color="rgb(22.340393%, 56.503296%, 68.24646%)" offset="0.558594"/><stop stop-opacity="1" stop-color="rgb(22.245789%, 56.282043%, 68.186951%)" offset="0.5625"/><stop stop-opacity="1" stop-color="rgb(22.151184%, 56.060791%, 68.125916%)" offset="0.566406"/><stop stop-opacity="1" stop-color="rgb(22.05658%, 55.839539%, 68.066406%)" offset="0.570312"/><stop stop-opacity="1" stop-color="rgb(21.961975%, 55.61676%, 68.005371%)" offset="0.574219"/><stop stop-opacity="1" stop-color="rgb(21.867371%, 55.395508%, 67.945862%)" offset="0.578125"/><stop stop-opacity="1" stop-color="rgb(21.772766%, 55.172729%, 67.884827%)" offset="0.582031"/><stop stop-opacity="1" stop-color="rgb(21.678162%, 54.951477%, 67.825317%)" offset="0.585938"/><stop stop-opacity="1" stop-color="rgb(21.583557%, 54.730225%, 67.765808%)" offset="0.589844"/><stop stop-opacity="1" stop-color="rgb(21.488953%, 54.508972%, 67.706299%)" offset="0.59375"/><stop stop-opacity="1" stop-color="rgb(21.394348%, 54.286194%, 67.645264%)" offset="0.597656"/><stop stop-opacity="1" stop-color="rgb(21.299744%, 54.064941%, 67.585754%)" offset="0.601562"/><stop stop-opacity="1" stop-color="rgb(21.205139%, 53.842163%, 67.524719%)" offset="0.605469"/><stop stop-opacity="1" stop-color="rgb(21.110535%, 53.620911%, 67.46521%)" offset="0.609375"/><stop stop-opacity="1" stop-color="rgb(21.01593%, 53.399658%, 67.405701%)" offset="0.613281"/><stop stop-opacity="1" stop-color="rgb(20.921326%, 53.178406%, 67.346191%)" offset="0.617188"/><stop stop-opacity="1" stop-color="rgb(20.826721%, 52.955627%, 67.285156%)" offset="0.621094"/><stop stop-opacity="1" stop-color="rgb(20.732117%, 52.734375%, 67.225647%)" offset="0.625"/><stop stop-opacity="1" stop-color="rgb(20.635986%, 52.513123%, 67.164612%)" offset="0.628906"/><stop stop-opacity="1" stop-color="rgb(20.541382%, 52.29187%, 67.105103%)" offset="0.632812"/><stop stop-opacity="1" stop-color="rgb(20.446777%, 52.069092%, 67.045593%)" offset="0.636719"/><stop stop-opacity="1" stop-color="rgb(20.352173%, 51.847839%, 66.986084%)" offset="0.640625"/><stop stop-opacity="1" stop-color="rgb(20.257568%, 51.625061%, 66.925049%)" offset="0.644531"/><stop stop-opacity="1" stop-color="rgb(20.162964%, 51.403809%, 66.86554%)" offset="0.648438"/><stop stop-opacity="1" stop-color="rgb(20.068359%, 51.182556%, 66.804504%)" offset="0.652344"/><stop stop-opacity="1" stop-color="rgb(19.973755%, 50.961304%, 66.744995%)" offset="0.65625"/><stop stop-opacity="1" stop-color="rgb(19.87915%, 50.738525%, 66.685486%)" offset="0.660156"/><stop stop-opacity="1" stop-color="rgb(19.784546%, 50.517273%, 66.625977%)" offset="0.664062"/><stop stop-opacity="1" stop-color="rgb(19.689941%, 50.294495%, 66.564941%)" offset="0.667969"/><stop stop-opacity="1" stop-color="rgb(19.595337%, 50.073242%, 66.505432%)" offset="0.671875"/><stop stop-opacity="1" stop-color="rgb(19.500732%, 49.85199%, 66.444397%)" offset="0.675781"/><stop stop-opacity="1" stop-color="rgb(19.406128%, 49.630737%, 66.384888%)" offset="0.679688"/><stop stop-opacity="1" stop-color="rgb(19.311523%, 49.407959%, 66.323853%)" offset="0.683594"/><stop stop-opacity="1" stop-color="rgb(19.216919%, 49.186707%, 66.264343%)" offset="0.6875"/><stop stop-opacity="1" stop-color="rgb(19.122314%, 48.963928%, 66.204834%)" offset="0.691406"/><stop stop-opacity="1" stop-color="rgb(19.02771%, 48.742676%, 66.145325%)" offset="0.695312"/><stop stop-opacity="1" stop-color="rgb(18.933105%, 48.521423%, 66.08429%)" offset="0.699219"/><stop stop-opacity="1" stop-color="rgb(18.838501%, 48.300171%, 66.02478%)" offset="0.703125"/><stop stop-opacity="1" stop-color="rgb(18.743896%, 48.077393%, 65.963745%)" offset="0.707031"/><stop stop-opacity="1" stop-color="rgb(18.649292%, 47.85614%, 65.904236%)" offset="0.710938"/><stop stop-opacity="1" stop-color="rgb(18.554688%, 47.633362%, 65.844727%)" offset="0.714844"/><stop stop-opacity="1" stop-color="rgb(18.460083%, 47.412109%, 65.785217%)" offset="0.71875"/><stop stop-opacity="1" stop-color="rgb(18.365479%, 47.190857%, 65.724182%)" offset="0.722656"/><stop stop-opacity="1" stop-color="rgb(18.270874%, 46.969604%, 65.664673%)" offset="0.726562"/><stop stop-opacity="1" stop-color="rgb(18.174744%, 46.746826%, 65.603638%)" offset="0.730469"/><stop stop-opacity="1" stop-color="rgb(18.080139%, 46.525574%, 65.544128%)" offset="0.734375"/><stop stop-opacity="1" stop-color="rgb(17.985535%, 46.302795%, 65.484619%)" offset="0.738281"/><stop stop-opacity="1" stop-color="rgb(17.89093%, 46.081543%, 65.42511%)" offset="0.742188"/><stop stop-opacity="1" stop-color="rgb(17.796326%, 45.860291%, 65.364075%)" offset="0.746094"/><stop stop-opacity="1" stop-color="rgb(17.701721%, 45.639038%, 65.304565%)" offset="0.75"/><stop stop-opacity="1" stop-color="rgb(17.607117%, 45.41626%, 65.24353%)" offset="0.753906"/><stop stop-opacity="1" stop-color="rgb(17.512512%, 45.195007%, 65.184021%)" offset="0.757812"/><stop stop-opacity="1" stop-color="rgb(17.417908%, 44.972229%, 65.122986%)" offset="0.761719"/><stop stop-opacity="1" stop-color="rgb(17.323303%, 44.750977%, 65.063477%)" offset="0.765625"/><stop stop-opacity="1" stop-color="rgb(17.228699%, 44.529724%, 65.003967%)" offset="0.769531"/><stop stop-opacity="1" stop-color="rgb(17.134094%, 44.308472%, 64.944458%)" offset="0.773438"/><stop stop-opacity="1" stop-color="rgb(17.03949%, 44.085693%, 64.883423%)" offset="0.777344"/><stop stop-opacity="1" stop-color="rgb(16.944885%, 43.864441%, 64.823914%)" offset="0.78125"/><stop stop-opacity="1" stop-color="rgb(16.850281%, 43.643188%, 64.762878%)" offset="0.785156"/><stop stop-opacity="1" stop-color="rgb(16.755676%, 43.421936%, 64.703369%)" offset="0.789063"/><stop stop-opacity="1" stop-color="rgb(16.661072%, 43.199158%, 64.64386%)" offset="0.792969"/><stop stop-opacity="1" stop-color="rgb(16.566467%, 42.977905%, 64.584351%)" offset="0.796875"/><stop stop-opacity="1" stop-color="rgb(16.471863%, 42.755127%, 64.523315%)" offset="0.800781"/><stop stop-opacity="1" stop-color="rgb(16.377258%, 42.533875%, 64.463806%)" offset="0.804688"/><stop stop-opacity="1" stop-color="rgb(16.282654%, 42.312622%, 64.402771%)" offset="0.808594"/><stop stop-opacity="1" stop-color="rgb(16.188049%, 42.09137%, 64.343262%)" offset="0.8125"/><stop stop-opacity="1" stop-color="rgb(16.093445%, 41.868591%, 64.283752%)" offset="0.816406"/><stop stop-opacity="1" stop-color="rgb(15.99884%, 41.647339%, 64.224243%)" offset="0.820313"/><stop stop-opacity="1" stop-color="rgb(15.904236%, 41.424561%, 64.163208%)" offset="0.824219"/><stop stop-opacity="1" stop-color="rgb(15.809631%, 41.203308%, 64.103699%)" offset="0.828125"/><stop stop-opacity="1" stop-color="rgb(15.715027%, 40.982056%, 64.042664%)" offset="0.832031"/><stop stop-opacity="1" stop-color="rgb(15.620422%, 40.760803%, 63.983154%)" offset="0.835938"/><stop stop-opacity="1" stop-color="rgb(15.524292%, 40.538025%, 63.923645%)" offset="0.839844"/><stop stop-opacity="1" stop-color="rgb(15.429688%, 40.316772%, 63.864136%)" offset="0.84375"/><stop stop-opacity="1" stop-color="rgb(15.335083%, 40.093994%, 63.803101%)" offset="0.847656"/><stop stop-opacity="1" stop-color="rgb(15.240479%, 39.872742%, 63.743591%)" offset="0.851563"/><stop stop-opacity="1" stop-color="rgb(15.145874%, 39.651489%, 63.682556%)" offset="0.855469"/><stop stop-opacity="1" stop-color="rgb(15.05127%, 39.430237%, 63.623047%)" offset="0.859375"/><stop stop-opacity="1" stop-color="rgb(14.956665%, 39.207458%, 63.562012%)" offset="0.863281"/><stop stop-opacity="1" stop-color="rgb(14.862061%, 38.986206%, 63.502502%)" offset="0.867188"/><stop stop-opacity="1" stop-color="rgb(14.767456%, 38.763428%, 63.442993%)" offset="0.871094"/><stop stop-opacity="1" stop-color="rgb(14.672852%, 38.542175%, 63.383484%)" offset="0.875"/><stop stop-opacity="1" stop-color="rgb(14.578247%, 38.320923%, 63.322449%)" offset="0.878906"/><stop stop-opacity="1" stop-color="rgb(14.483643%, 38.09967%, 63.262939%)" offset="0.882813"/><stop stop-opacity="1" stop-color="rgb(14.389038%, 37.876892%, 63.201904%)" offset="0.886719"/><stop stop-opacity="1" stop-color="rgb(14.294434%, 37.65564%, 63.142395%)" offset="0.890625"/><stop stop-opacity="1" stop-color="rgb(14.199829%, 37.432861%, 63.082886%)" offset="0.894531"/><stop stop-opacity="1" stop-color="rgb(14.105225%, 37.211609%, 63.023376%)" offset="0.898438"/><stop stop-opacity="1" stop-color="rgb(14.01062%, 36.990356%, 62.962341%)" offset="0.902344"/><stop stop-opacity="1" stop-color="rgb(13.916016%, 36.769104%, 62.902832%)" offset="0.90625"/><stop stop-opacity="1" stop-color="rgb(13.821411%, 36.546326%, 62.841797%)" offset="0.910156"/><stop stop-opacity="1" stop-color="rgb(13.726807%, 36.325073%, 62.782288%)" offset="0.914063"/><stop stop-opacity="1" stop-color="rgb(13.632202%, 36.102295%, 62.722778%)" offset="0.917969"/><stop stop-opacity="1" stop-color="rgb(13.537598%, 35.881042%, 62.663269%)" offset="0.921875"/><stop stop-opacity="1" stop-color="rgb(13.442993%, 35.65979%, 62.602234%)" offset="0.925781"/><stop stop-opacity="1" stop-color="rgb(13.348389%, 35.438538%, 62.542725%)" offset="0.929688"/><stop stop-opacity="1" stop-color="rgb(13.253784%, 35.215759%, 62.481689%)" offset="0.933594"/><stop stop-opacity="1" stop-color="rgb(13.15918%, 34.994507%, 62.42218%)" offset="0.9375"/><stop stop-opacity="1" stop-color="rgb(13.064575%, 34.773254%, 62.362671%)" offset="0.941406"/><stop stop-opacity="1" stop-color="rgb(12.969971%, 34.552002%, 62.303162%)" offset="0.945313"/><stop stop-opacity="1" stop-color="rgb(12.87384%, 34.329224%, 62.242126%)" offset="0.949219"/><stop stop-opacity="1" stop-color="rgb(12.779236%, 34.107971%, 62.182617%)" offset="0.953125"/><stop stop-opacity="1" stop-color="rgb(12.684631%, 33.885193%, 62.121582%)" offset="0.957031"/><stop stop-opacity="1" stop-color="rgb(12.590027%, 33.66394%, 62.062073%)" offset="0.960938"/><stop stop-opacity="1" stop-color="rgb(12.495422%, 33.442688%, 62.001038%)" offset="0.964844"/><stop stop-opacity="1" stop-color="rgb(12.400818%, 33.221436%, 61.941528%)" offset="0.96875"/><stop stop-opacity="1" stop-color="rgb(12.306213%, 32.998657%, 61.882019%)" offset="0.972656"/><stop stop-opacity="1" stop-color="rgb(12.211609%, 32.777405%, 61.82251%)" offset="0.976563"/><stop stop-opacity="1" stop-color="rgb(12.117004%, 32.554626%, 61.761475%)" offset="0.980469"/><stop stop-opacity="1" stop-color="rgb(12.0224%, 32.333374%, 61.701965%)" offset="0.984375"/><stop stop-opacity="1" stop-color="rgb(11.927795%, 32.112122%, 61.64093%)" offset="0.988281"/><stop stop-opacity="1" stop-color="rgb(11.833191%, 31.890869%, 61.581421%)" offset="0.992188"/><stop stop-opacity="1" stop-color="rgb(11.738586%, 31.668091%, 61.521912%)" offset="0.996094"/><stop stop-opacity="1" stop-color="rgb(11.643982%, 31.446838%, 61.462402%)" offset="1"/></linearGradient><clipPath id="bf1cd29118"><rect x="0" width="1024" y="0" height="506"/></clipPath><clipPath id="2a7c23aa0a"><path d="M 0 187 L 1007 187 L 1007 575.859375 L 0 575.859375 Z M 0 187 " clip-rule="nonzero"/></clipPath><mask id="0031192913"><g filter="url(#c2343dc1bb)"><rect x="-102.45" width="1229.4" fill="#000000" y="-57.6" height="691.2" fill-opacity="0.08"/></g></mask><clipPath id="820effe4d9"><path d="M 0 0.175781 L 1006.191406 0.175781 L 1006.191406 388.859375 L 0 388.859375 Z M 0 0.175781 " clip-rule="nonzero"/></clipPath><clipPath id="29cedbe0ef"><path d="M -41.355469 0.175781 L -41.355469 793.140625 L 1006.074219 793.140625 L 1006.074219 361.242188 C 933.757812 239.492188 800.902344 157.414062 649.78125 157.414062 C 609.203125 157.414062 569.964844 163.320312 532.84375 174.339844 C 407.550781 211.503906 264.160156 193.800781 171.753906 101.398438 C 119.574219 49.214844 43.824219 0.175781 -41.355469 0.175781 Z M -41.355469 0.175781 " clip-rule="nonzero"/></clipPath><clipPath id="e03644d883"><rect x="0" width="1007" y="0" height="389"/></clipPath></defs><g clip-path="url(#a0cfab0d98)"><path fill="#ffffff" d="M 0 0.140625 L 1024 0.140625 L 1024 575.859375 L 0 575.859375 Z M 0 0.140625 " fill-opacity="1" fill-rule="nonzero"/><path fill="#ffffff" d="M 0 0.140625 L 1024 0.140625 L 1024 575.859375 L 0 575.859375 Z M 0 0.140625 " fill-opacity="1" fill-rule="nonzero"/></g><g clip-path="url(#fa8346d364)"><g mask="url(#f599b4b1d8)"><g transform="matrix(1, 0, 0, 1, 0, 70)"><g clip-path="url(#bf1cd29118)"><g clip-path="url(#a7075b600e)"><g clip-path="url(#08df84e11d)"><path fill="url(#b04bfc7ab2)" d="M 1024 1.082031 L 1024 505.859375 L 0.78125 505.859375 L 0.78125 1.082031 Z M 1024 1.082031 " fill-rule="nonzero"/></g></g></g></g></g></g><g fill="#253237" fill-opacity="1"><g transform="translate(57.571905, 241.89751)"><g><path d="M 8.453125 0.484375 C 5.898438 0.484375 4.625 -0.835938 4.625 -3.484375 L 4.625 -38.796875 C 4.625 -41.429688 5.898438 -42.75 8.453125 -42.75 C 11.015625 -42.75 12.296875 -41.429688 12.296875 -38.796875 L 12.296875 -24.640625 L 34.0625 -24.640625 L 34.0625 -38.796875 C 34.0625 -41.429688 35.34375 -42.75 37.90625 -42.75 C 40.457031 -42.75 41.734375 -41.429688 41.734375 -38.796875 L 41.734375 -3.484375 C 41.734375 -0.835938 40.457031 0.484375 37.90625 0.484375 C 35.34375 0.484375 34.0625 -0.835938 34.0625 -3.484375 L 34.0625 -18.234375 L 12.296875 -18.234375 L 12.296875 -3.484375 C 12.296875 -0.835938 11.015625 0.484375 8.453125 0.484375 Z M 8.453125 0.484375 "/></g></g></g><g fill="#253237" fill-opacity="1"><g transform="translate(103.920251, 241.89751)"><g><path d="M 14.515625 0.59375 C 7.316406 0.59375 3.71875 -3.441406 3.71875 -11.515625 L 3.71875 -26.03125 C 3.71875 -28.539062 4.957031 -29.796875 7.4375 -29.796875 C 9.957031 -29.796875 11.21875 -28.539062 11.21875 -26.03125 L 11.21875 -11.390625 C 11.21875 -9.316406 11.632812 -7.78125 12.46875 -6.78125 C 13.3125 -5.78125 14.648438 -5.28125 16.484375 -5.28125 C 18.484375 -5.28125 20.125 -5.96875 21.40625 -7.34375 C 22.6875 -8.726562 23.328125 -10.554688 23.328125 -12.828125 L 23.328125 -26.03125 C 23.328125 -28.539062 24.566406 -29.796875 27.046875 -29.796875 C 29.566406 -29.796875 30.828125 -28.539062 30.828125 -26.03125 L 30.828125 -3.359375 C 30.828125 -0.796875 29.609375 0.484375 27.171875 0.484375 C 24.722656 0.484375 23.5 -0.796875 23.5 -3.359375 L 23.5 -4.375 C 21.539062 -1.0625 18.546875 0.59375 14.515625 0.59375 Z M 14.515625 0.59375 "/></g></g></g><g fill="#253237" fill-opacity="1"><g transform="translate(138.636548, 241.89751)"><g><path d="M 7.734375 0.484375 C 5.253906 0.484375 4.015625 -0.796875 4.015625 -3.359375 L 4.015625 -26.03125 C 4.015625 -28.539062 5.234375 -29.796875 7.671875 -29.796875 C 10.109375 -29.796875 11.328125 -28.539062 11.328125 -26.03125 L 11.328125 -24.828125 C 12.210938 -26.421875 13.429688 -27.664062 14.984375 -28.5625 C 16.546875 -29.46875 18.347656 -29.921875 20.390625 -29.921875 C 24.785156 -29.921875 27.664062 -28.003906 29.03125 -24.171875 C 29.945312 -25.960938 31.265625 -27.367188 32.984375 -28.390625 C 34.703125 -29.410156 36.660156 -29.921875 38.859375 -29.921875 C 45.453125 -29.921875 48.75 -25.90625 48.75 -17.875 L 48.75 -3.359375 C 48.75 -0.796875 47.488281 0.484375 44.96875 0.484375 C 42.5 0.484375 41.265625 -0.796875 41.265625 -3.359375 L 41.265625 -17.578125 C 41.265625 -19.804688 40.894531 -21.441406 40.15625 -22.484375 C 39.414062 -23.523438 38.164062 -24.046875 36.40625 -24.046875 C 34.445312 -24.046875 32.90625 -23.351562 31.78125 -21.96875 C 30.664062 -20.59375 30.109375 -18.6875 30.109375 -16.25 L 30.109375 -3.359375 C 30.109375 -0.796875 28.867188 0.484375 26.390625 0.484375 C 23.867188 0.484375 22.609375 -0.796875 22.609375 -3.359375 L 22.609375 -17.578125 C 22.609375 -19.804688 22.238281 -21.441406 21.5 -22.484375 C 20.757812 -23.523438 19.53125 -24.046875 17.8125 -24.046875 C 15.851562 -24.046875 14.3125 -23.351562 13.1875 -21.96875 C 12.070312 -20.59375 11.515625 -18.6875 11.515625 -16.25 L 11.515625 -3.359375 C 11.515625 -0.796875 10.253906 0.484375 7.734375 0.484375 Z M 7.734375 0.484375 "/></g></g></g><g fill="#253237" fill-opacity="1"><g transform="translate(191.220643, 241.89751)"><g><path d="M 13.546875 0.59375 C 11.429688 0.59375 9.539062 0.1875 7.875 -0.625 C 6.21875 -1.445312 4.921875 -2.554688 3.984375 -3.953125 C 3.046875 -5.359375 2.578125 -6.941406 2.578125 -8.703125 C 2.578125 -10.859375 3.132812 -12.566406 4.25 -13.828125 C 5.375 -15.085938 7.195312 -15.992188 9.71875 -16.546875 C 12.238281 -17.109375 15.613281 -17.390625 19.84375 -17.390625 L 21.953125 -17.390625 L 21.953125 -18.65625 C 21.953125 -20.65625 21.507812 -22.09375 20.625 -22.96875 C 19.75 -23.84375 18.269531 -24.28125 16.1875 -24.28125 C 15.03125 -24.28125 13.78125 -24.140625 12.4375 -23.859375 C 11.101562 -23.585938 9.695312 -23.109375 8.21875 -22.421875 C 7.257812 -21.984375 6.457031 -21.929688 5.8125 -22.265625 C 5.175781 -22.609375 4.75 -23.148438 4.53125 -23.890625 C 4.3125 -24.628906 4.347656 -25.378906 4.640625 -26.140625 C 4.941406 -26.898438 5.554688 -27.460938 6.484375 -27.828125 C 8.316406 -28.585938 10.082031 -29.125 11.78125 -29.4375 C 13.476562 -29.757812 15.03125 -29.921875 16.4375 -29.921875 C 20.707031 -29.921875 23.878906 -28.929688 25.953125 -26.953125 C 28.035156 -24.972656 29.078125 -21.90625 29.078125 -17.75 L 29.078125 -3.359375 C 29.078125 -0.796875 27.921875 0.484375 25.609375 0.484375 C 23.242188 0.484375 22.0625 -0.796875 22.0625 -3.359375 L 22.0625 -4.671875 C 21.382812 -3.035156 20.304688 -1.75 18.828125 -0.8125 C 17.347656 0.125 15.585938 0.59375 13.546875 0.59375 Z M 15.109375 -4.5625 C 17.066406 -4.5625 18.695312 -5.238281 20 -6.59375 C 21.300781 -7.957031 21.953125 -9.675781 21.953125 -11.75 L 21.953125 -13.078125 L 19.90625 -13.078125 C 16.144531 -13.078125 13.535156 -12.785156 12.078125 -12.203125 C 10.617188 -11.617188 9.890625 -10.570312 9.890625 -9.0625 C 9.890625 -7.738281 10.347656 -6.65625 11.265625 -5.8125 C 12.191406 -4.976562 13.472656 -4.5625 15.109375 -4.5625 Z M 15.109375 -4.5625 "/></g></g></g><g fill="#253237" fill-opacity="1"><g transform="translate(224.018245, 241.89751)"><g><path d="M 7.609375 0.484375 C 5.128906 0.484375 3.890625 -0.796875 3.890625 -3.359375 L 3.890625 -26.03125 C 3.890625 -28.539062 5.113281 -29.796875 7.5625 -29.796875 C 10 -29.796875 11.21875 -28.539062 11.21875 -26.03125 L 11.21875 -24.765625 C 12.21875 -26.441406 13.566406 -27.71875 15.265625 -28.59375 C 16.960938 -29.476562 18.867188 -29.921875 20.984375 -29.921875 C 27.898438 -29.921875 31.359375 -25.90625 31.359375 -17.875 L 31.359375 -3.359375 C 31.359375 -0.796875 30.117188 0.484375 27.640625 0.484375 C 25.128906 0.484375 23.875 -0.796875 23.875 -3.359375 L 23.875 -17.515625 C 23.875 -19.785156 23.441406 -21.441406 22.578125 -22.484375 C 21.710938 -23.523438 20.382812 -24.046875 18.59375 -24.046875 C 16.394531 -24.046875 14.644531 -23.351562 13.34375 -21.96875 C 12.039062 -20.59375 11.390625 -18.765625 11.390625 -16.484375 L 11.390625 -3.359375 C 11.390625 -0.796875 10.128906 0.484375 7.609375 0.484375 Z M 7.609375 0.484375 "/></g></g></g><g fill="#253237" fill-opacity="1"><g transform="translate(57.571905, 307.115678)"><g><path d="M 8.453125 0.484375 C 5.898438 0.484375 4.625 -0.835938 4.625 -3.484375 L 4.625 -38.375 C 4.625 -40.976562 5.921875 -42.28125 8.515625 -42.28125 L 22.96875 -42.28125 C 27.601562 -42.28125 31.179688 -41.171875 33.703125 -38.953125 C 36.222656 -36.734375 37.484375 -33.625 37.484375 -29.625 C 37.484375 -26.46875 36.660156 -23.859375 35.015625 -21.796875 C 33.378906 -19.734375 31.023438 -18.34375 27.953125 -17.625 C 29.984375 -16.988281 31.660156 -15.453125 32.984375 -13.015625 L 37.484375 -4.671875 C 38.160156 -3.398438 38.285156 -2.222656 37.859375 -1.140625 C 37.441406 -0.0546875 36.414062 0.484375 34.78125 0.484375 C 33.695312 0.484375 32.816406 0.253906 32.140625 -0.203125 C 31.460938 -0.671875 30.863281 -1.382812 30.34375 -2.34375 L 24.28125 -13.5 C 23.5625 -14.851562 22.710938 -15.757812 21.734375 -16.21875 C 20.753906 -16.675781 19.503906 -16.90625 17.984375 -16.90625 L 12.296875 -16.90625 L 12.296875 -3.484375 C 12.296875 -0.835938 11.015625 0.484375 8.453125 0.484375 Z M 12.296875 -22.609375 L 21.65625 -22.609375 C 27.25 -22.609375 30.046875 -24.882812 30.046875 -29.4375 C 30.046875 -33.957031 27.25 -36.21875 21.65625 -36.21875 L 12.296875 -36.21875 Z M 12.296875 -22.609375 "/></g></g></g><g fill="#253237" fill-opacity="1"><g transform="translate(98.703822, 307.115678)"><g><path d="M 18.34375 0.59375 C 15.03125 0.59375 12.171875 -0.0234375 9.765625 -1.265625 C 7.367188 -2.503906 5.519531 -4.257812 4.21875 -6.53125 C 2.925781 -8.8125 2.28125 -11.507812 2.28125 -14.625 C 2.28125 -17.664062 2.910156 -20.328125 4.171875 -22.609375 C 5.429688 -24.890625 7.171875 -26.675781 9.390625 -27.96875 C 11.609375 -29.269531 14.132812 -29.921875 16.96875 -29.921875 C 21.125 -29.921875 24.410156 -28.601562 26.828125 -25.96875 C 29.253906 -23.332031 30.46875 -19.734375 30.46875 -15.171875 C 30.46875 -13.691406 29.503906 -12.953125 27.578125 -12.953125 L 9.46875 -12.953125 C 10.03125 -7.710938 13.03125 -5.09375 18.46875 -5.09375 C 19.507812 -5.09375 20.675781 -5.222656 21.96875 -5.484375 C 23.269531 -5.742188 24.503906 -6.195312 25.671875 -6.84375 C 26.703125 -7.4375 27.578125 -7.625 28.296875 -7.40625 C 29.023438 -7.1875 29.535156 -6.753906 29.828125 -6.109375 C 30.128906 -5.472656 30.171875 -4.765625 29.953125 -3.984375 C 29.734375 -3.203125 29.164062 -2.535156 28.25 -1.984375 C 26.84375 -1.097656 25.226562 -0.445312 23.40625 -0.03125 C 21.59375 0.382812 19.90625 0.59375 18.34375 0.59375 Z M 17.265625 -24.828125 C 15.066406 -24.828125 13.285156 -24.144531 11.921875 -22.78125 C 10.566406 -21.425781 9.75 -19.585938 9.46875 -17.265625 L 24.234375 -17.265625 C 24.066406 -19.703125 23.394531 -21.570312 22.21875 -22.875 C 21.039062 -24.175781 19.390625 -24.828125 17.265625 -24.828125 Z M 17.265625 -24.828125 "/></g></g></g><g fill="#253237" fill-opacity="1"><g transform="translate(131.201633, 307.115678)"><g><path d="M 14.625 0.59375 C 12.90625 0.59375 11.085938 0.410156 9.171875 0.046875 C 7.253906 -0.304688 5.535156 -0.921875 4.015625 -1.796875 C 3.179688 -2.273438 2.660156 -2.863281 2.453125 -3.5625 C 2.253906 -4.269531 2.285156 -4.929688 2.546875 -5.546875 C 2.804688 -6.171875 3.242188 -6.617188 3.859375 -6.890625 C 4.484375 -7.171875 5.21875 -7.113281 6.0625 -6.71875 C 7.65625 -5.957031 9.148438 -5.425781 10.546875 -5.125 C 11.953125 -4.820312 13.332031 -4.671875 14.6875 -4.671875 C 16.613281 -4.671875 18.046875 -5 18.984375 -5.65625 C 19.921875 -6.320312 20.390625 -7.195312 20.390625 -8.28125 C 20.390625 -9.957031 19.148438 -11.035156 16.671875 -11.515625 L 10.671875 -12.65625 C 5.597656 -13.613281 3.0625 -16.25 3.0625 -20.5625 C 3.0625 -22.488281 3.585938 -24.148438 4.640625 -25.546875 C 5.703125 -26.941406 7.171875 -28.019531 9.046875 -28.78125 C 10.929688 -29.539062 13.09375 -29.921875 15.53125 -29.921875 C 19.050781 -29.921875 22.191406 -29.140625 24.953125 -27.578125 C 25.710938 -27.179688 26.160156 -26.632812 26.296875 -25.9375 C 26.429688 -25.238281 26.347656 -24.578125 26.046875 -23.953125 C 25.753906 -23.335938 25.285156 -22.898438 24.640625 -22.640625 C 24.003906 -22.378906 23.265625 -22.445312 22.421875 -22.84375 C 21.179688 -23.488281 19.992188 -23.945312 18.859375 -24.21875 C 17.722656 -24.5 16.632812 -24.640625 15.59375 -24.640625 C 13.632812 -24.640625 12.179688 -24.300781 11.234375 -23.625 C 10.296875 -22.945312 9.828125 -22.046875 9.828125 -20.921875 C 9.828125 -19.171875 10.96875 -18.09375 13.25 -17.6875 L 19.25 -16.546875 C 21.84375 -16.066406 23.8125 -15.1875 25.15625 -13.90625 C 26.5 -12.632812 27.171875 -10.914062 27.171875 -8.75 C 27.171875 -5.832031 26.03125 -3.546875 23.75 -1.890625 C 21.46875 -0.234375 18.425781 0.59375 14.625 0.59375 Z M 14.625 0.59375 "/></g></g></g><g fill="#253237" fill-opacity="1"><g transform="translate(160.461647, 307.115678)"><g><path d="M 17.265625 0.59375 C 14.234375 0.59375 11.597656 -0.0234375 9.359375 -1.265625 C 7.117188 -2.503906 5.378906 -4.269531 4.140625 -6.5625 C 2.898438 -8.863281 2.28125 -11.570312 2.28125 -14.6875 C 2.28125 -17.8125 2.898438 -20.507812 4.140625 -22.78125 C 5.378906 -25.0625 7.117188 -26.820312 9.359375 -28.0625 C 11.597656 -29.300781 14.234375 -29.921875 17.265625 -29.921875 C 20.304688 -29.921875 22.945312 -29.300781 25.1875 -28.0625 C 27.425781 -26.820312 29.164062 -25.0625 30.40625 -22.78125 C 31.644531 -20.507812 32.265625 -17.8125 32.265625 -14.6875 C 32.265625 -11.570312 31.644531 -8.863281 30.40625 -6.5625 C 29.164062 -4.269531 27.425781 -2.503906 25.1875 -1.265625 C 22.945312 -0.0234375 20.304688 0.59375 17.265625 0.59375 Z M 17.265625 -5.09375 C 19.503906 -5.09375 21.300781 -5.898438 22.65625 -7.515625 C 24.019531 -9.140625 24.703125 -11.53125 24.703125 -14.6875 C 24.703125 -17.882812 24.019531 -20.273438 22.65625 -21.859375 C 21.300781 -23.441406 19.503906 -24.234375 17.265625 -24.234375 C 15.023438 -24.234375 13.222656 -23.441406 11.859375 -21.859375 C 10.503906 -20.273438 9.828125 -17.882812 9.828125 -14.6875 C 9.828125 -11.53125 10.503906 -9.140625 11.859375 -7.515625 C 13.222656 -5.898438 15.023438 -5.09375 17.265625 -5.09375 Z M 17.265625 -5.09375 "/></g></g></g><g fill="#253237" fill-opacity="1"><g transform="translate(194.998062, 307.115678)"><g><path d="M 14.515625 0.59375 C 7.316406 0.59375 3.71875 -3.441406 3.71875 -11.515625 L 3.71875 -26.03125 C 3.71875 -28.539062 4.957031 -29.796875 7.4375 -29.796875 C 9.957031 -29.796875 11.21875 -28.539062 11.21875 -26.03125 L 11.21875 -11.390625 C 11.21875 -9.316406 11.632812 -7.78125 12.46875 -6.78125 C 13.3125 -5.78125 14.648438 -5.28125 16.484375 -5.28125 C 18.484375 -5.28125 20.125 -5.96875 21.40625 -7.34375 C 22.6875 -8.726562 23.328125 -10.554688 23.328125 -12.828125 L 23.328125 -26.03125 C 23.328125 -28.539062 24.566406 -29.796875 27.046875 -29.796875 C 29.566406 -29.796875 30.828125 -28.539062 30.828125 -26.03125 L 30.828125 -3.359375 C 30.828125 -0.796875 29.609375 0.484375 27.171875 0.484375 C 24.722656 0.484375 23.5 -0.796875 23.5 -3.359375 L 23.5 -4.375 C 21.539062 -1.0625 18.546875 0.59375 14.515625 0.59375 Z M 14.515625 0.59375 "/></g></g></g><g fill="#253237" fill-opacity="1"><g transform="translate(229.71436, 307.115678)"><g><path d="M 7.734375 0.484375 C 5.171875 0.484375 3.890625 -0.796875 3.890625 -3.359375 L 3.890625 -26.03125 C 3.890625 -28.539062 5.113281 -29.796875 7.5625 -29.796875 C 10 -29.796875 11.21875 -28.539062 11.21875 -26.03125 L 11.21875 -24.171875 C 12.65625 -27.609375 15.734375 -29.523438 20.453125 -29.921875 C 22.171875 -30.117188 23.128906 -29.140625 23.328125 -26.984375 C 23.523438 -24.867188 22.484375 -23.691406 20.203125 -23.453125 L 18.890625 -23.328125 C 13.972656 -22.847656 11.515625 -20.328125 11.515625 -15.765625 L 11.515625 -3.359375 C 11.515625 -0.796875 10.253906 0.484375 7.734375 0.484375 Z M 7.734375 0.484375 "/></g></g></g><g fill="#253237" fill-opacity="1"><g transform="translate(253.218311, 307.115678)"><g><path d="M 17.453125 0.59375 C 14.367188 0.59375 11.6875 -0.03125 9.40625 -1.28125 C 7.132812 -2.539062 5.378906 -4.332031 4.140625 -6.65625 C 2.898438 -8.976562 2.28125 -11.695312 2.28125 -14.8125 C 2.28125 -17.925781 2.898438 -20.613281 4.140625 -22.875 C 5.378906 -25.132812 7.132812 -26.875 9.40625 -28.09375 C 11.6875 -29.3125 14.367188 -29.921875 17.453125 -29.921875 C 18.773438 -29.921875 20.203125 -29.738281 21.734375 -29.375 C 23.273438 -29.019531 24.726562 -28.421875 26.09375 -27.578125 C 26.882812 -27.097656 27.347656 -26.476562 27.484375 -25.71875 C 27.628906 -24.96875 27.53125 -24.269531 27.1875 -23.625 C 26.851562 -22.988281 26.351562 -22.53125 25.6875 -22.25 C 25.03125 -21.96875 24.285156 -22.066406 23.453125 -22.546875 C 21.609375 -23.585938 19.828125 -24.109375 18.109375 -24.109375 C 15.515625 -24.109375 13.503906 -23.296875 12.078125 -21.671875 C 10.660156 -20.054688 9.953125 -17.75 9.953125 -14.75 C 9.953125 -11.789062 10.660156 -9.460938 12.078125 -7.765625 C 13.503906 -6.066406 15.515625 -5.21875 18.109375 -5.21875 C 19.828125 -5.21875 21.609375 -5.71875 23.453125 -6.71875 C 24.285156 -7.195312 25.019531 -7.296875 25.65625 -7.015625 C 26.300781 -6.734375 26.765625 -6.265625 27.046875 -5.609375 C 27.328125 -4.953125 27.382812 -4.253906 27.21875 -3.515625 C 27.0625 -2.773438 26.601562 -2.160156 25.84375 -1.671875 C 24.53125 -0.878906 23.132812 -0.304688 21.65625 0.046875 C 20.175781 0.410156 18.773438 0.59375 17.453125 0.59375 Z M 17.453125 0.59375 "/></g></g></g><g fill="#253237" fill-opacity="1"><g transform="translate(281.518989, 307.115678)"><g><path d="M 18.34375 0.59375 C 15.03125 0.59375 12.171875 -0.0234375 9.765625 -1.265625 C 7.367188 -2.503906 5.519531 -4.257812 4.21875 -6.53125 C 2.925781 -8.8125 2.28125 -11.507812 2.28125 -14.625 C 2.28125 -17.664062 2.910156 -20.328125 4.171875 -22.609375 C 5.429688 -24.890625 7.171875 -26.675781 9.390625 -27.96875 C 11.609375 -29.269531 14.132812 -29.921875 16.96875 -29.921875 C 21.125 -29.921875 24.410156 -28.601562 26.828125 -25.96875 C 29.253906 -23.332031 30.46875 -19.734375 30.46875 -15.171875 C 30.46875 -13.691406 29.503906 -12.953125 27.578125 -12.953125 L 9.46875 -12.953125 C 10.03125 -7.710938 13.03125 -5.09375 18.46875 -5.09375 C 19.507812 -5.09375 20.675781 -5.222656 21.96875 -5.484375 C 23.269531 -5.742188 24.503906 -6.195312 25.671875 -6.84375 C 26.703125 -7.4375 27.578125 -7.625 28.296875 -7.40625 C 29.023438 -7.1875 29.535156 -6.753906 29.828125 -6.109375 C 30.128906 -5.472656 30.171875 -4.765625 29.953125 -3.984375 C 29.734375 -3.203125 29.164062 -2.535156 28.25 -1.984375 C 26.84375 -1.097656 25.226562 -0.445312 23.40625 -0.03125 C 21.59375 0.382812 19.90625 0.59375 18.34375 0.59375 Z M 17.265625 -24.828125 C 15.066406 -24.828125 13.285156 -24.144531 11.921875 -22.78125 C 10.566406 -21.425781 9.75 -19.585938 9.46875 -17.265625 L 24.234375 -17.265625 C 24.066406 -19.703125 23.394531 -21.570312 22.21875 -22.875 C 21.039062 -24.175781 19.390625 -24.828125 17.265625 -24.828125 Z M 17.265625 -24.828125 "/></g></g></g><g fill="#253237" fill-opacity="1"><g transform="translate(57.571905, 372.333846)"><g><path d="M 8.21875 0.484375 C 5.894531 0.484375 4.734375 -0.71875 4.734375 -3.125 L 4.734375 -39.15625 C 4.734375 -41.550781 5.929688 -42.75 8.328125 -42.75 C 9.328125 -42.75 10.117188 -42.5625 10.703125 -42.1875 C 11.285156 -41.8125 11.816406 -41.160156 12.296875 -40.234375 L 26.140625 -14.625 L 40 -40.234375 C 40.476562 -41.160156 40.992188 -41.8125 41.546875 -42.1875 C 42.109375 -42.5625 42.890625 -42.75 43.890625 -42.75 C 46.210938 -42.75 47.375 -41.550781 47.375 -39.15625 L 47.375 -3.125 C 47.375 -0.71875 46.210938 0.484375 43.890625 0.484375 C 41.578125 0.484375 40.421875 -0.71875 40.421875 -3.125 L 40.421875 -28.484375 L 29.140625 -7.921875 C 28.742188 -7.234375 28.320312 -6.726562 27.875 -6.40625 C 27.4375 -6.09375 26.84375 -5.9375 26.09375 -5.9375 C 25.332031 -5.9375 24.707031 -6.101562 24.21875 -6.4375 C 23.738281 -6.78125 23.320312 -7.273438 22.96875 -7.921875 L 11.6875 -28.359375 L 11.6875 -3.125 C 11.6875 -0.71875 10.53125 0.484375 8.21875 0.484375 Z M 8.21875 0.484375 "/></g></g></g><g fill="#253237" fill-opacity="1"><g transform="translate(109.616365, 372.333846)"><g><path d="M 13.546875 0.59375 C 11.429688 0.59375 9.539062 0.1875 7.875 -0.625 C 6.21875 -1.445312 4.921875 -2.554688 3.984375 -3.953125 C 3.046875 -5.359375 2.578125 -6.941406 2.578125 -8.703125 C 2.578125 -10.859375 3.132812 -12.566406 4.25 -13.828125 C 5.375 -15.085938 7.195312 -15.992188 9.71875 -16.546875 C 12.238281 -17.109375 15.613281 -17.390625 19.84375 -17.390625 L 21.953125 -17.390625 L 21.953125 -18.65625 C 21.953125 -20.65625 21.507812 -22.09375 20.625 -22.96875 C 19.75 -23.84375 18.269531 -24.28125 16.1875 -24.28125 C 15.03125 -24.28125 13.78125 -24.140625 12.4375 -23.859375 C 11.101562 -23.585938 9.695312 -23.109375 8.21875 -22.421875 C 7.257812 -21.984375 6.457031 -21.929688 5.8125 -22.265625 C 5.175781 -22.609375 4.75 -23.148438 4.53125 -23.890625 C 4.3125 -24.628906 4.347656 -25.378906 4.640625 -26.140625 C 4.941406 -26.898438 5.554688 -27.460938 6.484375 -27.828125 C 8.316406 -28.585938 10.082031 -29.125 11.78125 -29.4375 C 13.476562 -29.757812 15.03125 -29.921875 16.4375 -29.921875 C 20.707031 -29.921875 23.878906 -28.929688 25.953125 -26.953125 C 28.035156 -24.972656 29.078125 -21.90625 29.078125 -17.75 L 29.078125 -3.359375 C 29.078125 -0.796875 27.921875 0.484375 25.609375 0.484375 C 23.242188 0.484375 22.0625 -0.796875 22.0625 -3.359375 L 22.0625 -4.671875 C 21.382812 -3.035156 20.304688 -1.75 18.828125 -0.8125 C 17.347656 0.125 15.585938 0.59375 13.546875 0.59375 Z M 15.109375 -4.5625 C 17.066406 -4.5625 18.695312 -5.238281 20 -6.59375 C 21.300781 -7.957031 21.953125 -9.675781 21.953125 -11.75 L 21.953125 -13.078125 L 19.90625 -13.078125 C 16.144531 -13.078125 13.535156 -12.785156 12.078125 -12.203125 C 10.617188 -11.617188 9.890625 -10.570312 9.890625 -9.0625 C 9.890625 -7.738281 10.347656 -6.65625 11.265625 -5.8125 C 12.191406 -4.976562 13.472656 -4.5625 15.109375 -4.5625 Z M 15.109375 -4.5625 "/></g></g></g><g fill="#253237" fill-opacity="1"><g transform="translate(142.413967, 372.333846)"><g><path d="M 7.609375 0.484375 C 5.128906 0.484375 3.890625 -0.796875 3.890625 -3.359375 L 3.890625 -26.03125 C 3.890625 -28.539062 5.113281 -29.796875 7.5625 -29.796875 C 10 -29.796875 11.21875 -28.539062 11.21875 -26.03125 L 11.21875 -24.765625 C 12.21875 -26.441406 13.566406 -27.71875 15.265625 -28.59375 C 16.960938 -29.476562 18.867188 -29.921875 20.984375 -29.921875 C 27.898438 -29.921875 31.359375 -25.90625 31.359375 -17.875 L 31.359375 -3.359375 C 31.359375 -0.796875 30.117188 0.484375 27.640625 0.484375 C 25.128906 0.484375 23.875 -0.796875 23.875 -3.359375 L 23.875 -17.515625 C 23.875 -19.785156 23.441406 -21.441406 22.578125 -22.484375 C 21.710938 -23.523438 20.382812 -24.046875 18.59375 -24.046875 C 16.394531 -24.046875 14.644531 -23.351562 13.34375 -21.96875 C 12.039062 -20.59375 11.390625 -18.765625 11.390625 -16.484375 L 11.390625 -3.359375 C 11.390625 -0.796875 10.128906 0.484375 7.609375 0.484375 Z M 7.609375 0.484375 "/></g></g></g><g fill="#253237" fill-opacity="1"><g transform="translate(177.490017, 372.333846)"><g><path d="M 13.546875 0.59375 C 11.429688 0.59375 9.539062 0.1875 7.875 -0.625 C 6.21875 -1.445312 4.921875 -2.554688 3.984375 -3.953125 C 3.046875 -5.359375 2.578125 -6.941406 2.578125 -8.703125 C 2.578125 -10.859375 3.132812 -12.566406 4.25 -13.828125 C 5.375 -15.085938 7.195312 -15.992188 9.71875 -16.546875 C 12.238281 -17.109375 15.613281 -17.390625 19.84375 -17.390625 L 21.953125 -17.390625 L 21.953125 -18.65625 C 21.953125 -20.65625 21.507812 -22.09375 20.625 -22.96875 C 19.75 -23.84375 18.269531 -24.28125 16.1875 -24.28125 C 15.03125 -24.28125 13.78125 -24.140625 12.4375 -23.859375 C 11.101562 -23.585938 9.695312 -23.109375 8.21875 -22.421875 C 7.257812 -21.984375 6.457031 -21.929688 5.8125 -22.265625 C 5.175781 -22.609375 4.75 -23.148438 4.53125 -23.890625 C 4.3125 -24.628906 4.347656 -25.378906 4.640625 -26.140625 C 4.941406 -26.898438 5.554688 -27.460938 6.484375 -27.828125 C 8.316406 -28.585938 10.082031 -29.125 11.78125 -29.4375 C 13.476562 -29.757812 15.03125 -29.921875 16.4375 -29.921875 C 20.707031 -29.921875 23.878906 -28.929688 25.953125 -26.953125 C 28.035156 -24.972656 29.078125 -21.90625 29.078125 -17.75 L 29.078125 -3.359375 C 29.078125 -0.796875 27.921875 0.484375 25.609375 0.484375 C 23.242188 0.484375 22.0625 -0.796875 22.0625 -3.359375 L 22.0625 -4.671875 C 21.382812 -3.035156 20.304688 -1.75 18.828125 -0.8125 C 17.347656 0.125 15.585938 0.59375 13.546875 0.59375 Z M 15.109375 -4.5625 C 17.066406 -4.5625 18.695312 -5.238281 20 -6.59375 C 21.300781 -7.957031 21.953125 -9.675781 21.953125 -11.75 L 21.953125 -13.078125 L 19.90625 -13.078125 C 16.144531 -13.078125 13.535156 -12.785156 12.078125 -12.203125 C 10.617188 -11.617188 9.890625 -10.570312 9.890625 -9.0625 C 9.890625 -7.738281 10.347656 -6.65625 11.265625 -5.8125 C 12.191406 -4.976562 13.472656 -4.5625 15.109375 -4.5625 Z M 15.109375 -4.5625 "/></g></g></g><g fill="#253237" fill-opacity="1"><g transform="translate(210.287619, 372.333846)"><g><path d="M 17.578125 11.390625 C 15.410156 11.390625 13.316406 11.1875 11.296875 10.78125 C 9.285156 10.382812 7.457031 9.769531 5.8125 8.9375 C 4.851562 8.457031 4.285156 7.847656 4.109375 7.109375 C 3.929688 6.367188 4 5.65625 4.3125 4.96875 C 4.632812 4.289062 5.125 3.800781 5.78125 3.5 C 6.445312 3.207031 7.160156 3.238281 7.921875 3.59375 C 9.671875 4.476562 11.335938 5.050781 12.921875 5.3125 C 14.503906 5.570312 15.851562 5.703125 16.96875 5.703125 C 22.320312 5.703125 25 3.125 25 -2.03125 L 25 -6.0625 C 24.164062 -4.414062 22.878906 -3.113281 21.140625 -2.15625 C 19.398438 -1.195312 17.472656 -0.71875 15.359375 -0.71875 C 12.710938 -0.71875 10.410156 -1.328125 8.453125 -2.546875 C 6.492188 -3.765625 4.972656 -5.472656 3.890625 -7.671875 C 2.816406 -9.867188 2.28125 -12.429688 2.28125 -15.359375 C 2.28125 -18.273438 2.816406 -20.820312 3.890625 -23 C 4.972656 -25.175781 6.492188 -26.875 8.453125 -28.09375 C 10.410156 -29.3125 12.710938 -29.921875 15.359375 -29.921875 C 17.472656 -29.921875 19.390625 -29.460938 21.109375 -28.546875 C 22.828125 -27.628906 24.085938 -26.367188 24.890625 -24.765625 L 24.890625 -26.03125 C 24.890625 -27.269531 25.21875 -28.207031 25.875 -28.84375 C 26.53125 -29.476562 27.441406 -29.796875 28.609375 -29.796875 C 31.085938 -29.796875 32.328125 -28.539062 32.328125 -26.03125 L 32.328125 -2.9375 C 32.328125 1.820312 31.066406 5.398438 28.546875 7.796875 C 26.023438 10.191406 22.367188 11.390625 17.578125 11.390625 Z M 17.390625 -6.421875 C 19.710938 -6.421875 21.550781 -7.21875 22.90625 -8.8125 C 24.269531 -10.414062 24.953125 -12.597656 24.953125 -15.359375 C 24.953125 -18.109375 24.269531 -20.273438 22.90625 -21.859375 C 21.550781 -23.441406 19.710938 -24.234375 17.390625 -24.234375 C 15.066406 -24.234375 13.222656 -23.441406 11.859375 -21.859375 C 10.503906 -20.273438 9.828125 -18.109375 9.828125 -15.359375 C 9.828125 -12.597656 10.503906 -10.414062 11.859375 -8.8125 C 13.222656 -7.21875 15.066406 -6.421875 17.390625 -6.421875 Z M 17.390625 -6.421875 "/></g></g></g><g fill="#253237" fill-opacity="1"><g transform="translate(246.502888, 372.333846)"><g><path d="M 18.34375 0.59375 C 15.03125 0.59375 12.171875 -0.0234375 9.765625 -1.265625 C 7.367188 -2.503906 5.519531 -4.257812 4.21875 -6.53125 C 2.925781 -8.8125 2.28125 -11.507812 2.28125 -14.625 C 2.28125 -17.664062 2.910156 -20.328125 4.171875 -22.609375 C 5.429688 -24.890625 7.171875 -26.675781 9.390625 -27.96875 C 11.609375 -29.269531 14.132812 -29.921875 16.96875 -29.921875 C 21.125 -29.921875 24.410156 -28.601562 26.828125 -25.96875 C 29.253906 -23.332031 30.46875 -19.734375 30.46875 -15.171875 C 30.46875 -13.691406 29.503906 -12.953125 27.578125 -12.953125 L 9.46875 -12.953125 C 10.03125 -7.710938 13.03125 -5.09375 18.46875 -5.09375 C 19.507812 -5.09375 20.675781 -5.222656 21.96875 -5.484375 C 23.269531 -5.742188 24.503906 -6.195312 25.671875 -6.84375 C 26.703125 -7.4375 27.578125 -7.625 28.296875 -7.40625 C 29.023438 -7.1875 29.535156 -6.753906 29.828125 -6.109375 C 30.128906 -5.472656 30.171875 -4.765625 29.953125 -3.984375 C 29.734375 -3.203125 29.164062 -2.535156 28.25 -1.984375 C 26.84375 -1.097656 25.226562 -0.445312 23.40625 -0.03125 C 21.59375 0.382812 19.90625 0.59375 18.34375 0.59375 Z M 17.265625 -24.828125 C 15.066406 -24.828125 13.285156 -24.144531 11.921875 -22.78125 C 10.566406 -21.425781 9.75 -19.585938 9.46875 -17.265625 L 24.234375 -17.265625 C 24.066406 -19.703125 23.394531 -21.570312 22.21875 -22.875 C 21.039062 -24.175781 19.390625 -24.828125 17.265625 -24.828125 Z M 17.265625 -24.828125 "/></g></g></g><g fill="#253237" fill-opacity="1"><g transform="translate(279.00071, 372.333846)"><g><path d="M 7.734375 0.484375 C 5.253906 0.484375 4.015625 -0.796875 4.015625 -3.359375 L 4.015625 -26.03125 C 4.015625 -28.539062 5.234375 -29.796875 7.671875 -29.796875 C 10.109375 -29.796875 11.328125 -28.539062 11.328125 -26.03125 L 11.328125 -24.828125 C 12.210938 -26.421875 13.429688 -27.664062 14.984375 -28.5625 C 16.546875 -29.46875 18.347656 -29.921875 20.390625 -29.921875 C 24.785156 -29.921875 27.664062 -28.003906 29.03125 -24.171875 C 29.945312 -25.960938 31.265625 -27.367188 32.984375 -28.390625 C 34.703125 -29.410156 36.660156 -29.921875 38.859375 -29.921875 C 45.453125 -29.921875 48.75 -25.90625 48.75 -17.875 L 48.75 -3.359375 C 48.75 -0.796875 47.488281 0.484375 44.96875 0.484375 C 42.5 0.484375 41.265625 -0.796875 41.265625 -3.359375 L 41.265625 -17.578125 C 41.265625 -19.804688 40.894531 -21.441406 40.15625 -22.484375 C 39.414062 -23.523438 38.164062 -24.046875 36.40625 -24.046875 C 34.445312 -24.046875 32.90625 -23.351562 31.78125 -21.96875 C 30.664062 -20.59375 30.109375 -18.6875 30.109375 -16.25 L 30.109375 -3.359375 C 30.109375 -0.796875 28.867188 0.484375 26.390625 0.484375 C 23.867188 0.484375 22.609375 -0.796875 22.609375 -3.359375 L 22.609375 -17.578125 C 22.609375 -19.804688 22.238281 -21.441406 21.5 -22.484375 C 20.757812 -23.523438 19.53125 -24.046875 17.8125 -24.046875 C 15.851562 -24.046875 14.3125 -23.351562 13.1875 -21.96875 C 12.070312 -20.59375 11.515625 -18.6875 11.515625 -16.25 L 11.515625 -3.359375 C 11.515625 -0.796875 10.253906 0.484375 7.734375 0.484375 Z M 7.734375 0.484375 "/></g></g></g><g fill="#253237" fill-opacity="1"><g transform="translate(331.584816, 372.333846)"><g><path d="M 18.34375 0.59375 C 15.03125 0.59375 12.171875 -0.0234375 9.765625 -1.265625 C 7.367188 -2.503906 5.519531 -4.257812 4.21875 -6.53125 C 2.925781 -8.8125 2.28125 -11.507812 2.28125 -14.625 C 2.28125 -17.664062 2.910156 -20.328125 4.171875 -22.609375 C 5.429688 -24.890625 7.171875 -26.675781 9.390625 -27.96875 C 11.609375 -29.269531 14.132812 -29.921875 16.96875 -29.921875 C 21.125 -29.921875 24.410156 -28.601562 26.828125 -25.96875 C 29.253906 -23.332031 30.46875 -19.734375 30.46875 -15.171875 C 30.46875 -13.691406 29.503906 -12.953125 27.578125 -12.953125 L 9.46875 -12.953125 C 10.03125 -7.710938 13.03125 -5.09375 18.46875 -5.09375 C 19.507812 -5.09375 20.675781 -5.222656 21.96875 -5.484375 C 23.269531 -5.742188 24.503906 -6.195312 25.671875 -6.84375 C 26.703125 -7.4375 27.578125 -7.625 28.296875 -7.40625 C 29.023438 -7.1875 29.535156 -6.753906 29.828125 -6.109375 C 30.128906 -5.472656 30.171875 -4.765625 29.953125 -3.984375 C 29.734375 -3.203125 29.164062 -2.535156 28.25 -1.984375 C 26.84375 -1.097656 25.226562 -0.445312 23.40625 -0.03125 C 21.59375 0.382812 19.90625 0.59375 18.34375 0.59375 Z M 17.265625 -24.828125 C 15.066406 -24.828125 13.285156 -24.144531 11.921875 -22.78125 C 10.566406 -21.425781 9.75 -19.585938 9.46875 -17.265625 L 24.234375 -17.265625 C 24.066406 -19.703125 23.394531 -21.570312 22.21875 -22.875 C 21.039062 -24.175781 19.390625 -24.828125 17.265625 -24.828125 Z M 17.265625 -24.828125 "/></g></g></g><g fill="#253237" fill-opacity="1"><g transform="translate(364.082626, 372.333846)"><g><path d="M 7.609375 0.484375 C 5.128906 0.484375 3.890625 -0.796875 3.890625 -3.359375 L 3.890625 -26.03125 C 3.890625 -28.539062 5.113281 -29.796875 7.5625 -29.796875 C 10 -29.796875 11.21875 -28.539062 11.21875 -26.03125 L 11.21875 -24.765625 C 12.21875 -26.441406 13.566406 -27.71875 15.265625 -28.59375 C 16.960938 -29.476562 18.867188 -29.921875 20.984375 -29.921875 C 27.898438 -29.921875 31.359375 -25.90625 31.359375 -17.875 L 31.359375 -3.359375 C 31.359375 -0.796875 30.117188 0.484375 27.640625 0.484375 C 25.128906 0.484375 23.875 -0.796875 23.875 -3.359375 L 23.875 -17.515625 C 23.875 -19.785156 23.441406 -21.441406 22.578125 -22.484375 C 21.710938 -23.523438 20.382812 -24.046875 18.59375 -24.046875 C 16.394531 -24.046875 14.644531 -23.351562 13.34375 -21.96875 C 12.039062 -20.59375 11.390625 -18.765625 11.390625 -16.484375 L 11.390625 -3.359375 C 11.390625 -0.796875 10.128906 0.484375 7.609375 0.484375 Z M 7.609375 0.484375 "/></g></g></g><g fill="#253237" fill-opacity="1"><g transform="translate(399.158677, 372.333846)"><g><path d="M 17.328125 0.59375 C 9.578125 0.59375 5.703125 -3.242188 5.703125 -10.921875 L 5.703125 -23.6875 L 2.578125 -23.6875 C 0.578125 -23.6875 -0.421875 -24.625 -0.421875 -26.5 C -0.421875 -28.382812 0.578125 -29.328125 2.578125 -29.328125 L 5.703125 -29.328125 L 5.703125 -34.78125 C 5.703125 -37.300781 6.957031 -38.5625 9.46875 -38.5625 C 11.945312 -38.5625 13.1875 -37.300781 13.1875 -34.78125 L 13.1875 -29.328125 L 19.546875 -29.328125 C 21.546875 -29.328125 22.546875 -28.382812 22.546875 -26.5 C 22.546875 -24.625 21.546875 -23.6875 19.546875 -23.6875 L 13.1875 -23.6875 L 13.1875 -11.328125 C 13.1875 -9.410156 13.609375 -7.972656 14.453125 -7.015625 C 15.296875 -6.054688 16.65625 -5.578125 18.53125 -5.578125 C 19.207031 -5.578125 19.804688 -5.632812 20.328125 -5.75 C 20.847656 -5.875 21.304688 -5.957031 21.703125 -6 C 22.179688 -6.039062 22.582031 -5.890625 22.90625 -5.546875 C 23.226562 -5.203125 23.390625 -4.515625 23.390625 -3.484375 C 23.390625 -2.679688 23.257812 -1.96875 23 -1.34375 C 22.738281 -0.726562 22.269531 -0.300781 21.59375 -0.0625 C 21.070312 0.101562 20.390625 0.253906 19.546875 0.390625 C 18.710938 0.523438 17.972656 0.59375 17.328125 0.59375 Z M 17.328125 0.59375 "/></g></g></g><g clip-path="url(#2a7c23aa0a)"><g mask="url(#0031192913)"><g transform="matrix(1, 0, 0, 1, 0, 187)"><g clip-path="url(#e03644d883)"><g clip-path="url(#820effe4d9)"><g clip-path="url(#29cedbe0ef)"><path fill="#fb921c" d="M 1006.074219 0.175781 L 1006.074219 388.859375 L 0 388.859375 L 0 0.175781 Z M 1006.074219 0.175781 " fill-opacity="1" fill-rule="nonzero"/></g></g></g></g></g></g></svg>