<svg xmlns="http://www.w3.org/2000/svg" xmlns:xlink="http://www.w3.org/1999/xlink" width="1280" zoomAndPan="magnify" viewBox="0 0 960 1439.999935" height="1920" preserveAspectRatio="xMidYMid meet" version="1.0"><defs><linearGradient x1="0" gradientTransform="matrix(0.75, 0, 0, 0.75, 0.0000216667, -0.00002)" y1="0.0000266667" x2="0" gradientUnits="userSpaceOnUse" y2="1919.99992" id="5440cfaee5"><stop stop-opacity="1" stop-color="rgb(81.599426%, 55.699158%, 19.999695%)" offset="0"/><stop stop-opacity="1" stop-color="rgb(81.39801%, 55.685425%, 20.108032%)" offset="0.00390625"/><stop stop-opacity="1" stop-color="rgb(81.19812%, 55.671692%, 20.21637%)" offset="0.0078125"/><stop stop-opacity="1" stop-color="rgb(80.996704%, 55.657959%, 20.324707%)" offset="0.0117187"/><stop stop-opacity="1" stop-color="rgb(80.796814%, 55.644226%, 20.433044%)" offset="0.015625"/><stop stop-opacity="1" stop-color="rgb(80.595398%, 55.630493%, 20.541382%)" offset="0.0195312"/><stop stop-opacity="1" stop-color="rgb(80.393982%, 55.61676%, 20.651245%)" offset="0.0234375"/><stop stop-opacity="1" stop-color="rgb(80.192566%, 55.603027%, 20.759583%)" offset="0.0273437"/><stop stop-opacity="1" stop-color="rgb(79.992676%, 55.589294%, 20.86792%)" offset="0.03125"/><stop stop-opacity="1" stop-color="rgb(79.79126%, 55.575562%, 20.976257%)" offset="0.0351562"/><stop stop-opacity="1" stop-color="rgb(79.59137%, 55.561829%, 21.084595%)" offset="0.0390625"/><stop stop-opacity="1" stop-color="rgb(79.389954%, 55.548096%, 21.192932%)" offset="0.0429688"/><stop stop-opacity="1" stop-color="rgb(79.190063%, 55.535889%, 21.302795%)" offset="0.046875"/><stop stop-opacity="1" stop-color="rgb(78.988647%, 55.522156%, 21.411133%)" offset="0.0507812"/><stop stop-opacity="1" stop-color="rgb(78.788757%, 55.508423%, 21.51947%)" offset="0.0546875"/><stop stop-opacity="1" stop-color="rgb(78.587341%, 55.49469%, 21.627808%)" offset="0.0585938"/><stop stop-opacity="1" stop-color="rgb(78.387451%, 55.480957%, 21.736145%)" offset="0.0625"/><stop stop-opacity="1" stop-color="rgb(78.186035%, 55.467224%, 21.844482%)" offset="0.0664062"/><stop stop-opacity="1" stop-color="rgb(77.984619%, 55.453491%, 21.954346%)" offset="0.0703125"/><stop stop-opacity="1" stop-color="rgb(77.783203%, 55.439758%, 22.062683%)" offset="0.0742187"/><stop stop-opacity="1" stop-color="rgb(77.583313%, 55.426025%, 22.171021%)" offset="0.078125"/><stop stop-opacity="1" stop-color="rgb(77.381897%, 55.412292%, 22.279358%)" offset="0.0820312"/><stop stop-opacity="1" stop-color="rgb(77.182007%, 55.39856%, 22.387695%)" offset="0.0859375"/><stop stop-opacity="1" stop-color="rgb(76.980591%, 55.384827%, 22.496033%)" offset="0.0898437"/><stop stop-opacity="1" stop-color="rgb(76.780701%, 55.371094%, 22.605896%)" offset="0.09375"/><stop stop-opacity="1" stop-color="rgb(76.579285%, 55.357361%, 22.714233%)" offset="0.0976562"/><stop stop-opacity="1" stop-color="rgb(76.379395%, 55.343628%, 22.822571%)" offset="0.101562"/><stop stop-opacity="1" stop-color="rgb(76.177979%, 55.329895%, 22.930908%)" offset="0.105469"/><stop stop-opacity="1" stop-color="rgb(75.978088%, 55.316162%, 23.039246%)" offset="0.109375"/><stop stop-opacity="1" stop-color="rgb(75.776672%, 55.302429%, 23.147583%)" offset="0.113281"/><stop stop-opacity="1" stop-color="rgb(75.575256%, 55.288696%, 23.257446%)" offset="0.117188"/><stop stop-opacity="1" stop-color="rgb(75.37384%, 55.274963%, 23.365784%)" offset="0.121094"/><stop stop-opacity="1" stop-color="rgb(75.17395%, 55.26123%, 23.474121%)" offset="0.125"/><stop stop-opacity="1" stop-color="rgb(74.972534%, 55.247498%, 23.582458%)" offset="0.128906"/><stop stop-opacity="1" stop-color="rgb(74.772644%, 55.233765%, 23.690796%)" offset="0.132812"/><stop stop-opacity="1" stop-color="rgb(74.571228%, 55.220032%, 23.799133%)" offset="0.136719"/><stop stop-opacity="1" stop-color="rgb(74.371338%, 55.206299%, 23.908997%)" offset="0.140625"/><stop stop-opacity="1" stop-color="rgb(74.169922%, 55.192566%, 24.017334%)" offset="0.144531"/><stop stop-opacity="1" stop-color="rgb(73.970032%, 55.180359%, 24.125671%)" offset="0.148438"/><stop stop-opacity="1" stop-color="rgb(73.768616%, 55.166626%, 24.234009%)" offset="0.152344"/><stop stop-opacity="1" stop-color="rgb(73.568726%, 55.152893%, 24.342346%)" offset="0.15625"/><stop stop-opacity="1" stop-color="rgb(73.36731%, 55.13916%, 24.450684%)" offset="0.160156"/><stop stop-opacity="1" stop-color="rgb(73.165894%, 55.125427%, 24.560547%)" offset="0.164062"/><stop stop-opacity="1" stop-color="rgb(72.964478%, 55.111694%, 24.668884%)" offset="0.167969"/><stop stop-opacity="1" stop-color="rgb(72.764587%, 55.097961%, 24.777222%)" offset="0.171875"/><stop stop-opacity="1" stop-color="rgb(72.563171%, 55.084229%, 24.885559%)" offset="0.175781"/><stop stop-opacity="1" stop-color="rgb(72.363281%, 55.070496%, 24.993896%)" offset="0.179688"/><stop stop-opacity="1" stop-color="rgb(72.161865%, 55.056763%, 25.102234%)" offset="0.183594"/><stop stop-opacity="1" stop-color="rgb(71.961975%, 55.04303%, 25.212097%)" offset="0.1875"/><stop stop-opacity="1" stop-color="rgb(71.760559%, 55.029297%, 25.320435%)" offset="0.191406"/><stop stop-opacity="1" stop-color="rgb(71.560669%, 55.015564%, 25.428772%)" offset="0.195312"/><stop stop-opacity="1" stop-color="rgb(71.359253%, 55.001831%, 25.537109%)" offset="0.199219"/><stop stop-opacity="1" stop-color="rgb(71.159363%, 54.988098%, 25.645447%)" offset="0.203125"/><stop stop-opacity="1" stop-color="rgb(70.957947%, 54.974365%, 25.753784%)" offset="0.207031"/><stop stop-opacity="1" stop-color="rgb(70.756531%, 54.960632%, 25.863647%)" offset="0.210938"/><stop stop-opacity="1" stop-color="rgb(70.555115%, 54.946899%, 25.971985%)" offset="0.214844"/><stop stop-opacity="1" stop-color="rgb(70.355225%, 54.933167%, 26.080322%)" offset="0.21875"/><stop stop-opacity="1" stop-color="rgb(70.153809%, 54.919434%, 26.18866%)" offset="0.222656"/><stop stop-opacity="1" stop-color="rgb(69.953918%, 54.905701%, 26.296997%)" offset="0.226562"/><stop stop-opacity="1" stop-color="rgb(69.752502%, 54.891968%, 26.405334%)" offset="0.230469"/><stop stop-opacity="1" stop-color="rgb(69.552612%, 54.878235%, 26.515198%)" offset="0.234375"/><stop stop-opacity="1" stop-color="rgb(69.351196%, 54.864502%, 26.623535%)" offset="0.238281"/><stop stop-opacity="1" stop-color="rgb(69.151306%, 54.852295%, 26.731873%)" offset="0.242188"/><stop stop-opacity="1" stop-color="rgb(68.94989%, 54.838562%, 26.84021%)" offset="0.246094"/><stop stop-opacity="1" stop-color="rgb(68.75%, 54.824829%, 26.948547%)" offset="0.25"/><stop stop-opacity="1" stop-color="rgb(68.548584%, 54.811096%, 27.056885%)" offset="0.253906"/><stop stop-opacity="1" stop-color="rgb(68.347168%, 54.797363%, 27.166748%)" offset="0.257812"/><stop stop-opacity="1" stop-color="rgb(68.145752%, 54.78363%, 27.275085%)" offset="0.261719"/><stop stop-opacity="1" stop-color="rgb(67.945862%, 54.769897%, 27.383423%)" offset="0.265625"/><stop stop-opacity="1" stop-color="rgb(67.744446%, 54.756165%, 27.49176%)" offset="0.269531"/><stop stop-opacity="1" stop-color="rgb(67.544556%, 54.742432%, 27.600098%)" offset="0.273438"/><stop stop-opacity="1" stop-color="rgb(67.34314%, 54.728699%, 27.708435%)" offset="0.277344"/><stop stop-opacity="1" stop-color="rgb(67.14325%, 54.714966%, 27.818298%)" offset="0.28125"/><stop stop-opacity="1" stop-color="rgb(66.941833%, 54.701233%, 27.926636%)" offset="0.285156"/><stop stop-opacity="1" stop-color="rgb(66.741943%, 54.6875%, 28.034973%)" offset="0.289062"/><stop stop-opacity="1" stop-color="rgb(66.540527%, 54.673767%, 28.143311%)" offset="0.292969"/><stop stop-opacity="1" stop-color="rgb(66.339111%, 54.660034%, 28.251648%)" offset="0.296875"/><stop stop-opacity="1" stop-color="rgb(66.137695%, 54.646301%, 28.359985%)" offset="0.300781"/><stop stop-opacity="1" stop-color="rgb(65.937805%, 54.632568%, 28.469849%)" offset="0.304687"/><stop stop-opacity="1" stop-color="rgb(65.736389%, 54.618835%, 28.578186%)" offset="0.308594"/><stop stop-opacity="1" stop-color="rgb(65.536499%, 54.605103%, 28.686523%)" offset="0.3125"/><stop stop-opacity="1" stop-color="rgb(65.335083%, 54.59137%, 28.794861%)" offset="0.316406"/><stop stop-opacity="1" stop-color="rgb(65.135193%, 54.577637%, 28.903198%)" offset="0.320312"/><stop stop-opacity="1" stop-color="rgb(64.933777%, 54.563904%, 29.011536%)" offset="0.324219"/><stop stop-opacity="1" stop-color="rgb(64.733887%, 54.550171%, 29.121399%)" offset="0.328125"/><stop stop-opacity="1" stop-color="rgb(64.532471%, 54.536438%, 29.229736%)" offset="0.332031"/><stop stop-opacity="1" stop-color="rgb(64.332581%, 54.522705%, 29.338074%)" offset="0.335938"/><stop stop-opacity="1" stop-color="rgb(64.131165%, 54.508972%, 29.446411%)" offset="0.339844"/><stop stop-opacity="1" stop-color="rgb(63.929749%, 54.496765%, 29.554749%)" offset="0.34375"/><stop stop-opacity="1" stop-color="rgb(63.728333%, 54.483032%, 29.663086%)" offset="0.347656"/><stop stop-opacity="1" stop-color="rgb(63.528442%, 54.469299%, 29.772949%)" offset="0.351562"/><stop stop-opacity="1" stop-color="rgb(63.327026%, 54.455566%, 29.881287%)" offset="0.355469"/><stop stop-opacity="1" stop-color="rgb(63.127136%, 54.441833%, 29.989624%)" offset="0.359375"/><stop stop-opacity="1" stop-color="rgb(62.92572%, 54.428101%, 30.097961%)" offset="0.363281"/><stop stop-opacity="1" stop-color="rgb(62.72583%, 54.414368%, 30.206299%)" offset="0.367188"/><stop stop-opacity="1" stop-color="rgb(62.524414%, 54.400635%, 30.314636%)" offset="0.371094"/><stop stop-opacity="1" stop-color="rgb(62.324524%, 54.386902%, 30.4245%)" offset="0.375"/><stop stop-opacity="1" stop-color="rgb(62.123108%, 54.373169%, 30.532837%)" offset="0.378906"/><stop stop-opacity="1" stop-color="rgb(61.923218%, 54.359436%, 30.641174%)" offset="0.382812"/><stop stop-opacity="1" stop-color="rgb(61.721802%, 54.345703%, 30.749512%)" offset="0.386719"/><stop stop-opacity="1" stop-color="rgb(61.520386%, 54.33197%, 30.857849%)" offset="0.390625"/><stop stop-opacity="1" stop-color="rgb(61.31897%, 54.318237%, 30.966187%)" offset="0.394531"/><stop stop-opacity="1" stop-color="rgb(61.11908%, 54.304504%, 31.07605%)" offset="0.398438"/><stop stop-opacity="1" stop-color="rgb(60.917664%, 54.290771%, 31.184387%)" offset="0.402344"/><stop stop-opacity="1" stop-color="rgb(60.717773%, 54.277039%, 31.292725%)" offset="0.40625"/><stop stop-opacity="1" stop-color="rgb(60.516357%, 54.263306%, 31.401062%)" offset="0.410156"/><stop stop-opacity="1" stop-color="rgb(60.316467%, 54.249573%, 31.510925%)" offset="0.414062"/><stop stop-opacity="1" stop-color="rgb(60.115051%, 54.23584%, 31.619263%)" offset="0.417969"/><stop stop-opacity="1" stop-color="rgb(59.915161%, 54.222107%, 31.7276%)" offset="0.421875"/><stop stop-opacity="1" stop-color="rgb(59.713745%, 54.208374%, 31.835938%)" offset="0.425781"/><stop stop-opacity="1" stop-color="rgb(59.513855%, 54.194641%, 31.944275%)" offset="0.429687"/><stop stop-opacity="1" stop-color="rgb(59.312439%, 54.180908%, 32.052612%)" offset="0.433594"/><stop stop-opacity="1" stop-color="rgb(59.111023%, 54.168701%, 32.162476%)" offset="0.4375"/><stop stop-opacity="1" stop-color="rgb(58.909607%, 54.154968%, 32.270813%)" offset="0.441406"/><stop stop-opacity="1" stop-color="rgb(58.709717%, 54.141235%, 32.37915%)" offset="0.445312"/><stop stop-opacity="1" stop-color="rgb(58.508301%, 54.127502%, 32.487488%)" offset="0.449219"/><stop stop-opacity="1" stop-color="rgb(58.308411%, 54.11377%, 32.595825%)" offset="0.453125"/><stop stop-opacity="1" stop-color="rgb(58.106995%, 54.100037%, 32.704163%)" offset="0.457031"/><stop stop-opacity="1" stop-color="rgb(57.907104%, 54.086304%, 32.814026%)" offset="0.460937"/><stop stop-opacity="1" stop-color="rgb(57.705688%, 54.072571%, 32.922363%)" offset="0.464844"/><stop stop-opacity="1" stop-color="rgb(57.505798%, 54.058838%, 33.030701%)" offset="0.46875"/><stop stop-opacity="1" stop-color="rgb(57.304382%, 54.045105%, 33.139038%)" offset="0.472656"/><stop stop-opacity="1" stop-color="rgb(57.104492%, 54.031372%, 33.247375%)" offset="0.476562"/><stop stop-opacity="1" stop-color="rgb(56.903076%, 54.017639%, 33.355713%)" offset="0.480469"/><stop stop-opacity="1" stop-color="rgb(56.70166%, 54.003906%, 33.465576%)" offset="0.484375"/><stop stop-opacity="1" stop-color="rgb(56.500244%, 53.990173%, 33.573914%)" offset="0.488281"/><stop stop-opacity="1" stop-color="rgb(56.300354%, 53.97644%, 33.682251%)" offset="0.492188"/><stop stop-opacity="1" stop-color="rgb(56.098938%, 53.962708%, 33.790588%)" offset="0.496094"/><stop stop-opacity="1" stop-color="rgb(55.899048%, 53.948975%, 33.898926%)" offset="0.5"/><stop stop-opacity="1" stop-color="rgb(55.697632%, 53.935242%, 34.007263%)" offset="0.503906"/><stop stop-opacity="1" stop-color="rgb(55.497742%, 53.921509%, 34.117126%)" offset="0.507812"/><stop stop-opacity="1" stop-color="rgb(55.296326%, 53.907776%, 34.225464%)" offset="0.511719"/><stop stop-opacity="1" stop-color="rgb(55.096436%, 53.894043%, 34.333801%)" offset="0.515625"/><stop stop-opacity="1" stop-color="rgb(54.89502%, 53.88031%, 34.442139%)" offset="0.519531"/><stop stop-opacity="1" stop-color="rgb(54.695129%, 53.866577%, 34.550476%)" offset="0.523438"/><stop stop-opacity="1" stop-color="rgb(54.493713%, 53.852844%, 34.658813%)" offset="0.527344"/><stop stop-opacity="1" stop-color="rgb(54.292297%, 53.839111%, 34.768677%)" offset="0.53125"/><stop stop-opacity="1" stop-color="rgb(54.090881%, 53.825378%, 34.877014%)" offset="0.535156"/><stop stop-opacity="1" stop-color="rgb(53.890991%, 53.813171%, 34.985352%)" offset="0.539062"/><stop stop-opacity="1" stop-color="rgb(53.689575%, 53.799438%, 35.093689%)" offset="0.542969"/><stop stop-opacity="1" stop-color="rgb(53.489685%, 53.785706%, 35.202026%)" offset="0.546875"/><stop stop-opacity="1" stop-color="rgb(53.288269%, 53.771973%, 35.310364%)" offset="0.550781"/><stop stop-opacity="1" stop-color="rgb(53.088379%, 53.75824%, 35.420227%)" offset="0.554688"/><stop stop-opacity="1" stop-color="rgb(52.886963%, 53.744507%, 35.528564%)" offset="0.558594"/><stop stop-opacity="1" stop-color="rgb(52.687073%, 53.730774%, 35.636902%)" offset="0.5625"/><stop stop-opacity="1" stop-color="rgb(52.485657%, 53.717041%, 35.745239%)" offset="0.566406"/><stop stop-opacity="1" stop-color="rgb(52.285767%, 53.703308%, 35.853577%)" offset="0.570312"/><stop stop-opacity="1" stop-color="rgb(52.084351%, 53.689575%, 35.961914%)" offset="0.574219"/><stop stop-opacity="1" stop-color="rgb(51.882935%, 53.675842%, 36.071777%)" offset="0.578125"/><stop stop-opacity="1" stop-color="rgb(51.681519%, 53.662109%, 36.180115%)" offset="0.582031"/><stop stop-opacity="1" stop-color="rgb(51.481628%, 53.648376%, 36.288452%)" offset="0.585937"/><stop stop-opacity="1" stop-color="rgb(51.280212%, 53.634644%, 36.39679%)" offset="0.589844"/><stop stop-opacity="1" stop-color="rgb(51.080322%, 53.620911%, 36.505127%)" offset="0.59375"/><stop stop-opacity="1" stop-color="rgb(50.878906%, 53.607178%, 36.613464%)" offset="0.597656"/><stop stop-opacity="1" stop-color="rgb(50.679016%, 53.593445%, 36.723328%)" offset="0.601562"/><stop stop-opacity="1" stop-color="rgb(50.4776%, 53.579712%, 36.831665%)" offset="0.605469"/><stop stop-opacity="1" stop-color="rgb(50.27771%, 53.565979%, 36.940002%)" offset="0.609375"/><stop stop-opacity="1" stop-color="rgb(50.076294%, 53.552246%, 37.04834%)" offset="0.613281"/><stop stop-opacity="1" stop-color="rgb(49.876404%, 53.538513%, 37.156677%)" offset="0.617188"/><stop stop-opacity="1" stop-color="rgb(49.674988%, 53.52478%, 37.265015%)" offset="0.621094"/><stop stop-opacity="1" stop-color="rgb(49.473572%, 53.511047%, 37.374878%)" offset="0.625"/><stop stop-opacity="1" stop-color="rgb(49.272156%, 53.497314%, 37.483215%)" offset="0.628906"/><stop stop-opacity="1" stop-color="rgb(49.072266%, 53.485107%, 37.591553%)" offset="0.632812"/><stop stop-opacity="1" stop-color="rgb(48.87085%, 53.471375%, 37.69989%)" offset="0.636719"/><stop stop-opacity="1" stop-color="rgb(48.670959%, 53.457642%, 37.808228%)" offset="0.640625"/><stop stop-opacity="1" stop-color="rgb(48.469543%, 53.443909%, 37.916565%)" offset="0.644531"/><stop stop-opacity="1" stop-color="rgb(48.269653%, 53.430176%, 38.026428%)" offset="0.648438"/><stop stop-opacity="1" stop-color="rgb(48.068237%, 53.416443%, 38.134766%)" offset="0.652344"/><stop stop-opacity="1" stop-color="rgb(47.868347%, 53.40271%, 38.243103%)" offset="0.65625"/><stop stop-opacity="1" stop-color="rgb(47.666931%, 53.388977%, 38.35144%)" offset="0.660156"/><stop stop-opacity="1" stop-color="rgb(47.467041%, 53.375244%, 38.459778%)" offset="0.664062"/><stop stop-opacity="1" stop-color="rgb(47.265625%, 53.361511%, 38.568115%)" offset="0.667969"/><stop stop-opacity="1" stop-color="rgb(47.064209%, 53.347778%, 38.677979%)" offset="0.671875"/><stop stop-opacity="1" stop-color="rgb(46.862793%, 53.334045%, 38.786316%)" offset="0.675781"/><stop stop-opacity="1" stop-color="rgb(46.662903%, 53.320312%, 38.894653%)" offset="0.679687"/><stop stop-opacity="1" stop-color="rgb(46.461487%, 53.30658%, 39.002991%)" offset="0.683594"/><stop stop-opacity="1" stop-color="rgb(46.261597%, 53.292847%, 39.111328%)" offset="0.6875"/><stop stop-opacity="1" stop-color="rgb(46.060181%, 53.279114%, 39.219666%)" offset="0.691406"/><stop stop-opacity="1" stop-color="rgb(45.860291%, 53.265381%, 39.329529%)" offset="0.695312"/><stop stop-opacity="1" stop-color="rgb(45.658875%, 53.251648%, 39.437866%)" offset="0.699219"/><stop stop-opacity="1" stop-color="rgb(45.458984%, 53.237915%, 39.546204%)" offset="0.703125"/><stop stop-opacity="1" stop-color="rgb(45.257568%, 53.224182%, 39.654541%)" offset="0.707031"/><stop stop-opacity="1" stop-color="rgb(45.057678%, 53.210449%, 39.762878%)" offset="0.710938"/><stop stop-opacity="1" stop-color="rgb(44.856262%, 53.196716%, 39.871216%)" offset="0.714844"/><stop stop-opacity="1" stop-color="rgb(44.654846%, 53.182983%, 39.981079%)" offset="0.71875"/><stop stop-opacity="1" stop-color="rgb(44.45343%, 53.16925%, 40.089417%)" offset="0.722656"/><stop stop-opacity="1" stop-color="rgb(44.25354%, 53.155518%, 40.197754%)" offset="0.726562"/><stop stop-opacity="1" stop-color="rgb(44.052124%, 53.141785%, 40.306091%)" offset="0.730469"/><stop stop-opacity="1" stop-color="rgb(43.852234%, 53.129578%, 40.414429%)" offset="0.734375"/><stop stop-opacity="1" stop-color="rgb(43.650818%, 53.115845%, 40.522766%)" offset="0.738281"/><stop stop-opacity="1" stop-color="rgb(43.450928%, 53.102112%, 40.632629%)" offset="0.742188"/><stop stop-opacity="1" stop-color="rgb(43.249512%, 53.088379%, 40.740967%)" offset="0.746094"/><stop stop-opacity="1" stop-color="rgb(43.049622%, 53.074646%, 40.849304%)" offset="0.75"/><stop stop-opacity="1" stop-color="rgb(42.848206%, 53.060913%, 40.957642%)" offset="0.753906"/><stop stop-opacity="1" stop-color="rgb(42.648315%, 53.04718%, 41.065979%)" offset="0.757812"/><stop stop-opacity="1" stop-color="rgb(42.446899%, 53.033447%, 41.174316%)" offset="0.761719"/><stop stop-opacity="1" stop-color="rgb(42.245483%, 53.019714%, 41.28418%)" offset="0.765625"/><stop stop-opacity="1" stop-color="rgb(42.044067%, 53.005981%, 41.392517%)" offset="0.769531"/><stop stop-opacity="1" stop-color="rgb(41.844177%, 52.992249%, 41.500854%)" offset="0.773438"/><stop stop-opacity="1" stop-color="rgb(41.642761%, 52.978516%, 41.609192%)" offset="0.777344"/><stop stop-opacity="1" stop-color="rgb(41.442871%, 52.964783%, 41.717529%)" offset="0.78125"/><stop stop-opacity="1" stop-color="rgb(41.241455%, 52.95105%, 41.825867%)" offset="0.785156"/><stop stop-opacity="1" stop-color="rgb(41.041565%, 52.937317%, 41.93573%)" offset="0.789062"/><stop stop-opacity="1" stop-color="rgb(40.840149%, 52.923584%, 42.044067%)" offset="0.792969"/><stop stop-opacity="1" stop-color="rgb(40.640259%, 52.909851%, 42.152405%)" offset="0.796875"/><stop stop-opacity="1" stop-color="rgb(40.438843%, 52.896118%, 42.260742%)" offset="0.800781"/><stop stop-opacity="1" stop-color="rgb(40.238953%, 52.882385%, 42.36908%)" offset="0.804688"/><stop stop-opacity="1" stop-color="rgb(40.037537%, 52.868652%, 42.477417%)" offset="0.808594"/><stop stop-opacity="1" stop-color="rgb(39.836121%, 52.854919%, 42.58728%)" offset="0.8125"/><stop stop-opacity="1" stop-color="rgb(39.634705%, 52.841187%, 42.695618%)" offset="0.816406"/><stop stop-opacity="1" stop-color="rgb(39.434814%, 52.827454%, 42.803955%)" offset="0.820312"/><stop stop-opacity="1" stop-color="rgb(39.233398%, 52.813721%, 42.912292%)" offset="0.824219"/><stop stop-opacity="1" stop-color="rgb(39.033508%, 52.801514%, 43.02063%)" offset="0.828125"/><stop stop-opacity="1" stop-color="rgb(38.832092%, 52.787781%, 43.128967%)" offset="0.832031"/><stop stop-opacity="1" stop-color="rgb(38.632202%, 52.774048%, 43.238831%)" offset="0.835938"/><stop stop-opacity="1" stop-color="rgb(38.430786%, 52.760315%, 43.347168%)" offset="0.839844"/><stop stop-opacity="1" stop-color="rgb(38.230896%, 52.746582%, 43.455505%)" offset="0.84375"/><stop stop-opacity="1" stop-color="rgb(38.02948%, 52.732849%, 43.563843%)" offset="0.847656"/><stop stop-opacity="1" stop-color="rgb(37.82959%, 52.719116%, 43.67218%)" offset="0.851562"/><stop stop-opacity="1" stop-color="rgb(37.628174%, 52.705383%, 43.780518%)" offset="0.855469"/><stop stop-opacity="1" stop-color="rgb(37.426758%, 52.69165%, 43.890381%)" offset="0.859375"/><stop stop-opacity="1" stop-color="rgb(37.225342%, 52.677917%, 43.998718%)" offset="0.863281"/><stop stop-opacity="1" stop-color="rgb(37.025452%, 52.664185%, 44.107056%)" offset="0.867188"/><stop stop-opacity="1" stop-color="rgb(36.824036%, 52.650452%, 44.215393%)" offset="0.871094"/><stop stop-opacity="1" stop-color="rgb(36.624146%, 52.636719%, 44.32373%)" offset="0.875"/><stop stop-opacity="1" stop-color="rgb(36.422729%, 52.622986%, 44.432068%)" offset="0.878906"/><stop stop-opacity="1" stop-color="rgb(36.222839%, 52.609253%, 44.541931%)" offset="0.882812"/><stop stop-opacity="1" stop-color="rgb(36.021423%, 52.59552%, 44.650269%)" offset="0.886719"/><stop stop-opacity="1" stop-color="rgb(35.821533%, 52.581787%, 44.758606%)" offset="0.890625"/><stop stop-opacity="1" stop-color="rgb(35.620117%, 52.568054%, 44.866943%)" offset="0.894531"/><stop stop-opacity="1" stop-color="rgb(35.420227%, 52.554321%, 44.975281%)" offset="0.898438"/><stop stop-opacity="1" stop-color="rgb(35.218811%, 52.540588%, 45.083618%)" offset="0.902344"/><stop stop-opacity="1" stop-color="rgb(35.017395%, 52.526855%, 45.193481%)" offset="0.90625"/><stop stop-opacity="1" stop-color="rgb(34.815979%, 52.513123%, 45.301819%)" offset="0.910156"/><stop stop-opacity="1" stop-color="rgb(34.616089%, 52.49939%, 45.410156%)" offset="0.914062"/><stop stop-opacity="1" stop-color="rgb(34.414673%, 52.485657%, 45.518494%)" offset="0.917969"/><stop stop-opacity="1" stop-color="rgb(34.214783%, 52.471924%, 45.626831%)" offset="0.921875"/><stop stop-opacity="1" stop-color="rgb(34.013367%, 52.458191%, 45.735168%)" offset="0.925781"/><stop stop-opacity="1" stop-color="rgb(33.813477%, 52.445984%, 45.845032%)" offset="0.929688"/><stop stop-opacity="1" stop-color="rgb(33.612061%, 52.432251%, 45.953369%)" offset="0.933594"/><stop stop-opacity="1" stop-color="rgb(33.41217%, 52.418518%, 46.061707%)" offset="0.9375"/><stop stop-opacity="1" stop-color="rgb(33.210754%, 52.404785%, 46.170044%)" offset="0.941406"/><stop stop-opacity="1" stop-color="rgb(33.010864%, 52.391052%, 46.278381%)" offset="0.945312"/><stop stop-opacity="1" stop-color="rgb(32.809448%, 52.377319%, 46.386719%)" offset="0.949219"/><stop stop-opacity="1" stop-color="rgb(32.608032%, 52.363586%, 46.496582%)" offset="0.953125"/><stop stop-opacity="1" stop-color="rgb(32.406616%, 52.349854%, 46.604919%)" offset="0.957031"/><stop stop-opacity="1" stop-color="rgb(32.206726%, 52.336121%, 46.713257%)" offset="0.960938"/><stop stop-opacity="1" stop-color="rgb(32.00531%, 52.322388%, 46.821594%)" offset="0.964844"/><stop stop-opacity="1" stop-color="rgb(31.80542%, 52.308655%, 46.929932%)" offset="0.96875"/><stop stop-opacity="1" stop-color="rgb(31.604004%, 52.294922%, 47.038269%)" offset="0.972656"/><stop stop-opacity="1" stop-color="rgb(31.404114%, 52.281189%, 47.148132%)" offset="0.976562"/><stop stop-opacity="1" stop-color="rgb(31.202698%, 52.267456%, 47.25647%)" offset="0.980469"/><stop stop-opacity="1" stop-color="rgb(31.002808%, 52.253723%, 47.364807%)" offset="0.984375"/><stop stop-opacity="1" stop-color="rgb(30.801392%, 52.23999%, 47.473145%)" offset="0.988281"/><stop stop-opacity="1" stop-color="rgb(30.601501%, 52.226257%, 47.581482%)" offset="0.992188"/><stop stop-opacity="1" stop-color="rgb(30.400085%, 52.212524%, 47.689819%)" offset="0.996094"/><stop stop-opacity="1" stop-color="rgb(30.198669%, 52.198792%, 47.799683%)" offset="1"/></linearGradient><clipPath id="bb752db2ec"><path d="M 593 481.332031 L 707.359375 481.332031 L 707.359375 554.429688 L 593 554.429688 Z M 593 481.332031 " clip-rule="nonzero"/></clipPath><clipPath id="4e8a227eb8"><path d="M 629.550781 481.332031 L 670.8125 481.332031 C 690.996094 481.332031 707.359375 497.695312 707.359375 517.878906 C 707.359375 538.066406 690.996094 554.429688 670.8125 554.429688 L 629.550781 554.429688 C 609.363281 554.429688 593 538.066406 593 517.878906 C 593 497.695312 609.363281 481.332031 629.550781 481.332031 Z M 629.550781 481.332031 " clip-rule="nonzero"/></clipPath><clipPath id="f96833c9a7"><path d="M 593 470.359375 L 697 470.359375 L 697 555.691406 L 593 555.691406 Z M 593 470.359375 " clip-rule="nonzero"/></clipPath><clipPath id="7abb211d80"><path d="M 615 534 L 620 534 L 620 555.691406 L 615 555.691406 Z M 615 534 " clip-rule="nonzero"/></clipPath><clipPath id="780372ad25"><path d="M 759.824219 641.636719 L 847.644531 641.636719 L 847.644531 708.121094 L 759.824219 708.121094 Z M 759.824219 641.636719 " clip-rule="nonzero"/></clipPath><clipPath id="8a845d8457"><path d="M 793.066406 641.636719 L 814.402344 641.636719 C 823.21875 641.636719 831.671875 645.136719 837.90625 651.371094 C 844.140625 657.605469 847.644531 666.0625 847.644531 674.878906 C 847.644531 683.695312 844.140625 692.152344 837.90625 698.386719 C 831.671875 704.621094 823.21875 708.121094 814.402344 708.121094 L 793.066406 708.121094 C 784.25 708.121094 775.796875 704.621094 769.5625 698.386719 C 763.328125 692.152344 759.824219 683.695312 759.824219 674.878906 C 759.824219 666.0625 763.328125 657.605469 769.5625 651.371094 C 775.796875 645.136719 784.25 641.636719 793.066406 641.636719 Z M 793.066406 641.636719 " clip-rule="nonzero"/></clipPath><clipPath id="2e01ab54da"><path d="M 766.066406 637.683594 L 838.957031 637.683594 L 838.957031 710.574219 L 766.066406 710.574219 Z M 766.066406 637.683594 " clip-rule="nonzero"/></clipPath></defs><rect x="-96" fill="url(#5440cfaee5)" width="1152" y="-143.999994" height="1727.999922"/><path stroke-linecap="round" transform="matrix(0.745936, 0.00976445, -0.00976445, 0.745936, 485.585284, 735.14406)" fill-opacity="1" fill="#ffffff" fill-rule="nonzero" stroke-linejoin="round" d="M 186.452931 44.339421 C 186.452931 44.339421 186.454731 -44.333745 186.454731 -44.333745 C 186.454731 -44.333745 139.387194 -44.335553 139.387194 -44.335553 C 136.864004 -52.267554 133.684735 -59.913421 129.902704 -67.200539 C 129.902704 -67.200539 163.201711 -100.496759 163.201711 -100.496759 C 163.201711 -100.496759 100.504099 -163.192043 100.504099 -163.192043 C 100.504099 -163.192043 67.205093 -129.895822 67.205093 -129.895822 C 59.923517 -133.691377 52.27815 -136.874713 44.327269 -139.394224 C 44.327269 -139.394224 44.329077 -186.461761 44.329077 -186.461761 C 44.329077 -186.461761 -44.328382 -186.463767 -44.328382 -186.463767 C -44.328382 -186.463767 -44.324954 -139.396298 -44.324954 -139.396298 C -52.277898 -136.872834 -59.923765 -133.693565 -67.205441 -129.895895 C -67.205441 -129.895895 -100.506898 -163.194833 -100.506898 -163.194833 C -100.506898 -163.194833 -163.202181 -100.497221 -163.202181 -100.497221 C -163.202181 -100.497221 -129.900724 -67.198284 -129.900724 -67.198284 C -133.680504 -59.911678 -136.863908 -52.271546 -139.383624 -44.336373 C -139.383624 -44.336373 -186.456397 -44.338113 -186.456397 -44.338113 C -186.456397 -44.338113 -186.452961 44.334985 -186.452961 44.334985 C -186.452961 44.334985 -139.385424 44.336793 -139.385424 44.336793 C -136.86747 52.268862 -133.698673 59.914867 -129.901003 67.196543 C -129.901003 67.196543 -163.199941 100.497999 -163.199941 100.497999 C -163.199941 100.497999 -100.507565 163.193351 -100.507565 163.193351 C -100.507565 163.193351 -67.208559 129.89713 -67.208559 129.89713 C -59.921748 133.692617 -52.27638 136.875953 -44.3255 139.395464 C -44.3255 139.395464 -44.327308 186.463001 -44.327308 186.463001 C -44.327308 186.463001 44.330151 186.465006 44.330151 186.465006 C 44.330151 186.465006 44.326655 139.392302 44.326655 139.392302 C 52.279668 136.874074 59.92023 133.689638 67.207211 129.897135 C 67.207211 129.897135 100.503363 163.190905 100.503363 163.190905 C 100.503363 163.190905 163.198715 100.49853 163.198715 100.49853 C 163.198715 100.49853 129.902494 67.199524 129.902494 67.199524 C 133.697981 59.912712 136.865609 52.26755 139.385394 44.337613 C 139.385394 44.337613 186.452931 44.339421 186.452931 44.339421 Z M 66.20195 3.496211 C 65.386032 19.175116 59.120499 33.391003 49.282646 44.338817 C 47.713372 46.071762 46.064533 47.727198 44.330687 49.289486 C 33.383883 59.131161 19.14848 65.376374 3.490959 66.194028 C 2.334325 66.245826 1.177486 66.281916 -0.000777074 66.28163 C -1.173804 66.281275 -2.331603 66.244063 -3.489539 66.196381 C -19.152805 65.375021 -33.378889 59.130569 -44.326703 49.292716 C -46.064884 47.72351 -47.715084 46.074603 -49.282676 44.33559 C -59.124352 33.388786 -65.384998 19.174531 -66.202927 3.496067 C -66.254724 2.339433 -66.285579 1.182525 -66.290459 0.0095667 C -66.290104 -1.16346 -66.252962 -2.326495 -66.200249 -3.500207 C -65.384262 -19.173876 -59.123965 -33.389694 -49.280877 -44.337577 C -47.716838 -46.070453 -46.062763 -47.725958 -44.328917 -49.288246 C -33.382114 -59.129921 -19.152015 -65.380301 -3.489189 -66.192789 C -2.332555 -66.244586 -1.175716 -66.280676 0.00254676 -66.28039 C 1.175574 -66.280035 2.333373 -66.242824 3.491309 -66.195141 C 19.149271 -65.378949 33.380659 -59.129329 44.328473 -49.291476 C 46.066654 -47.722271 47.716854 -46.073363 49.284446 -44.33435 C 59.120817 -33.392713 65.386699 -19.178527 66.204628 -3.500063 C 66.2567 -2.322486 66.287554 -1.165578 66.287199 0.00744911 C 66.286844 1.180476 66.254937 2.343442 66.20195 3.496211 Z M 66.20195 3.496211 " stroke="#253237" stroke-width="2" stroke-opacity="1" stroke-miterlimit="4"/><path stroke-linecap="round" transform="matrix(0.745936, 0.00976445, -0.00976445, 0.745936, 154.675921, 606.466439)" fill-opacity="1" fill="#ffffff" fill-rule="nonzero" stroke-linejoin="round" d="M 186.457067 44.336597 C 186.457067 44.336597 186.453631 -44.336501 186.453631 -44.336501 C 186.453631 -44.336501 139.386094 -44.338309 139.386094 -44.338309 C 136.86814 -52.270379 133.683704 -59.910942 129.906909 -67.198128 C 129.906909 -67.198128 163.200679 -100.49428 163.200679 -100.49428 C 163.200679 -100.49428 100.502999 -163.194799 100.502999 -163.194799 C 100.502999 -163.194799 67.209297 -129.893411 67.209297 -129.893411 C 59.922417 -133.694134 52.277049 -136.877469 44.331473 -139.391813 C 44.331473 -139.391813 44.327977 -186.464517 44.327977 -186.464517 C 44.327977 -186.464517 -44.329482 -186.466523 -44.329482 -186.466523 C -44.329482 -186.466523 -44.325985 -139.393818 -44.325985 -139.393818 C -52.278998 -136.87559 -59.919561 -133.691154 -67.206473 -129.893416 C -67.206473 -129.893416 -100.502694 -163.192422 -100.502694 -163.192422 C -100.502694 -163.192422 -163.197977 -100.49481 -163.197977 -100.49481 C -163.197977 -100.49481 -129.901825 -67.20104 -129.901825 -67.20104 C -133.681604 -59.914434 -136.864939 -52.269067 -139.384656 -44.333894 C -139.384656 -44.333894 -186.452193 -44.335702 -186.452193 -44.335702 C -186.452193 -44.335702 -186.453993 44.337465 -186.453993 44.337465 C -186.453993 44.337465 -139.386456 44.339273 -139.386456 44.339273 C -136.863266 52.271274 -133.699773 59.912111 -129.902035 67.199023 C -129.902035 67.199023 -163.201041 100.495243 -163.201041 100.495243 C -163.201041 100.495243 -100.503429 163.190526 -100.503429 163.190526 C -100.503429 163.190526 -67.204423 129.894306 -67.204423 129.894306 C -59.922848 133.689861 -52.27748 136.873196 -44.3266 139.392708 C -44.3266 139.392708 -44.328339 186.465481 -44.328339 186.465481 C -44.328339 186.465481 44.329051 186.46225 44.329051 186.46225 C 44.329051 186.46225 44.330859 139.394713 44.330859 139.394713 C 52.278636 136.876554 59.924434 133.692049 67.206111 129.894379 C 67.206111 129.894379 100.507567 163.193317 100.507567 163.193317 C 100.507567 163.193317 163.20285 100.495705 163.20285 100.495705 C 163.20285 100.495705 129.90663 67.196699 129.90663 67.196699 C 133.702185 59.915123 136.864577 52.27003 139.384294 44.334857 C 139.384294 44.334857 186.457067 44.336597 186.457067 44.336597 Z M 66.206154 3.498622 C 65.385 19.177596 59.119467 33.393482 49.281546 44.336061 C 47.717576 46.074173 46.063433 47.724441 44.329655 49.291965 C 33.382783 59.128405 19.152684 65.378785 3.489927 66.196508 C 2.333293 66.248306 1.176385 66.27916 0.00335852 66.278805 C -1.174904 66.278518 -2.332635 66.246543 -3.490639 66.193624 C -19.148601 65.377432 -33.379989 59.127812 -44.327803 49.28996 C -46.065916 47.72599 -47.716184 46.071846 -49.278472 44.338001 C -59.120148 33.391197 -65.38603 19.177011 -66.203958 3.498547 C -66.25052 2.341844 -66.28661 1.185005 -66.286324 0.00674199 C -66.285969 -1.166285 -66.253993 -2.324015 -66.20128 -3.497728 C -65.385363 -19.176632 -59.119829 -33.392519 -49.281908 -44.335097 C -47.712703 -46.073278 -46.063795 -47.723478 -44.324782 -49.29107 C -33.383145 -59.127441 -19.147811 -65.37789 -3.49029 -66.195545 C -2.32842 -66.247411 -1.171512 -66.278265 0.00151509 -66.27791 C 1.174542 -66.277555 2.332272 -66.24558 3.490277 -66.192661 C 19.153475 -65.376538 33.384795 -59.132153 44.327441 -49.288996 C 46.065553 -47.725027 47.715822 -46.070883 49.283346 -44.337106 C 59.119785 -33.390234 65.385668 -19.176048 66.203596 -3.497583 C 66.255599 -2.325242 66.286454 -1.168334 66.291403 0.00986022 C 66.291048 1.182887 66.253837 2.340686 66.206154 3.498622 Z M 66.206154 3.498622 " stroke="#253237" stroke-width="2" stroke-opacity="1" stroke-miterlimit="4"/><path stroke-linecap="butt" transform="matrix(0.746, 0, 0, 0.746, 440.567863, 439.929878)" fill-opacity="1" fill="#253237" fill-rule="nonzero" stroke-linejoin="miter" d="M 69.17424 63.960627 C 69.17424 63.960627 -69.172911 63.960627 -69.172911 63.960627 C -78.624355 63.960627 -86.279763 56.305219 -86.279763 46.853774 C -86.279763 46.853774 -86.279763 -46.854284 -86.279763 -46.854284 C -86.279763 -56.300492 -78.624355 -63.961137 -69.172911 -63.961137 C -69.172911 -63.961137 69.17424 -63.961137 69.17424 -63.961137 C 78.625685 -63.961137 86.281093 -56.300492 86.281093 -46.854284 C 86.281093 -46.854284 86.281093 46.853774 86.281093 46.853774 C 86.281093 56.305219 78.625685 63.960627 69.17424 63.960627 Z M 69.17424 63.960627 " stroke="#253237" stroke-width="2" stroke-opacity="1" stroke-miterlimit="10"/><path stroke-linecap="butt" transform="matrix(0.746, 0, 0, 0.746, 430.833992, 430.196079)" fill-opacity="1" fill="#ffffff" fill-rule="nonzero" stroke-linejoin="miter" d="M 69.173565 63.959855 C 69.173565 63.959855 -69.173586 63.959855 -69.173586 63.959855 C -78.62503 63.959855 -86.280439 56.304447 -86.280439 46.858239 C -86.280439 46.858239 -86.280439 -46.855056 -86.280439 -46.855056 C -86.280439 -56.301264 -78.62503 -63.961909 -69.173586 -63.961909 C -69.173586 -63.961909 69.173565 -63.961909 69.173565 -63.961909 C 78.625009 -63.961909 86.280417 -56.301264 86.280417 -46.855056 C 86.280417 -46.855056 86.280417 46.858239 86.280417 46.858239 C 86.280417 56.304447 78.625009 63.959855 69.173565 63.959855 Z M 69.173565 63.959855 " stroke="#253237" stroke-width="2" stroke-opacity="1" stroke-miterlimit="10"/><path stroke-linecap="round" transform="matrix(0.746, 0, 0, 0.746, 430.834784, 430.196079)" fill="none" stroke-linejoin="round" d="M 52.824908 36.019186 C 52.824908 36.019186 -53.921431 33.987518 -53.921431 33.987518 C -53.921431 33.987518 -52.827053 -36.016004 -52.827053 -36.016004 C -52.827053 -36.016004 53.924522 -33.984336 53.924522 -33.984336 C 53.924522 -33.984336 52.824908 36.019186 52.824908 36.019186 Z M 52.824908 36.019186 " stroke="#253237" stroke-width="2" stroke-opacity="1" stroke-miterlimit="4"/><path stroke-linecap="round" transform="matrix(0.746, 0, 0, 0.746, 431.242064, 416.76136)" fill="none" stroke-linejoin="round" d="M -53.373004 -18.007007 C -53.373004 -18.007007 -0.549642 18.00797 -0.549642 18.00797 C -0.549642 18.00797 53.373335 -15.97534 53.373335 -15.97534 " stroke="#253237" stroke-width="2" stroke-opacity="1" stroke-miterlimit="4"/><path stroke-linecap="round" transform="matrix(0.746, 0, 0, 0.746, 406.46665, 439.971662)" fill="none" stroke-linejoin="round" d="M -21.25639 20.883527 C -21.25639 20.883527 21.256782 -20.880861 21.256782 -20.880861 " stroke="#253237" stroke-width="2" stroke-opacity="1" stroke-miterlimit="4"/><path stroke-linecap="round" transform="matrix(0.746, 0, 0, 0.746, 454.88211, 440.893718)" fill="none" stroke-linejoin="round" d="M 20.589905 21.679195 C 20.589905 21.679195 -20.593258 -21.677014 -20.593258 -21.677014 " stroke="#253237" stroke-width="2" stroke-opacity="1" stroke-miterlimit="4"/><path stroke-linecap="butt" transform="matrix(0.746, 0, 0, 0.746, 659.1333, 520.040431)" fill-opacity="1" fill="#253237" fill-rule="nonzero" stroke-linejoin="miter" d="M 69.17554 63.964284 C 69.17554 63.964284 -69.176848 63.964284 -69.176848 63.964284 C -78.623056 63.964284 -86.2837 56.303639 -86.2837 46.857431 C -86.2837 46.857431 -86.2837 -46.855864 -86.2837 -46.855864 C -86.2837 -56.302072 -78.623056 -63.962716 -69.176848 -63.962716 C -69.176848 -63.962716 69.17554 -63.962716 69.17554 -63.962716 C 78.621748 -63.962716 86.282392 -56.302072 86.282392 -46.855864 C 86.282392 -46.855864 86.282392 46.857431 86.282392 46.857431 C 86.282392 56.303639 78.621748 63.964284 69.17554 63.964284 Z M 69.17554 63.964284 " stroke="#253237" stroke-width="2" stroke-opacity="1" stroke-miterlimit="10"/><path stroke-linecap="butt" transform="matrix(0.746, 0, 0, 0.746, 649.399429, 511.280144)" fill-opacity="1" fill="#ffffff" fill-rule="nonzero" stroke-linejoin="miter" d="M 69.174864 63.962365 C 69.174864 63.962365 -69.177523 63.962365 -69.177523 63.962365 C -78.623731 63.962365 -86.284376 56.30172 -86.284376 46.855512 C -86.284376 46.855512 -86.284376 -46.857783 -86.284376 -46.857783 C -86.284376 -56.303991 -78.623731 -63.959399 -69.177523 -63.959399 C -69.177523 -63.959399 69.174864 -63.959399 69.174864 -63.959399 C 78.626309 -63.959399 86.281717 -56.303991 86.281717 -46.857783 C 86.281717 -46.857783 86.281717 46.855512 86.281717 46.855512 C 86.281717 56.30172 78.626309 63.962365 69.174864 63.962365 Z M 69.174864 63.962365 " stroke="#253237" stroke-width="2" stroke-opacity="1" stroke-miterlimit="10"/><path fill="#253237" d="M 676.75 518.113281 C 676.75 518.113281 635.039062 518.113281 635.039062 518.113281 C 634.445312 518.113281 633.964844 517.640625 633.964844 517.050781 C 633.964844 516.460938 634.445312 515.984375 635.039062 515.984375 C 635.039062 515.984375 675.847656 515.984375 675.847656 515.984375 C 675.847656 515.984375 680.445312 490.238281 680.445312 490.238281 C 680.445312 490.238281 631.109375 490.238281 631.109375 490.238281 C 630.515625 490.238281 630.035156 489.761719 630.035156 489.175781 C 630.035156 488.585938 630.515625 488.109375 631.109375 488.109375 C 631.109375 488.109375 681.730469 488.109375 681.730469 488.109375 C 682.046875 488.109375 682.347656 488.25 682.554688 488.488281 C 682.757812 488.730469 682.84375 489.050781 682.789062 489.359375 C 682.789062 489.359375 677.808594 517.238281 677.808594 517.238281 C 677.71875 517.746094 677.269531 518.113281 676.75 518.113281 Z M 676.75 518.113281 " fill-opacity="1" fill-rule="nonzero"/><path fill="#253237" d="M 675.367188 527.867188 C 675.367188 527.867188 675.363281 527.867188 675.363281 527.867188 C 675.363281 527.867188 635.640625 527.734375 635.640625 527.734375 C 635.101562 527.730469 634.648438 527.332031 634.578125 526.804688 C 634.578125 526.804688 628.882812 482.816406 628.882812 482.816406 C 628.882812 482.816406 617.070312 482.816406 617.070312 482.816406 C 616.476562 482.816406 615.996094 482.34375 615.996094 481.753906 C 615.996094 481.164062 616.476562 480.6875 617.070312 480.6875 C 617.070312 480.6875 629.828125 480.6875 629.828125 480.6875 C 630.367188 480.6875 630.824219 481.085938 630.894531 481.617188 C 630.894531 481.617188 636.59375 525.605469 636.59375 525.605469 C 636.59375 525.605469 675.371094 525.738281 675.371094 525.738281 C 675.964844 525.742188 676.445312 526.21875 676.441406 526.808594 C 676.441406 527.394531 675.960938 527.867188 675.367188 527.867188 Z M 675.367188 527.867188 " fill-opacity="1" fill-rule="nonzero"/><path fill="#253237" d="M 642.125 541.871094 C 638.808594 541.871094 636.105469 539.195312 636.105469 535.90625 C 636.105469 532.621094 638.808594 529.945312 642.125 529.945312 C 645.445312 529.945312 648.144531 532.621094 648.144531 535.90625 C 648.144531 539.195312 645.445312 541.871094 642.125 541.871094 Z M 642.125 532.074219 C 639.992188 532.074219 638.253906 533.792969 638.253906 535.90625 C 638.253906 538.023438 639.992188 539.742188 642.125 539.742188 C 644.261719 539.742188 645.996094 538.023438 645.996094 535.90625 C 645.996094 533.792969 644.261719 532.074219 642.125 532.074219 Z M 642.125 532.074219 " fill-opacity="1" fill-rule="nonzero"/><path fill="#253237" d="M 669.542969 541.871094 C 666.222656 541.871094 663.523438 539.195312 663.523438 535.90625 C 663.523438 532.621094 666.222656 529.945312 669.542969 529.945312 C 672.859375 529.945312 675.5625 532.621094 675.5625 535.90625 C 675.5625 539.195312 672.859375 541.871094 669.542969 541.871094 Z M 669.542969 532.074219 C 667.40625 532.074219 665.671875 533.792969 665.671875 535.90625 C 665.671875 538.023438 667.40625 539.742188 669.542969 539.742188 C 671.675781 539.742188 673.414062 538.023438 673.414062 535.90625 C 673.414062 533.792969 671.675781 532.074219 669.542969 532.074219 Z M 669.542969 532.074219 " fill-opacity="1" fill-rule="nonzero"/><path fill="#253237" d="M 647.917969 518.113281 C 647.355469 518.113281 646.882812 517.679688 646.847656 517.117188 C 646.847656 517.117188 645.148438 490.140625 645.148438 490.140625 C 645.113281 489.550781 645.5625 489.046875 646.15625 489.011719 C 646.796875 488.988281 647.257812 489.421875 647.296875 490.007812 C 647.296875 490.007812 648.992188 516.984375 648.992188 516.984375 C 649.027344 517.570312 648.578125 518.078125 647.984375 518.113281 C 647.960938 518.113281 647.941406 518.113281 647.917969 518.113281 Z M 647.917969 518.113281 " fill-opacity="1" fill-rule="nonzero"/><path fill="#253237" d="M 663.167969 518.113281 C 663.148438 518.113281 663.128906 518.113281 663.105469 518.113281 C 662.515625 518.082031 662.0625 517.578125 662.09375 516.992188 C 662.09375 516.992188 663.617188 490.015625 663.617188 490.015625 C 663.652344 489.429688 664.105469 488.988281 664.75 489.011719 C 665.34375 489.042969 665.796875 489.542969 665.761719 490.132812 C 665.761719 490.132812 664.242188 517.109375 664.242188 517.109375 C 664.210938 517.675781 663.734375 518.113281 663.167969 518.113281 Z M 663.167969 518.113281 " fill-opacity="1" fill-rule="nonzero"/><path fill="#253237" d="M 632.652344 504.625 C 632.0625 504.625 631.585938 504.15625 631.578125 503.574219 C 631.570312 502.984375 632.046875 502.503906 632.640625 502.496094 C 632.640625 502.496094 679.226562 502.046875 679.226562 502.046875 C 679.914062 502.035156 680.308594 502.515625 680.3125 503.101562 C 680.320312 503.691406 679.84375 504.171875 679.25 504.175781 C 679.25 504.175781 632.664062 504.625 632.664062 504.625 C 632.664062 504.625 632.652344 504.625 632.652344 504.625 Z M 632.652344 504.625 " fill-opacity="1" fill-rule="nonzero"/><path stroke-linecap="butt" transform="matrix(0.746, 0, 0, 0.746, 813.546407, 683.709641)" fill-opacity="1" fill="#253237" fill-rule="nonzero" stroke-linejoin="miter" d="M 69.176821 63.96262 C 69.176821 63.96262 -69.175567 63.96262 -69.175567 63.96262 C -78.621775 63.96262 -86.282419 56.301976 -86.282419 46.855768 C -86.282419 46.855768 -86.282419 -46.857527 -86.282419 -46.857527 C -86.282419 -56.303735 -78.621775 -63.964379 -69.175567 -63.964379 C -69.175567 -63.964379 69.176821 -63.964379 69.176821 -63.964379 C 78.623029 -63.964379 86.283673 -56.303735 86.283673 -46.857527 C 86.283673 -46.857527 86.283673 46.855768 86.283673 46.855768 C 86.283673 56.301976 78.623029 63.96262 69.176821 63.96262 Z M 69.176821 63.96262 " stroke="#253237" stroke-width="2" stroke-opacity="1" stroke-miterlimit="10"/><path stroke-linecap="butt" transform="matrix(0.746, 0, 0, 0.746, 803.81256, 673.975817)" fill-opacity="1" fill="#ffffff" fill-rule="nonzero" stroke-linejoin="miter" d="M 69.176114 63.96188 C 69.176114 63.96188 -69.176274 63.96188 -69.176274 63.96188 C -78.622482 63.96188 -86.283126 56.301236 -86.283126 46.855028 C -86.283126 46.855028 -86.283126 -46.858267 -86.283126 -46.858267 C -86.283126 -56.304475 -78.622482 -63.959883 -69.176274 -63.959883 C -69.176274 -63.959883 69.176114 -63.959883 69.176114 -63.959883 C 78.622322 -63.959883 86.282966 -56.304475 86.282966 -46.858267 C 86.282966 -46.858267 86.282966 46.855028 86.282966 46.855028 C 86.282966 56.301236 78.622322 63.96188 69.176114 63.96188 Z M 69.176114 63.96188 " stroke="#253237" stroke-width="2" stroke-opacity="1" stroke-miterlimit="10"/><path stroke-linecap="round" transform="matrix(0.746, 0, 0, 0.746, 803.81256, 673.975817)" fill="none" stroke-linejoin="round" d="M 41.308753 0.000998665 C 41.308753 22.815371 22.814292 41.309832 -0.0000802832 41.309832 C -22.814453 41.309832 -41.308913 22.815371 -41.308913 0.000998665 C -41.308913 -22.813374 -22.814453 -41.307834 -0.0000802832 -41.307834 C 22.814292 -41.307834 41.308753 -22.813374 41.308753 0.000998665 Z M 41.308753 0.000998665 " stroke="#253237" stroke-width="2" stroke-opacity="1" stroke-miterlimit="4"/><path stroke-linecap="round" transform="matrix(0.746, 0, 0, 0.746, 803.723808, 673.975817)" fill="none" stroke-linejoin="round" d="M 0.443538 -41.307834 C 29.31626 -41.307834 29.31626 41.309832 0.443538 41.309832 C -29.314112 41.309832 -29.314112 -41.307834 0.443538 -41.307834 Z M 0.443538 -41.307834 " stroke="#253237" stroke-width="2" stroke-opacity="1" stroke-miterlimit="4"/><path stroke-linecap="round" transform="matrix(0.746, 0, 0, 0.746, 735.716214, 622.530166)" fill="none" stroke-linejoin="round" d="M 91.606483 27.654127 C 91.606483 27.654127 91.606483 110.271793 91.606483 110.271793 " stroke="#253237" stroke-width="2" stroke-opacity="1" stroke-miterlimit="4"/><path stroke-linecap="round" transform="matrix(0.746, 0, 0, 0.746, 735.716214, 622.530166)" fill="none" stroke-linejoin="round" d="M 49.973002 68.96296 C 49.973002 68.96296 132.590668 68.96296 132.590668 68.96296 " stroke="#253237" stroke-width="2" stroke-opacity="1" stroke-miterlimit="4"/><path stroke-linecap="round" transform="matrix(0.746, -0.000152811, 0.000152811, 0.746, 238.014375, 901.956166)" fill-opacity="1" fill="#fb921c" fill-rule="nonzero" stroke-linejoin="round" d="M 214.790875 -41.017571 C 214.790875 -41.017571 208.012452 176.694142 208.012452 176.694142 C 208.012452 176.694142 206.359248 220.72549 206.359248 220.72549 C 206.359248 220.72549 206.338136 221.537106 206.338136 221.537106 C 206.338136 221.537106 206.16027 220.72545 206.16027 220.72545 C 206.16027 220.72545 -158.775767 196.762891 -158.775767 196.762891 C -158.775767 196.762891 -175.402009 176.694147 -175.402009 176.694147 C -175.402009 176.694147 -205.539698 -64.143203 -205.539698 -64.143203 C -216.031696 -147.967358 -145.541841 -221.532805 -54.750377 -221.535152 C -54.750377 -221.535152 26.092198 -221.534301 26.092198 -221.534301 C 89.607998 -221.536999 145.629986 -192.422406 179.818869 -147.933398 C 202.899375 -117.903971 216.029555 -80.854762 214.790875 -41.017571 Z M 214.790875 -41.017571 " stroke="#253237" stroke-width="2" stroke-opacity="1" stroke-miterlimit="4"/><path stroke-linecap="round" transform="matrix(0.746, -0.000152811, 0.000152811, 0.746, 394.59652, 921.916844)" fill-opacity="1" fill="#137aa8" fill-rule="nonzero" stroke-linejoin="round" d="M 61.199827 193.92312 C 61.199827 193.92312 -3.530785 193.92557 -3.530785 193.92557 C -3.530785 193.92557 -3.551896 194.737185 -3.551896 194.737185 C -3.551896 194.737185 -3.729762 193.925529 -3.729762 193.925529 C -3.729762 193.925529 -14.942043 149.896782 -14.942043 149.896782 C -14.942043 149.896782 -59.281613 -59.75633 -59.281613 -59.75633 C -61.199994 -101.552528 -49.979706 -147.744491 -30.071164 -174.733318 C -23.272613 -183.952975 -15.458687 -190.936541 -6.807612 -194.736292 C 13.187843 -134.766579 33.549952 1.322681 53.972339 149.895189 C 56.377426 167.426671 58.789557 176.135061 61.199827 193.92312 Z M 61.199827 193.92312 " stroke="#253237" stroke-width="2" stroke-opacity="1" stroke-miterlimit="4"/><path stroke-linecap="round" transform="matrix(0.746, -0.000152811, 0.000152811, 0.746, 270.139217, 897.507094)" fill-opacity="1" fill="#137aa8" fill-rule="nonzero" stroke-linejoin="round" d="M 161.21231 -162.028174 C 130.348131 -179.397925 100.216542 -194.390266 71.534433 -204.68015 C 71.534433 -204.68015 -61.470573 -210.357316 -61.470573 -210.357316 C -96.12714 -195.629588 -129.668964 -178.068816 -161.21158 -155.423228 C -161.21158 -155.423228 -79.494448 201.952356 -79.494448 201.952356 C 9.923395 210.35392 81.189261 208.373504 125.585805 191.019169 C 125.585805 191.019169 161.21231 -162.028174 161.21231 -162.028174 Z M 161.21231 -162.028174 " stroke="#253237" stroke-width="2" stroke-opacity="1" stroke-miterlimit="4"/><path stroke-linecap="butt" transform="matrix(0.746, -0.000152811, 0.000152811, 0.746, 269.180038, 730.731469)" fill-opacity="1" fill="#ffffff" fill-rule="nonzero" stroke-linejoin="miter" d="M -46.432373 -66.87262 C -46.432373 -66.87262 -39.784433 -5.46567 -39.784433 -5.46567 C -39.784433 -5.46567 24.30301 66.870642 24.30301 66.870642 C 24.30301 66.870642 46.430275 21.398281 46.430275 21.398281 C 46.430275 21.398281 44.133254 -38.002291 44.133254 -38.002291 C 44.133254 -38.002291 -46.432373 -66.87262 -46.432373 -66.87262 Z M -46.432373 -66.87262 " stroke="#253237" stroke-width="2" stroke-opacity="1" stroke-miterlimit="10"/><path stroke-linecap="round" transform="matrix(0.746, -0.000152811, 0.000152811, 0.746, 249.244687, 752.796995)" fill-opacity="1" fill="#137aa8" fill-rule="nonzero" stroke-linejoin="round" d="M 51.032044 37.297681 C 51.032044 37.297681 18.701501 20.969644 18.701501 20.969644 C 18.701501 20.969644 1.976829 46.854274 1.976829 46.854274 C 1.976829 46.854274 -51.032083 -18.698816 -51.032083 -18.698816 C -51.032083 -18.698816 -27.164794 -46.357074 -27.164794 -46.357074 C -27.164794 -46.357074 -14.335861 -46.857126 -14.335861 -46.857126 C -14.335861 -46.857126 -13.055399 -35.038632 -13.055399 -35.038632 C -13.055399 -35.038632 51.032044 37.297681 51.032044 37.297681 Z M 51.032044 37.297681 " stroke="#253237" stroke-width="2" stroke-opacity="1" stroke-miterlimit="4"/><path stroke-linecap="round" transform="matrix(0.746, -0.000152811, 0.000152811, 0.746, 305.394398, 758.895274)" fill-opacity="1" fill="#137aa8" fill-rule="nonzero" stroke-linejoin="round" d="M -24.233946 29.10763 C -24.233946 29.10763 -2.777968 14.30389 -2.777968 14.30389 C -2.777968 14.30389 22.524016 37.966483 22.524016 37.966483 C 22.524016 37.966483 24.232208 -18.883212 24.232208 -18.883212 C 24.232208 -18.883212 -2.940058 -37.964463 -2.940058 -37.964463 C -2.940058 -37.964463 -2.106681 -16.364731 -2.106681 -16.364731 C -2.106681 -16.364731 -24.233946 29.10763 -24.233946 29.10763 Z M -24.233946 29.10763 " stroke="#253237" stroke-width="2" stroke-opacity="1" stroke-miterlimit="4"/><path stroke-linecap="round" transform="matrix(0.746, -0.000152811, 0.000152811, 0.746, 284.098972, 787.43336)" fill-opacity="1" fill="#fb921c" fill-rule="nonzero" stroke-linejoin="round" d="M 20.528527 -20.322632 C 23.033294 -3.723183 21.752756 10.393504 16.561261 21.933151 C 16.561261 21.933151 -9.986773 22.959256 -9.986773 22.959256 C -18.10062 11.479718 -21.537516 -4.753383 -23.036592 -22.960157 C -23.036592 -22.960157 4.320021 -9.141306 4.320021 -9.141306 C 4.320021 -9.141306 20.528527 -20.322632 20.528527 -20.322632 Z M 20.528527 -20.322632 " stroke="#253237" stroke-width="2" stroke-opacity="1" stroke-miterlimit="4"/><path stroke-linecap="round" transform="matrix(0.746, -0.000152811, 0.000152811, 0.746, 292.07648, 917.53274)" fill-opacity="1" fill="#fb921c" fill-rule="nonzero" stroke-linejoin="round" d="M 5.90328 -152.464889 C 5.90328 -152.464889 30.765744 -28.140578 30.765744 -28.140578 C 27.408215 28.295114 19.04904 89.714699 9.354347 152.464019 C -6.625665 96.233816 -21.495065 37.443311 -30.764247 -34.326729 C -30.764247 -34.326729 -20.644754 -151.438785 -20.644754 -151.438785 C -20.644754 -151.438785 5.90328 -152.464889 5.90328 -152.464889 Z M 5.90328 -152.464889 " stroke="#253237" stroke-width="2" stroke-opacity="1" stroke-miterlimit="4"/><path stroke-linecap="round" transform="matrix(0.746, -0.000152811, 0.000152811, 0.746, 137.537851, 920.359652)" fill-opacity="1" fill="#137aa8" fill-rule="nonzero" stroke-linejoin="round" d="M 66.806596 -29.482524 C 66.806596 -29.482524 20.394973 136.952877 20.394973 136.952877 C 5.823011 185.432397 -72.925447 161.75362 -58.353486 113.279336 C -37.118574 1.809006 -11.466957 -96.501704 17.324492 -185.428399 C 55.715569 -154.201969 72.92711 -102.898832 66.806596 -29.482524 Z M 66.806596 -29.482524 " stroke="#253237" stroke-width="2" stroke-opacity="1" stroke-miterlimit="4"/><path stroke-linecap="round" transform="matrix(0.746, -0.000152811, 0.000152811, 0.746, 268.873035, 706.945287)" fill-opacity="1" fill="#253237" fill-rule="nonzero" stroke-linejoin="round" d="M 42.96068 1.014196 C 42.96068 1.014196 43.773224 22.064117 43.773224 22.064117 C -1.903189 24.709543 -25.446825 6.095062 -43.772651 -24.708357 C -14.018975 -5.312402 12.799501 2.662675 42.96068 1.014196 Z M 42.96068 1.014196 " stroke="#253237" stroke-width="2" stroke-opacity="1" stroke-miterlimit="4"/><path stroke-linecap="butt" transform="matrix(0.746, -0.000152811, 0.000152811, 0.746, 299.582808, 895.946446)" fill-opacity="1" fill="#ffffff" fill-rule="nonzero" stroke-linejoin="miter" d="M -57.684204 2.699045 C -46.76331 -13.400208 -32.3345 -27.660817 -16.266919 -41.057108 C -14.088264 -42.873643 -11.490805 -44.218829 -8.678849 -44.637154 C -4.117929 -45.322169 -0.913712 -43.504532 1.169522 -39.613566 C 4.221093 -33.915893 2.811088 -26.831526 -1.713983 -22.21931 C -1.713983 -22.21931 -17.761226 -5.859294 -17.761226 -5.859294 C -9.032042 -7.533108 -0.925714 -10.474224 6.73572 -14.32654 C 16.622791 -19.293722 24.081019 -28.073398 27.88467 -38.461353 C 27.921345 -38.566071 27.963257 -38.670787 27.999932 -38.775505 C 31.567818 -48.514213 44.988537 -49.448753 49.856381 -40.294779 C 50.421678 -39.226466 50.950312 -38.116272 51.442283 -36.958958 C 57.686117 -22.212379 54.645595 -5.158512 44.610368 7.327906 C 36.340211 17.615457 25.268929 26.572425 9.920041 33.491613 C 9.920041 33.491613 -37.062927 49.447337 -37.062927 49.447337 C -37.062927 49.447337 -57.684204 2.699045 -57.684204 2.699045 Z M -57.684204 2.699045 " stroke="#253237" stroke-width="2" stroke-opacity="1" stroke-miterlimit="10"/><path fill="#137aa8" d="M 140.34375 1039.152344 C 111.367188 1061.933594 73.453125 1013.707031 102.433594 990.925781 C 102.433594 990.925781 258.066406 890.265625 258.066406 890.265625 C 258.066406 890.265625 280.671875 933.332031 280.671875 933.332031 C 280.671875 933.332031 140.34375 1039.152344 140.34375 1039.152344 Z M 140.34375 1039.152344 " fill-opacity="1" fill-rule="nonzero"/><path stroke-linecap="butt" transform="matrix(0.746, -0.000152811, 0.000152811, 0.746, 210.503557, 964.706392)" fill="none" stroke-linejoin="miter" d="M 63.777573 -99.773433 C 63.777573 -99.773433 94.067967 -42.037492 94.067967 -42.037492 C 94.067967 -42.037492 -94.068385 99.774177 -94.068385 99.774177 " stroke="#253237" stroke-width="2" stroke-opacity="1" stroke-miterlimit="10"/><path stroke-linecap="round" transform="matrix(0.746, -0.000152811, 0.000152811, 0.746, 111.750276, 1026.761843)" fill="none" stroke-linejoin="round" d="M -21.439604 -41.376226 C -38.325168 3.081375 0.687578 41.371643 38.325629 16.617092 " stroke="#253237" stroke-width="2" stroke-opacity="1" stroke-miterlimit="4"/><path stroke-linecap="round" transform="matrix(0.746, -0.000152811, 0.000152811, 0.746, 195.987559, 930.416491)" fill="none" stroke-linejoin="round" d="M -83.224652 53.803184 C -83.224652 53.803184 83.226589 -53.804459 83.226589 -53.804459 " stroke="#253237" stroke-width="2" stroke-opacity="1" stroke-miterlimit="4"/><path stroke-linecap="round" transform="matrix(0.746, -0.000152811, 0.000152811, 0.746, 341.209797, 590.990785)" fill-opacity="1" fill="#253237" fill-rule="nonzero" stroke-linejoin="round" d="M 7.627754 -36.472325 C 16.158031 -12.928365 12.215374 11.440368 -1.723434 36.472059 C -1.723434 36.472059 -16.156274 -31.843109 -16.156274 -31.843109 C -16.156274 -31.843109 7.627754 -36.472325 7.627754 -36.472325 Z M 7.627754 -36.472325 " stroke="#253237" stroke-width="2" stroke-opacity="1" stroke-miterlimit="4"/><path stroke-linecap="butt" transform="matrix(0.746, -0.000152811, 0.000152811, 0.746, 284.089245, 623.561758)" fill-opacity="1" fill="#ffffff" fill-rule="nonzero" stroke-linejoin="miter" d="M -73.728426 -12.246005 C -73.728426 -12.246005 -71.318442 32.503543 -71.318442 32.503543 C -71.318442 32.503543 -65.417694 86.134498 -65.417694 86.134498 C -28.899634 109.736553 9.191847 120.913293 50.146935 109.585185 C 58.912926 107.162594 65.768594 100.294028 68.21572 91.534271 C 79.015557 52.913851 78.36139 0.00657389 66.577785 -66.789537 C 32.710288 -120.913192 -37.357316 -114.827305 -79.016206 -67.473892 C -79.016206 -67.473892 -73.728426 -12.246005 -73.728426 -12.246005 Z M -73.728426 -12.246005 " stroke="#253237" stroke-width="2" stroke-opacity="1" stroke-miterlimit="10"/><path stroke-linecap="butt" transform="matrix(0.746, -0.000152811, 0.000152811, 0.746, 217.733117, 626.530246)" fill-opacity="1" fill="#ffffff" fill-rule="nonzero" stroke-linejoin="miter" d="M 15.221569 -16.206988 C 5.966747 -30.268234 -17.81846 -19.884372 -9.534353 3.978949 C -0.924783 23.862781 8.37382 28.692515 17.819705 30.270563 C 17.819705 30.270563 15.221569 -16.206988 15.221569 -16.206988 Z M 15.221569 -16.206988 " stroke="#253237" stroke-width="2" stroke-opacity="1" stroke-miterlimit="10"/><path stroke-linecap="round" transform="matrix(0.746, -0.000152811, 0.000152811, 0.746, 226.86797, 590.373433)" fill-opacity="1" fill="#253237" fill-rule="nonzero" stroke-linejoin="round" d="M 20.539142 -43.088089 C 39.143395 -16.704014 27.041839 37.185066 4.533362 52.040953 C 4.533362 52.040953 2.966537 32.258053 2.966537 32.258053 C -3.106321 26.402673 -9.535748 22.997789 -17.370443 29.122605 C -35.81638 -3.262188 -39.141014 -30.727038 -23.574491 -52.040652 C -23.574491 -52.040652 20.539142 -43.088089 20.539142 -43.088089 Z M 20.539142 -43.088089 " stroke="#253237" stroke-width="2" stroke-opacity="1" stroke-miterlimit="4"/><path stroke-linecap="round" transform="matrix(0.746, -0.000152811, 0.000152811, 0.746, 286.01739, 542.058557)" fill-opacity="1" fill="#253237" fill-rule="nonzero" stroke-linejoin="round" d="M 74.943285 -46.744376 C 102.876025 -8.037477 90.396926 22.885301 65.49268 51.412566 C 42.62011 28.77154 3.652172 27.365478 -49.97601 45.288673 C -49.97601 45.288673 -102.876479 12.708317 -102.876479 12.708317 C -100.107379 -34.118964 -49.170763 -51.409123 -8.620384 -29.769839 C 34.910547 -13.607068 63.370592 -18.423831 74.943285 -46.744376 Z M 74.943285 -46.744376 " stroke="#253237" stroke-width="2" stroke-opacity="1" stroke-miterlimit="4"/><path stroke-linecap="butt" transform="matrix(0.746, -0.000152811, 0.000152811, 0.746, 245.645187, 654.174307)" fill="none" stroke-linejoin="miter" d="M -25.250245 -24.906836 C -15.012993 -1.14784 -0.549144 18.035533 25.253723 24.910788 " stroke="#253237" stroke-width="4" stroke-opacity="1" stroke-miterlimit="10"/><path stroke-linecap="butt" transform="matrix(0.746, -0.000152811, 0.000152811, 0.746, 265.81119, 672.944682)" fill-opacity="1" fill="#253237" fill-rule="nonzero" stroke-linejoin="miter" d="M 2.330408 7.237831 C 2.330408 7.237831 -6.392757 5.094414 -6.392757 5.094414 C -9.105002 4.428854 -10.680616 1.988436 -9.910405 -0.35725 C -9.910405 -0.35725 -8.642444 -4.200403 -8.642444 -4.200403 C -7.866997 -6.546087 -5.044376 -7.906936 -2.326895 -7.241375 C -2.326895 -7.241375 6.391034 -5.09796 6.391034 -5.09796 C 9.108516 -4.432398 10.678892 -1.986745 9.908682 0.353705 C 9.908682 0.353705 8.64072 4.202094 8.64072 4.202094 C 7.87051 6.547779 5.042653 7.903391 2.330408 7.237831 Z M 2.330408 7.237831 " stroke="#253237" stroke-width="2" stroke-opacity="1" stroke-miterlimit="10"/><path stroke-linecap="butt" transform="matrix(0.746, -0.000152811, 0.000152811, 0.746, 226.12175, 629.398413)" fill-opacity="1" fill="#fb921c" fill-rule="nonzero" stroke-linejoin="miter" d="M 29.981929 0.000937613 C 29.983773 16.557983 16.560497 29.980997 -0.00178519 29.982841 C -16.55883 29.979449 -29.981845 16.561409 -29.983688 -0.000873268 C -29.980297 -16.557918 -16.55702 -29.980932 0.0000256918 -29.982776 C 16.55707 -29.979385 29.980085 -16.561344 29.981929 0.000937613 Z M 29.981929 0.000937613 " stroke="#253237" stroke-width="2" stroke-opacity="1" stroke-miterlimit="10"/><path stroke-linecap="butt" transform="matrix(0.746, -0.000152811, 0.000152811, 0.746, 254.468496, 575.87453)" fill-opacity="1" fill="#fb921c" fill-rule="nonzero" stroke-linejoin="miter" d="M -50.674392 68.077302 C -44.086473 13.495907 -28.550334 -38.428874 24.757874 -79.171744 C 40.524735 -81.56672 43.597881 -78.947962 52.555114 -69.164798 C -7.253132 -44.990778 -22.915238 8.38442 -32.468621 71.46889 C -34.350506 81.569244 -52.556277 78.172421 -50.674392 68.077302 Z M -50.674392 68.077302 " stroke="#253237" stroke-width="2" stroke-opacity="1" stroke-miterlimit="10"/><path stroke-linecap="round" transform="matrix(0.746, -0.000152811, 0.000152811, 0.746, 316.277425, 633.196437)" fill="none" stroke-linejoin="round" d="M -5.894414 -33.965079 C -3.721248 -8.982451 2.505594 12.026689 12.765164 29.08328 C 3.653324 32.757266 -4.813951 33.965107 -12.762438 33.225166 " stroke="#253237" stroke-width="2" stroke-opacity="1" stroke-miterlimit="4"/><path stroke-linecap="round" transform="matrix(0.746, -0.000152811, 0.000152811, 0.746, 276.276298, 601.240008)" fill="none" stroke-linejoin="round" d="M 12.176733 -5.042336 C 1.159898 -6.26464 -6.957072 -2.496198 -12.17418 6.268228 " stroke="#253237" stroke-width="2" stroke-opacity="1" stroke-miterlimit="4"/><path stroke-linecap="round" transform="matrix(0.746, -0.000152811, 0.000152811, 0.746, 326.729818, 604.918631)" fill="none" stroke-linejoin="round" d="M 9.870579 3.116707 C 4.729415 -0.989572 -1.39657 -3.116747 -9.874611 -0.479411 " stroke="#253237" stroke-width="2" stroke-opacity="1" stroke-miterlimit="4"/><path stroke-linecap="round" transform="matrix(0.746, -0.000152811, 0.000152811, 0.746, 282.922936, 625.523254)" fill-opacity="1" fill="#253237" fill-rule="nonzero" stroke-linejoin="round" d="M -5.023033 0.192959 C -4.809475 5.701545 -2.391221 10.079552 0.384017 9.975395 C 3.159256 9.866002 5.238982 5.316121 5.025424 -0.192466 C 4.811867 -5.706288 2.388376 -10.084296 -0.386862 -9.974903 C -3.162101 -9.86551 -5.236591 -5.315627 -5.023033 0.192959 Z M -5.023033 0.192959 " stroke="#253237" stroke-width="2" stroke-opacity="1" stroke-miterlimit="4"/><path stroke-linecap="round" transform="matrix(0.746, -0.000152811, 0.000152811, 0.746, 327.253498, 619.369318)" fill-opacity="1" fill="#253237" fill-rule="nonzero" stroke-linejoin="round" d="M -3.973803 0.153418 C -3.801924 4.630453 -1.880947 8.191501 0.313062 8.10817 C 2.507072 8.019603 4.146777 4.323142 3.974898 -0.153893 C 3.803018 -4.630929 1.882042 -8.191977 -0.311968 -8.10341 C -2.511213 -8.02008 -4.145683 -4.323618 -3.973803 0.153418 Z M -3.973803 0.153418 " stroke="#253237" stroke-width="2" stroke-opacity="1" stroke-miterlimit="4"/><path stroke-linecap="round" transform="matrix(0.746, -0.000152811, 0.000152811, 0.746, 292.187603, 680.629073)" fill="none" stroke-linejoin="round" d="M 14.817582 4.338433 C 3.894861 3.791625 -6.221105 1.433237 -14.817857 -4.33888 " stroke="#253237" stroke-width="2" stroke-opacity="1" stroke-miterlimit="4"/><path stroke-linecap="round" transform="matrix(0.746, 0, 0, 0.746, 843.254468, 954.248105)" fill-opacity="1" fill="#ffffff" fill-rule="nonzero" stroke-linejoin="round" d="M 7.717489 -86.52661 C 8.162571 -89.558403 10.623612 -91.883301 13.671114 -92.155587 C 17.949136 -92.54307 21.457428 -88.809618 20.808132 -84.563014 C 20.808132 -84.563014 -8.205969 92.542913 -8.205969 92.542913 C -8.205969 92.542913 -21.458936 92.542913 -21.458936 92.542913 C -21.458936 92.542913 7.717489 -86.52661 7.717489 -86.52661 Z M 7.717489 -86.52661 " stroke="#253237" stroke-width="2" stroke-opacity="1" stroke-miterlimit="4"/><path stroke-linecap="round" transform="matrix(0.746, 0, 0, 0.746, 810.482591, 846.810602)" fill-opacity="1" fill="#ffffff" fill-rule="nonzero" stroke-linejoin="round" d="M 61.99444 59.664458 C 61.99444 59.664458 -57.622619 -71.739416 -57.622619 -71.739416 C -57.622619 -71.739416 -58.491838 -70.299446 -58.491838 -70.299446 C -58.491838 -70.299446 -64.293611 -60.701386 -64.293611 -60.701386 C -64.293611 -60.701386 52.181694 68.550387 52.181694 68.550387 C 55.056399 71.744503 60.16175 71.393674 62.575664 67.838256 C 64.293157 65.303907 64.052289 61.926521 61.99444 59.664458 Z M 61.99444 59.664458 " stroke="#253237" stroke-width="2" stroke-opacity="1" stroke-miterlimit="4"/><path stroke-linecap="round" transform="matrix(0.746, 0, 0, 0.746, 828.699958, 1028.475827)" fill-opacity="1" fill="#137aa8" fill-rule="nonzero" stroke-linejoin="round" d="M -54.452829 8.666992 C -54.452829 8.666992 54.450848 8.666992 54.450848 8.666992 C 54.450848 8.666992 40.553821 -8.665019 4.29274 -8.665019 C -29.481119 -8.665019 -49.598819 1.268161 -54.452829 8.666992 Z M -54.452829 8.666992 " stroke="#253237" stroke-width="2" stroke-opacity="1" stroke-miterlimit="4"/><path stroke-linecap="round" transform="matrix(0.746, 0, 0, 0.746, 767.395803, 772.691745)" fill-opacity="1" fill="#137aa8" fill-rule="nonzero" stroke-linejoin="round" d="M 0.820388 6.775263 C 0.820388 6.775263 6.355111 -1.529441 6.355111 -1.529441 C 6.355111 -1.529441 -0.478204 -6.776171 -0.478204 -6.776171 C -0.478204 -6.776171 -6.358521 1.580896 -6.358521 1.580896 C -6.358521 1.580896 0.820388 6.775263 0.820388 6.775263 Z M 0.820388 6.775263 " stroke="#253237" stroke-width="2" stroke-opacity="1" stroke-miterlimit="4"/><path stroke-linecap="round" transform="matrix(0.746, 0, 0, 0.746, 736.80159, 810.85191)" fill-opacity="1" fill="#ffffff" fill-rule="nonzero" stroke-linejoin="round" d="M 51.209512 -39.366647 C 51.209512 -39.366647 27.368833 -56.646296 27.368833 -56.646296 C 27.368833 -56.646296 4.481152 -29.124528 4.481152 -29.124528 C -35.204441 -22.725822 -51.206443 2.240653 -51.206443 2.240653 C -51.206443 2.240653 19.844331 56.650601 19.844331 56.650601 C 44.166746 29.762421 32.641744 -8.64029 32.641744 -8.64029 C 32.641744 -8.64029 51.209512 -39.366647 51.209512 -39.366647 Z M 51.209512 -39.366647 " stroke="#253237" stroke-width="2" stroke-opacity="1" stroke-miterlimit="4"/><path stroke-linecap="round" transform="matrix(0.746, 0, 0, 0.746, 750.648893, 796.764415)" fill="none" stroke-linejoin="round" d="M -14.080906 -10.240497 C -14.080906 -10.240497 14.079686 10.243741 14.079686 10.243741 " stroke="#253237" stroke-width="2" stroke-opacity="1" stroke-miterlimit="4"/><path stroke-linecap="round" transform="matrix(0.746, 0, 0, 0.746, 365.886523, 1028.290211)" fill-opacity="1" fill="#ffffff" fill-rule="nonzero" stroke-linejoin="round" d="M 110.307257 11.031255 C 110.307257 11.031255 -110.306731 11.031255 -110.306731 11.031255 C -110.306731 11.031255 -110.306731 -11.029097 -110.306731 -11.029097 C -110.306731 -11.029097 110.307257 -11.029097 110.307257 -11.029097 C 110.307257 -11.029097 110.307257 11.031255 110.307257 11.031255 Z M 110.307257 11.031255 " stroke="#253237" stroke-width="2" stroke-opacity="1" stroke-miterlimit="4"/><path stroke-linecap="round" transform="matrix(0.746, 0, 0, 0.746, 504.152498, 854.60405)" fill-opacity="1" fill="#ffffff" fill-rule="nonzero" stroke-linejoin="round" d="M -245.098933 160.927794 C -245.098933 160.927794 245.09852 160.927794 245.09852 160.927794 C 245.09852 160.927794 245.09852 -160.929227 245.09852 -160.929227 C 245.09852 -160.929227 -245.098933 -160.929227 -245.098933 -160.929227 C -245.098933 -160.929227 -245.098933 160.927794 -245.098933 160.927794 Z M -245.098933 160.927794 " stroke="#253237" stroke-width="2" stroke-opacity="1" stroke-miterlimit="4"/><path stroke-linecap="round" transform="matrix(0.746, 0, 0, 0.746, 314.781791, 854.604866)" fill-opacity="1" fill="#ffffff" fill-rule="nonzero" stroke-linejoin="round" d="M 8.74906 -160.93032 C 8.74906 -160.93032 -8.750511 -160.93032 -8.750511 -160.93032 C -8.750511 -160.93032 -8.750511 160.931937 -8.750511 160.931937 C -8.750511 160.931937 8.74906 160.931937 8.74906 160.931937 C 8.74906 160.931937 8.74906 -160.93032 8.74906 -160.93032 Z M 8.74906 -160.93032 " stroke="#253237" stroke-width="2" stroke-opacity="1" stroke-miterlimit="4"/><path stroke-linecap="round" transform="matrix(0.746, 0, 0, 0.746, 532.857095, 969.843232)" fill-opacity="1" fill="#ffffff" fill-rule="nonzero" stroke-linejoin="round" d="M -86.850742 -83.821311 C -86.850742 -83.821311 30.55138 -83.821311 30.55138 -83.821311 C 30.55138 -83.821311 86.846381 83.8227 86.846381 83.8227 C 86.846381 83.8227 -56.642775 83.8227 -56.642775 83.8227 C -56.642775 83.8227 -86.850742 -83.821311 -86.850742 -83.821311 Z M -86.850742 -83.821311 " stroke="#253237" stroke-width="2" stroke-opacity="1" stroke-miterlimit="4"/><path stroke-linecap="round" transform="matrix(0.746, 0, 0, 0.746, 472.293053, 969.843232)" fill-opacity="1" fill="#ffffff" fill-rule="nonzero" stroke-linejoin="round" d="M -5.665743 -83.821311 C -5.665743 -83.821311 -24.54245 -83.821311 -24.54245 -83.821311 C -24.54245 -83.821311 2.230533 83.8227 2.230533 83.8227 C 2.230533 83.8227 24.542225 83.8227 24.542225 83.8227 C 24.542225 83.8227 -5.665743 -83.821311 -5.665743 -83.821311 Z M -5.665743 -83.821311 " stroke="#253237" stroke-width="2" stroke-opacity="1" stroke-miterlimit="4"/><path stroke-linecap="round" transform="matrix(0.746, 0, 0, 0.746, 491.859123, 1053.559353)" fill-opacity="1" fill="#253237" fill-rule="nonzero" stroke-linejoin="round" d="M -609.620434 26.515389 C -609.620434 26.515389 609.615873 26.515389 609.615873 26.515389 C 609.615873 26.515389 609.615873 -26.512187 609.615873 -26.512187 C 609.615873 -26.512187 -609.620434 -26.512187 -609.620434 -26.512187 C -609.620434 -26.512187 -609.620434 26.515389 -609.620434 26.515389 Z M -609.620434 26.515389 " stroke="#253237" stroke-width="2" stroke-opacity="1" stroke-miterlimit="4"/><path stroke-linecap="round" transform="matrix(0.746, 0, 0, 0.746, 888.972304, 1053.557241)" fill-opacity="1" fill="#253237" fill-rule="nonzero" stroke-linejoin="round" d="M 77.292864 26.51822 C 77.292864 26.51822 -77.297157 26.51822 -77.297157 26.51822 C -77.297157 26.51822 -77.297157 -26.519829 -77.297157 -26.519829 C -77.297157 -26.519829 77.292864 -26.519829 77.292864 -26.519829 C 77.292864 -26.519829 77.292864 26.51822 77.292864 26.51822 Z M 77.292864 26.51822 " stroke="#253237" stroke-width="2" stroke-opacity="1" stroke-miterlimit="4"/><g clip-path="url(#bb752db2ec)"><g clip-path="url(#4e8a227eb8)"><path fill="#ffffff" d="M 593 481.332031 L 707.359375 481.332031 L 707.359375 554.429688 L 593 554.429688 Z M 593 481.332031 " fill-opacity="1" fill-rule="nonzero"/></g></g><path fill="#737373" d="M 665.847656 498.101562 C 665.847656 499.054688 666.628906 499.835938 667.582031 499.835938 C 668.539062 499.835938 669.316406 499.054688 669.316406 498.101562 C 669.316406 497.144531 668.539062 496.367188 667.582031 496.367188 C 666.628906 496.367188 665.847656 497.144531 665.847656 498.101562 " fill-opacity="1" fill-rule="nonzero"/><path fill="#737373" d="M 674.519531 499.835938 C 675.472656 499.835938 676.25 499.054688 676.25 498.101562 C 676.25 497.144531 675.472656 496.367188 674.519531 496.367188 C 673.5625 496.367188 672.785156 497.144531 672.785156 498.101562 C 672.785156 499.054688 673.5625 499.835938 674.519531 499.835938 " fill-opacity="1" fill-rule="nonzero"/><g clip-path="url(#f96833c9a7)"><path fill="#737373" d="M 678.371094 524.746094 L 673.847656 522.027344 L 678.703125 517.171875 L 679.457031 517.171875 Z M 667.296875 516.171875 L 665.847656 514.71875 L 665.847656 514.253906 C 667.425781 515.003906 669.1875 515.4375 671.050781 515.4375 C 672.914062 515.4375 674.671875 515.003906 676.25 514.253906 L 676.25 514.71875 L 671.21875 519.753906 C 670.128906 518.34375 668.800781 517.132812 667.296875 516.171875 Z M 652.898438 525.070312 L 648.070312 522.171875 L 654.320312 517.171875 L 656.285156 517.171875 Z M 647.15625 527.574219 L 642.929688 527.574219 L 642.507812 525.917969 L 645.042969 524.390625 L 647.574219 525.917969 Z M 637.1875 525.070312 L 633.800781 517.171875 L 635.765625 517.171875 L 642.015625 522.171875 Z M 618.867188 519.753906 L 613.832031 514.71875 L 613.832031 514.253906 C 615.410156 515.003906 617.171875 515.4375 619.035156 515.4375 C 620.898438 515.4375 622.660156 515.003906 624.238281 514.253906 L 624.238281 514.71875 L 622.789062 516.171875 C 621.285156 517.132812 619.957031 518.34375 618.867188 519.753906 Z M 610.628906 517.171875 L 611.382812 517.171875 L 616.238281 522.027344 L 611.714844 524.746094 Z M 603.429688 505.035156 L 603.429688 504.074219 C 604.453125 504.667969 605.632812 505.035156 606.898438 505.035156 L 607.039062 505.035156 C 607.414062 507.644531 608.605469 509.980469 610.367188 511.78125 L 610.367188 513.703125 L 608.632812 513.703125 C 608.144531 513.703125 607.664062 513.730469 607.183594 513.777344 C 604.796875 511.488281 603.429688 508.355469 603.429688 505.035156 Z M 606.898438 501.566406 C 604.988281 501.566406 603.429688 500.011719 603.429688 498.101562 C 603.429688 497.144531 604.210938 496.367188 605.164062 496.367188 L 606.898438 496.367188 Z M 617.300781 477.292969 L 620.769531 477.292969 C 622.457031 477.292969 624.085938 477.59375 625.644531 478.179688 C 624.75 480.015625 624.238281 482.0625 624.238281 484.230469 C 624.238281 485.691406 624.480469 487.128906 624.933594 488.511719 C 623.476562 489.4375 622.503906 491.050781 622.503906 492.898438 C 622.503906 496.121094 624.722656 498.8125 627.703125 499.589844 L 627.703125 503.300781 C 627.703125 508.082031 623.816406 511.972656 619.035156 511.972656 C 614.253906 511.972656 610.367188 508.082031 610.367188 503.300781 L 610.367188 492.84375 C 613.597656 492.648438 616.738281 491.890625 619.734375 490.582031 C 620.605469 490.195312 621.007812 489.171875 620.621094 488.300781 C 620.242188 487.425781 619.230469 487.019531 618.335938 487.40625 C 615.261719 488.746094 612 489.429688 608.632812 489.429688 C 607.675781 489.429688 606.898438 490.210938 606.898438 491.164062 L 606.898438 492.898438 L 605.164062 492.898438 C 604.554688 492.898438 603.972656 493.027344 603.429688 493.21875 L 603.429688 491.164062 C 603.429688 483.519531 609.65625 477.292969 617.300781 477.292969 Z M 629.4375 496.367188 C 627.527344 496.367188 625.96875 494.808594 625.96875 492.898438 C 625.96875 491.945312 626.75 491.164062 627.703125 491.164062 L 629.4375 491.164062 Z M 649.554688 488.21875 C 651.492188 486.761719 653.886719 485.964844 656.3125 485.964844 L 657.179688 485.964844 L 657.179688 499.835938 C 657.179688 506.527344 651.734375 511.972656 645.042969 511.972656 C 638.351562 511.972656 632.90625 506.527344 632.90625 499.835938 L 632.90625 491.164062 L 640.707031 491.164062 C 643.878906 491.164062 647.019531 490.113281 649.554688 488.21875 Z M 662.382812 491.164062 C 663.335938 491.164062 664.113281 491.945312 664.113281 492.898438 C 664.113281 494.808594 662.558594 496.367188 660.648438 496.367188 L 660.648438 491.164062 Z M 638.105469 514.605469 L 638.105469 513.792969 C 640.199219 514.835938 642.550781 515.4375 645.042969 515.4375 C 647.535156 515.4375 649.886719 514.835938 651.976562 513.792969 L 651.976562 514.605469 L 645.042969 520.152344 Z M 631.171875 513.703125 C 629.980469 513.703125 628.820312 513.855469 627.703125 514.105469 L 627.703125 511.78125 C 629.195312 510.25 630.277344 508.332031 630.804688 506.195312 C 631.707031 508.207031 633.019531 509.980469 634.640625 511.429688 L 634.640625 513.703125 Z M 658.914062 513.703125 L 655.445312 513.703125 L 655.445312 511.429688 C 657.0625 509.980469 658.378906 508.207031 659.277344 506.195312 C 659.808594 508.332031 660.890625 510.25 662.382812 511.78125 L 662.382812 514.105469 C 661.261719 513.855469 660.105469 513.703125 658.914062 513.703125 Z M 676 488.257812 C 678.414062 491.132812 679.71875 494.726562 679.71875 498.519531 L 679.71875 503.300781 C 679.71875 508.082031 675.832031 511.972656 671.050781 511.972656 C 666.269531 511.972656 662.382812 508.082031 662.382812 503.300781 L 662.382812 499.589844 C 665.359375 498.8125 667.582031 496.121094 667.582031 492.898438 C 667.582031 492.59375 667.542969 492.296875 667.496094 492.003906 C 670.523438 491.226562 673.414062 489.980469 676 488.257812 Z M 684.921875 496.367188 C 685.875 496.367188 686.65625 497.144531 686.65625 498.101562 C 686.65625 500.011719 685.097656 501.566406 683.1875 501.566406 L 683.1875 498.519531 C 683.1875 497.796875 683.140625 497.078125 683.058594 496.367188 Z M 681.453125 513.703125 L 679.71875 513.703125 L 679.71875 511.78125 C 681.480469 509.980469 682.671875 507.644531 683.046875 505.035156 L 683.1875 505.035156 C 687.015625 505.035156 690.121094 501.925781 690.121094 498.101562 C 690.121094 497.035156 689.796875 496.046875 689.25 495.226562 C 689.816406 493.921875 690.121094 492.558594 690.121094 491.164062 C 690.121094 489.1875 689.796875 487.277344 689.152344 485.480469 C 688.828125 484.582031 687.832031 484.109375 686.933594 484.433594 C 686.039062 484.757812 685.566406 485.753906 685.890625 486.652344 C 686.398438 488.070312 686.65625 489.585938 686.65625 491.164062 C 686.65625 491.828125 686.519531 492.480469 686.324219 493.117188 C 685.875 492.988281 685.410156 492.898438 684.921875 492.898438 L 682.367188 492.898438 C 681.453125 489.851562 679.792969 487.054688 677.476562 484.738281 C 676.867188 484.128906 675.898438 484.058594 675.214844 484.574219 C 672.398438 486.6875 669.09375 488.136719 665.625 488.867188 C 665.347656 488.636719 665.042969 488.441406 664.71875 488.28125 C 665.457031 486.4375 665.847656 484.480469 665.847656 482.496094 L 665.847656 477.78125 C 666.992188 477.484375 668.160156 477.292969 669.316406 477.292969 L 672.785156 477.292969 C 676.515625 477.292969 680.011719 478.757812 682.632812 481.40625 C 682.96875 481.75 683.417969 481.917969 683.863281 481.917969 C 684.304688 481.917969 684.746094 481.757812 685.082031 481.425781 C 685.761719 480.75 685.769531 479.652344 685.097656 478.972656 C 681.820312 475.65625 677.449219 473.828125 672.785156 473.828125 L 669.316406 473.828125 C 668.160156 473.828125 667 473.953125 665.847656 474.199219 L 665.847656 472.09375 C 665.847656 471.136719 665.070312 470.359375 664.113281 470.359375 L 653.710938 470.359375 C 652.757812 470.359375 651.976562 471.136719 651.976562 472.09375 C 651.976562 473.046875 652.757812 473.828125 653.710938 473.828125 L 662.382812 473.828125 L 662.382812 482.496094 C 662.382812 484.296875 661.953125 486.070312 661.167969 487.695312 L 660.648438 487.695312 L 660.648438 484.230469 C 660.648438 483.273438 659.867188 482.496094 658.914062 482.496094 L 656.3125 482.496094 C 653.144531 482.496094 650 483.546875 647.46875 485.441406 C 645.53125 486.898438 643.132812 487.695312 640.707031 487.695312 L 628.308594 487.695312 C 627.90625 486.578125 627.703125 485.414062 627.703125 484.230469 C 627.703125 478.492188 632.371094 473.828125 638.105469 473.828125 L 646.777344 473.828125 C 647.730469 473.828125 648.511719 473.046875 648.511719 472.09375 C 648.511719 471.136719 647.730469 470.359375 646.777344 470.359375 L 638.105469 470.359375 C 633.886719 470.359375 630.109375 472.261719 627.5625 475.242188 C 625.414062 474.328125 623.097656 473.828125 620.769531 473.828125 L 617.300781 473.828125 C 607.738281 473.828125 599.960938 481.601562 599.960938 491.164062 L 599.960938 505.035156 C 599.960938 508.5625 601.160156 511.9375 603.308594 514.660156 C 597.320312 516.839844 593.027344 522.578125 593.027344 529.308594 L 593.027344 546.648438 C 593.027344 547.601562 593.804688 548.382812 594.761719 548.382812 C 595.714844 548.382812 596.496094 547.601562 596.496094 546.648438 L 596.496094 529.308594 C 596.496094 523.117188 601.15625 518.011719 607.140625 517.273438 L 608.652344 527.820312 C 608.734375 528.394531 609.097656 528.890625 609.621094 529.140625 C 609.859375 529.253906 610.109375 529.308594 610.367188 529.308594 C 610.675781 529.308594 610.980469 529.226562 611.261719 529.058594 L 615.867188 526.296875 C 615.675781 527.269531 615.566406 528.28125 615.566406 529.308594 C 615.566406 530.265625 616.347656 531.042969 617.300781 531.042969 C 618.257812 531.042969 619.035156 530.265625 619.035156 529.308594 C 619.035156 522.996094 623.882812 517.796875 630.054688 517.226562 L 634.78125 528.257812 C 634.976562 528.71875 635.363281 529.074219 635.839844 529.226562 C 636.015625 529.28125 636.199219 529.308594 636.375 529.308594 C 636.683594 529.308594 636.988281 529.226562 637.265625 529.058594 L 639.40625 527.777344 L 639.820312 529.4375 L 638.113281 546.472656 C 638.074219 546.90625 638.195312 547.339844 638.453125 547.691406 L 643.652344 554.625 C 643.984375 555.058594 644.492188 555.316406 645.042969 555.316406 C 645.589844 555.316406 646.097656 555.058594 646.429688 554.625 L 651.632812 547.691406 C 651.890625 547.339844 652.011719 546.90625 651.972656 546.472656 L 650.929688 536.074219 C 650.832031 535.121094 650.007812 534.429688 649.03125 534.519531 C 648.078125 534.613281 647.386719 535.464844 647.480469 536.414062 L 648.449219 546.148438 L 645.042969 550.691406 L 641.636719 546.148438 L 643.144531 531.042969 L 648.511719 531.042969 C 649.308594 531.042969 650 530.5 650.191406 529.730469 L 650.675781 527.777344 L 652.816406 529.058594 C 653.09375 529.226562 653.398438 529.308594 653.710938 529.308594 C 653.886719 529.308594 654.070312 529.28125 654.246094 529.226562 C 654.722656 529.074219 655.105469 528.71875 655.304688 528.257812 L 660.03125 517.226562 C 666.199219 517.796875 671.050781 522.996094 671.050781 529.308594 L 671.050781 553.582031 C 671.050781 554.539062 671.828125 555.316406 672.785156 555.316406 C 673.738281 555.316406 674.519531 554.539062 674.519531 553.582031 L 674.519531 529.308594 C 674.519531 528.28125 674.410156 527.269531 674.21875 526.296875 L 678.824219 529.058594 C 679.101562 529.226562 679.40625 529.308594 679.71875 529.308594 C 679.976562 529.308594 680.226562 529.253906 680.464844 529.140625 C 680.984375 528.890625 681.351562 528.394531 681.433594 527.820312 L 682.945312 517.273438 C 688.9375 518.011719 693.589844 523.117188 693.589844 529.308594 L 693.589844 546.648438 C 693.589844 547.601562 694.371094 548.382812 695.324219 548.382812 C 696.277344 548.382812 697.058594 547.601562 697.058594 546.648438 L 697.058594 529.308594 C 697.058594 520.707031 690.0625 513.703125 681.453125 513.703125 " fill-opacity="1" fill-rule="nonzero"/></g><path fill="#737373" d="M 615.566406 496.367188 C 614.613281 496.367188 613.832031 497.144531 613.832031 498.101562 C 613.832031 499.054688 614.613281 499.835938 615.566406 499.835938 C 616.523438 499.835938 617.300781 499.054688 617.300781 498.101562 C 617.300781 497.144531 616.523438 496.367188 615.566406 496.367188 " fill-opacity="1" fill-rule="nonzero"/><path fill="#737373" d="M 622.503906 499.835938 C 623.457031 499.835938 624.238281 499.054688 624.238281 498.101562 C 624.238281 497.144531 623.457031 496.367188 622.503906 496.367188 C 621.546875 496.367188 620.769531 497.144531 620.769531 498.101562 C 620.769531 499.054688 621.546875 499.835938 622.503906 499.835938 " fill-opacity="1" fill-rule="nonzero"/><g clip-path="url(#7abb211d80)"><path fill="#737373" d="M 617.300781 534.511719 C 616.347656 534.511719 615.566406 535.289062 615.566406 536.246094 L 615.566406 553.582031 C 615.566406 554.539062 616.347656 555.316406 617.300781 555.316406 C 618.257812 555.316406 619.035156 554.539062 619.035156 553.582031 L 619.035156 536.246094 C 619.035156 535.289062 618.257812 534.511719 617.300781 534.511719 " fill-opacity="1" fill-rule="nonzero"/></g><path fill="#737373" d="M 639.839844 498.101562 C 640.796875 498.101562 641.574219 497.320312 641.574219 496.367188 C 641.574219 495.410156 640.796875 494.632812 639.839844 494.632812 C 638.886719 494.632812 638.105469 495.410156 638.105469 496.367188 C 638.105469 497.320312 638.886719 498.101562 639.839844 498.101562 " fill-opacity="1" fill-rule="nonzero"/><path fill="#737373" d="M 650.246094 498.101562 C 651.199219 498.101562 651.976562 497.320312 651.976562 496.367188 C 651.976562 495.410156 651.199219 494.632812 650.246094 494.632812 C 649.289062 494.632812 648.511719 495.410156 648.511719 496.367188 C 648.511719 497.320312 649.289062 498.101562 650.246094 498.101562 " fill-opacity="1" fill-rule="nonzero"/><g clip-path="url(#780372ad25)"><g clip-path="url(#8a845d8457)"><path fill="#ffffff" d="M 759.824219 641.636719 L 847.644531 641.636719 L 847.644531 708.121094 L 759.824219 708.121094 Z M 759.824219 641.636719 " fill-opacity="1" fill-rule="nonzero"/></g></g><g clip-path="url(#2e01ab54da)"><path fill="#737373" d="M 802.332031 710.210938 C 792.644531 710.210938 783.539062 706.441406 776.6875 699.589844 C 769.839844 692.742188 766.066406 683.636719 766.066406 673.949219 C 766.066406 664.261719 769.839844 655.15625 776.6875 648.304688 C 783.539062 641.457031 792.644531 637.683594 802.332031 637.683594 C 812.019531 637.683594 821.125 641.457031 827.972656 648.304688 C 834.824219 655.15625 838.597656 664.261719 838.597656 673.949219 C 838.597656 683.636719 834.824219 692.742188 827.972656 699.589844 C 821.125 706.441406 812.019531 710.210938 802.332031 710.210938 Z M 802.332031 643.21875 C 785.386719 643.21875 771.601562 657.003906 771.601562 673.949219 C 771.601562 690.894531 785.386719 704.679688 802.332031 704.679688 C 819.277344 704.679688 833.0625 690.890625 833.0625 673.949219 C 833.0625 657.003906 819.277344 643.21875 802.332031 643.21875 Z M 802.332031 643.21875 " fill-opacity="1" fill-rule="nonzero"/></g><path fill="#737373" d="M 814.367188 687.953125 C 813.828125 687.953125 813.285156 687.792969 812.804688 687.464844 L 799.324219 678.222656 C 798.570312 677.703125 798.121094 676.847656 798.121094 675.933594 L 798.15625 653.3125 C 798.160156 651.785156 799.398438 650.550781 800.925781 650.550781 C 800.925781 650.550781 800.929688 650.550781 800.929688 650.550781 C 802.457031 650.550781 803.695312 651.792969 803.691406 653.320312 L 803.660156 674.484375 L 815.9375 682.902344 C 817.195312 683.765625 817.515625 685.488281 816.652344 686.75 C 816.117188 687.53125 815.25 687.953125 814.367188 687.953125 Z M 814.367188 687.953125 " fill-opacity="1" fill-rule="nonzero"/></svg>