<svg xmlns="http://www.w3.org/2000/svg" xmlns:xlink="http://www.w3.org/1999/xlink" width="1366" zoomAndPan="magnify" viewBox="0 0 1024.5 576" height="768" preserveAspectRatio="xMidYMid meet" version="1.0"><defs><g/><clipPath id="a7e8a15915"><path d="M 46 84.933594 L 392 84.933594 L 392 491.21875 L 46 491.21875 Z M 46 84.933594 " clip-rule="nonzero"/></clipPath></defs><path fill="#fb921c" d="M 257.757812 171.609375 C 260.046875 172.925781 262.28125 174.300781 264.484375 175.730469 C 201.378906 143.742188 123.53125 166.34375 87.722656 228.359375 C 64.738281 268.164062 64.722656 314.738281 82.898438 353.410156 C 121.398438 435.347656 224.367188 433.046875 255.179688 347.613281 C 273.128906 297.863281 240.023438 244.0625 190.359375 227.816406 C 192.246094 228.214844 194.136719 228.675781 196.011719 229.175781 C 254.894531 244.949219 289.847656 305.476562 274.058594 364.359375 C 254.566406 437.09375 172.769531 467.683594 108.289062 430.46875 C 36.8125 389.191406 12.324219 297.789062 53.585938 226.3125 C 94.851562 154.835938 186.265625 130.332031 257.742188 171.609375 Z M 186.878906 314.953125 C 199.574219 311.546875 212.628906 319.085938 216.035156 331.78125 C 219.441406 344.476562 211.898438 357.53125 199.203125 360.9375 C 186.507812 364.34375 173.457031 356.800781 170.050781 344.105469 C 166.640625 331.410156 174.183594 318.359375 186.878906 314.953125 Z M 23.230469 137.144531 C 39.832031 132.695312 56.894531 142.542969 61.34375 159.15625 C 65.796875 175.761719 55.949219 192.835938 39.332031 197.285156 C 22.730469 201.738281 5.667969 191.875 1.21875 175.273438 C -3.234375 158.671875 6.613281 141.597656 23.230469 137.160156 Z M 23.230469 137.144531 " fill-opacity="1" fill-rule="evenodd"/><g clip-path="url(#a7e8a15915)"><path fill="#0080a5" d="M 117.378906 151.800781 C 114.585938 153.40625 111.867188 155.078125 109.207031 156.8125 C 185.964844 117.894531 280.628906 145.402344 324.183594 220.816406 C 354.09375 272.613281 352.347656 334 324.984375 382.605469 L 333.300781 433.675781 L 290.160156 425.359375 C 282.347656 432.171875 273.757812 438.339844 264.441406 443.722656 C 189.011719 487.277344 93.277344 463.746094 46.257812 391.667969 C 47.703125 394.5 49.222656 397.304688 50.839844 400.097656 C 101.035156 487.03125 212.199219 516.816406 299.136719 466.621094 C 301.496094 465.261719 303.816406 463.832031 306.105469 462.386719 L 373.359375 473.75 L 361.996094 406.222656 C 396.777344 350.976562 400.570312 278.796875 365.660156 218.339844 C 315.464844 131.40625 204.300781 101.621094 117.363281 151.816406 Z M 345.164062 86.207031 C 364.84375 80.925781 385.082031 92.605469 390.363281 112.296875 C 395.644531 131.976562 383.953125 152.214844 364.273438 157.496094 C 344.589844 162.765625 324.355469 151.085938 319.074219 131.40625 C 313.789062 111.710938 325.484375 91.488281 345.164062 86.207031 Z M 345.164062 86.207031 " fill-opacity="1" fill-rule="evenodd"/></g><g fill="#252827" fill-opacity="1"><g transform="translate(391.834133, 374.114941)"><g><path d="M 23.953125 -43.03125 C 26.066406 -43.03125 27.863281 -42.710938 29.34375 -42.078125 C 30.832031 -41.441406 32.144531 -40.769531 33.28125 -40.0625 C 38.9375 -35.96875 44.867188 -32.71875 51.078125 -30.3125 C 57.296875 -27.90625 64.007812 -26.703125 71.21875 -26.703125 C 78 -26.703125 83.257812 -27.9375 87 -30.40625 C 90.75 -32.882812 92.625 -36.316406 92.625 -40.703125 L 92.625 -41.125 C 92.625 -43.238281 92.234375 -45.109375 91.453125 -46.734375 C 90.679688 -48.359375 89.203125 -49.910156 87.015625 -51.390625 C 84.828125 -52.878906 81.785156 -54.296875 77.890625 -55.640625 C 74.003906 -56.984375 68.957031 -58.429688 62.75 -59.984375 C 55.257812 -61.828125 48.472656 -63.84375 42.390625 -66.03125 C 36.316406 -68.21875 31.160156 -71.003906 26.921875 -74.390625 C 22.679688 -77.785156 19.394531 -81.957031 17.0625 -86.90625 C 14.726562 -91.851562 13.5625 -98 13.5625 -105.34375 L 13.5625 -105.765625 C 13.5625 -112.554688 14.832031 -118.671875 17.375 -124.109375 C 19.925781 -129.546875 23.492188 -134.242188 28.078125 -138.203125 C 32.671875 -142.160156 38.144531 -145.195312 44.5 -147.3125 C 50.863281 -149.4375 57.863281 -150.5 65.5 -150.5 C 83.445312 -150.5 99.132812 -146.117188 112.5625 -137.359375 C 114.394531 -136.222656 116.050781 -134.59375 117.53125 -132.46875 C 119.019531 -130.351562 119.765625 -127.671875 119.765625 -124.421875 C 119.765625 -120.179688 118.28125 -116.613281 115.3125 -113.71875 C 112.34375 -110.820312 108.738281 -109.375 104.5 -109.375 C 101.53125 -109.375 98.773438 -110.148438 96.234375 -111.703125 C 85.492188 -118.347656 75.109375 -121.671875 65.078125 -121.671875 C 58.710938 -121.671875 53.941406 -120.429688 50.765625 -117.953125 C 47.585938 -115.484375 46 -112.410156 46 -108.734375 L 46 -108.3125 C 46 -105.769531 46.457031 -103.648438 47.375 -101.953125 C 48.289062 -100.253906 49.945312 -98.734375 52.34375 -97.390625 C 54.75 -96.054688 58.035156 -94.71875 62.203125 -93.375 C 66.378906 -92.03125 71.644531 -90.507812 78 -88.8125 C 85.488281 -86.832031 92.164062 -84.601562 98.03125 -82.125 C 103.894531 -79.65625 108.84375 -76.691406 112.875 -73.234375 C 116.90625 -69.773438 119.941406 -65.710938 121.984375 -61.046875 C 124.035156 -56.378906 125.0625 -50.796875 125.0625 -44.296875 L 125.0625 -43.875 C 125.0625 -36.53125 123.71875 -29.992188 121.03125 -24.265625 C 118.34375 -18.546875 114.597656 -13.742188 109.796875 -9.859375 C 104.992188 -5.972656 99.269531 -3.003906 92.625 -0.953125 C 85.988281 1.097656 78.640625 2.125 70.578125 2.125 C 60.828125 2.125 51.21875 0.640625 41.75 -2.328125 C 32.289062 -5.296875 23.320312 -9.75 14.84375 -15.6875 C 13 -16.957031 11.507812 -18.6875 10.375 -20.875 C 9.25 -23.070312 8.6875 -25.441406 8.6875 -27.984375 C 8.6875 -32.222656 10.171875 -35.789062 13.140625 -38.6875 C 16.109375 -41.582031 19.710938 -43.03125 23.953125 -43.03125 Z M 23.953125 -43.03125 "/></g></g></g><g fill="#252827" fill-opacity="1"><g transform="translate(527.498513, 374.114941)"><g><path d="M 89.03125 -150.921875 C 100.332031 -150.921875 109.9375 -149.753906 117.84375 -147.421875 C 125.757812 -145.085938 133.039062 -141.453125 139.6875 -136.515625 C 141.238281 -135.378906 142.753906 -133.710938 144.234375 -131.515625 C 145.722656 -129.328125 146.46875 -126.609375 146.46875 -123.359375 C 146.46875 -118.835938 144.910156 -115.019531 141.796875 -111.90625 C 138.691406 -108.800781 134.878906 -107.25 130.359375 -107.25 C 127.953125 -107.25 125.972656 -107.601562 124.421875 -108.3125 C 122.867188 -109.019531 121.523438 -109.796875 120.390625 -110.640625 C 115.867188 -113.890625 111.132812 -116.398438 106.1875 -118.171875 C 101.25 -119.941406 95.175781 -120.828125 87.96875 -120.828125 C 82.03125 -120.828125 76.484375 -119.585938 71.328125 -117.109375 C 66.171875 -114.640625 61.648438 -111.316406 57.765625 -107.140625 C 53.878906 -102.972656 50.835938 -98.097656 48.640625 -92.515625 C 46.453125 -86.941406 45.359375 -80.972656 45.359375 -74.609375 L 45.359375 -74.1875 C 45.359375 -67.40625 46.453125 -61.148438 48.640625 -55.421875 C 50.835938 -49.703125 53.945312 -44.722656 57.96875 -40.484375 C 62 -36.242188 66.769531 -32.957031 72.28125 -30.625 C 77.789062 -28.289062 83.796875 -27.125 90.296875 -27.125 C 102.585938 -27.125 112.832031 -30.09375 121.03125 -36.03125 L 121.03125 -57.234375 L 98.984375 -57.234375 C 95.023438 -57.234375 91.664062 -58.570312 88.90625 -61.25 C 86.15625 -63.9375 84.78125 -67.257812 84.78125 -71.21875 C 84.78125 -75.175781 86.15625 -78.53125 88.90625 -81.28125 C 91.664062 -84.039062 95.023438 -85.421875 98.984375 -85.421875 L 136.296875 -85.421875 C 140.816406 -85.421875 144.664062 -83.832031 147.84375 -80.65625 C 151.03125 -77.476562 152.625 -73.628906 152.625 -69.109375 L 152.625 -33.0625 C 152.625 -23.882812 148.804688 -16.960938 141.171875 -12.296875 C 135.097656 -8.617188 127.710938 -5.222656 119.015625 -2.109375 C 110.328125 0.992188 100.398438 2.546875 89.234375 2.546875 C 77.648438 2.546875 67.085938 0.640625 57.546875 -3.171875 C 48.003906 -6.992188 39.804688 -12.296875 32.953125 -19.078125 C 26.109375 -25.859375 20.773438 -33.910156 16.953125 -43.234375 C 13.140625 -52.566406 11.234375 -62.742188 11.234375 -73.765625 L 11.234375 -74.1875 C 11.234375 -84.789062 13.175781 -94.71875 17.0625 -103.96875 C 20.945312 -113.226562 26.351562 -121.351562 33.28125 -128.34375 C 40.207031 -135.34375 48.4375 -140.851562 57.96875 -144.875 C 67.507812 -148.90625 77.863281 -150.921875 89.03125 -150.921875 Z M 89.03125 -150.921875 "/></g></g></g><g fill="#252827" fill-opacity="1"><g transform="translate(693.687395, 374.114941)"><g><path d="M 17.8125 -132.0625 C 17.8125 -136.582031 19.398438 -140.429688 22.578125 -143.609375 C 25.753906 -146.785156 29.601562 -148.375 34.125 -148.375 L 85.640625 -148.375 C 93.546875 -148.375 100.890625 -147.382812 107.671875 -145.40625 C 114.460938 -143.425781 120.363281 -140.421875 125.375 -136.390625 C 130.394531 -132.367188 134.351562 -127.285156 137.25 -121.140625 C 140.144531 -114.992188 141.59375 -107.75 141.59375 -99.40625 L 141.59375 -98.984375 C 141.59375 -87.117188 138.90625 -77.546875 133.53125 -70.265625 C 128.164062 -62.984375 120.960938 -57.507812 111.921875 -53.84375 L 134.59375 -26.28125 C 136.15625 -24.300781 137.429688 -22.359375 138.421875 -20.453125 C 139.410156 -18.546875 139.90625 -16.320312 139.90625 -13.78125 C 139.90625 -9.257812 138.3125 -5.617188 135.125 -2.859375 C 131.945312 -0.109375 128.378906 1.265625 124.421875 1.265625 C 120.753906 1.265625 117.644531 0.453125 115.09375 -1.171875 C 112.550781 -2.796875 110.289062 -4.804688 108.3125 -7.203125 L 76.515625 -47.484375 L 50.453125 -47.484375 L 50.453125 -15.046875 C 50.453125 -10.523438 48.859375 -6.675781 45.671875 -3.5 C 42.492188 -0.320312 38.644531 1.265625 34.125 1.265625 C 29.601562 1.265625 25.753906 -0.320312 22.578125 -3.5 C 19.398438 -6.675781 17.8125 -10.523438 17.8125 -15.046875 Z M 50.453125 -118.921875 L 50.453125 -76.3125 L 83.515625 -76.3125 C 91.566406 -76.3125 97.75 -78.21875 102.0625 -82.03125 C 106.375 -85.84375 108.53125 -90.929688 108.53125 -97.296875 L 108.53125 -97.71875 C 108.53125 -104.925781 106.269531 -110.257812 101.75 -113.71875 C 97.226562 -117.1875 90.9375 -118.921875 82.875 -118.921875 Z M 50.453125 -118.921875 "/></g></g></g><g fill="#252827" fill-opacity="1"><g transform="translate(846.945753, 374.114941)"><g><path d="M 17.8125 -15.046875 L 17.8125 -133.328125 C 17.8125 -137.847656 19.398438 -141.695312 22.578125 -144.875 C 25.753906 -148.0625 29.601562 -149.65625 34.125 -149.65625 C 38.644531 -149.65625 42.492188 -148.0625 45.671875 -144.875 C 48.859375 -141.695312 50.453125 -137.847656 50.453125 -133.328125 L 50.453125 -89.65625 L 110.640625 -89.65625 L 110.640625 -133.328125 C 110.640625 -137.847656 112.226562 -141.695312 115.40625 -144.875 C 118.59375 -148.0625 122.445312 -149.65625 126.96875 -149.65625 C 131.488281 -149.65625 135.335938 -148.0625 138.515625 -144.875 C 141.703125 -141.695312 143.296875 -137.847656 143.296875 -133.328125 L 143.296875 -15.046875 C 143.296875 -10.523438 141.703125 -6.675781 138.515625 -3.5 C 135.335938 -0.320312 131.488281 1.265625 126.96875 1.265625 C 122.445312 1.265625 118.59375 -0.320312 115.40625 -3.5 C 112.226562 -6.675781 110.640625 -10.523438 110.640625 -15.046875 L 110.640625 -59.5625 L 50.453125 -59.5625 L 50.453125 -15.046875 C 50.453125 -10.523438 48.859375 -6.675781 45.671875 -3.5 C 42.492188 -0.320312 38.644531 1.265625 34.125 1.265625 C 29.601562 1.265625 25.753906 -0.320312 22.578125 -3.5 C 19.398438 -6.675781 17.8125 -10.523438 17.8125 -15.046875 Z M 17.8125 -15.046875 "/></g></g></g></svg>